<?xml version="1.0" encoding="utf-8" standalone="no"?>
<!DOCTYPE svg PUBLIC "-//W3C//DTD SVG 1.1//EN"
  "http://www.w3.org/Graphics/SVG/1.1/DTD/svg11.dtd">
<svg xmlns:xlink="http://www.w3.org/1999/xlink" width="408.252187pt" height="402.071825pt" viewBox="0 0 408.252187 402.071825" xmlns="http://www.w3.org/2000/svg" version="1.1">
 <metadata>
  <rdf:RDF xmlns:dc="http://purl.org/dc/elements/1.1/" xmlns:cc="http://creativecommons.org/ns#" xmlns:rdf="http://www.w3.org/1999/02/22-rdf-syntax-ns#">
   <cc:Work>
    <dc:type rdf:resource="http://purl.org/dc/dcmitype/StillImage"/>
    <dc:date>2025-10-13T12:06:56.176913</dc:date>
    <dc:format>image/svg+xml</dc:format>
    <dc:creator>
     <cc:Agent>
      <dc:title>Matplotlib v3.9.4, https://matplotlib.org/</dc:title>
     </cc:Agent>
    </dc:creator>
   </cc:Work>
  </rdf:RDF>
 </metadata>
 <defs>
  <style type="text/css">*{stroke-linejoin: round; stroke-linecap: butt}</style>
 </defs>
 <g id="figure_1">
  <g id="patch_1">
   <path d="M 0 402.071825 
L 408.252187 402.071825 
L 408.252187 0 
L 0 0 
z
" style="fill: #ffffff"/>
  </g>
  <g id="axes_1">
   <g id="patch_2">
    <path d="M 74.622188 87.0336 
L 353.622187 87.0336 
L 353.622187 33.8112 
L 74.622188 33.8112 
z
" style="fill: #ffffff"/>
   </g>
   <g id="matplotlib.axis_1">
    <g id="xtick_1">
     <g id="line2d_1">
      <defs>
       <path id="m2aaf959f9b" d="M 0 0 
L 0 3.5 
" style="stroke: #000000; stroke-width: 0.8"/>
      </defs>
      <g>
       <use xlink:href="#m2aaf959f9b" x="74.622188" y="87.0336" style="stroke: #000000; stroke-width: 0.8"/>
      </g>
     </g>
     <g id="text_1">
      <!-- 0 -->
      <g transform="translate(71.759063 100.872194) scale(0.09 -0.09)">
       <defs>
        <path id="DejaVuSans-30" d="M 2034 4250 
Q 1547 4250 1301 3770 
Q 1056 3291 1056 2328 
Q 1056 1369 1301 889 
Q 1547 409 2034 409 
Q 2525 409 2770 889 
Q 3016 1369 3016 2328 
Q 3016 3291 2770 3770 
Q 2525 4250 2034 4250 
z
M 2034 4750 
Q 2819 4750 3233 4129 
Q 3647 3509 3647 2328 
Q 3647 1150 3233 529 
Q 2819 -91 2034 -91 
Q 1250 -91 836 529 
Q 422 1150 422 2328 
Q 422 3509 836 4129 
Q 1250 4750 2034 4750 
z
" transform="scale(0.015625)"/>
       </defs>
       <use xlink:href="#DejaVuSans-30"/>
      </g>
     </g>
    </g>
    <g id="xtick_2">
     <g id="line2d_2">
      <g>
       <use xlink:href="#m2aaf959f9b" x="144.372187" y="87.0336" style="stroke: #000000; stroke-width: 0.8"/>
      </g>
     </g>
     <g id="text_2">
      <!-- 90 -->
      <g transform="translate(138.645938 100.872194) scale(0.09 -0.09)">
       <defs>
        <path id="DejaVuSans-39" d="M 703 97 
L 703 672 
Q 941 559 1184 500 
Q 1428 441 1663 441 
Q 2288 441 2617 861 
Q 2947 1281 2994 2138 
Q 2813 1869 2534 1725 
Q 2256 1581 1919 1581 
Q 1219 1581 811 2004 
Q 403 2428 403 3163 
Q 403 3881 828 4315 
Q 1253 4750 1959 4750 
Q 2769 4750 3195 4129 
Q 3622 3509 3622 2328 
Q 3622 1225 3098 567 
Q 2575 -91 1691 -91 
Q 1453 -91 1209 -44 
Q 966 3 703 97 
z
M 1959 2075 
Q 2384 2075 2632 2365 
Q 2881 2656 2881 3163 
Q 2881 3666 2632 3958 
Q 2384 4250 1959 4250 
Q 1534 4250 1286 3958 
Q 1038 3666 1038 3163 
Q 1038 2656 1286 2365 
Q 1534 2075 1959 2075 
z
" transform="scale(0.015625)"/>
       </defs>
       <use xlink:href="#DejaVuSans-39"/>
       <use xlink:href="#DejaVuSans-30" x="63.623047"/>
      </g>
     </g>
    </g>
    <g id="xtick_3">
     <g id="line2d_3">
      <g>
       <use xlink:href="#m2aaf959f9b" x="214.122187" y="87.0336" style="stroke: #000000; stroke-width: 0.8"/>
      </g>
     </g>
     <g id="text_3">
      <!-- 180 -->
      <g transform="translate(205.532813 100.872194) scale(0.09 -0.09)">
       <defs>
        <path id="DejaVuSans-31" d="M 794 531 
L 1825 531 
L 1825 4091 
L 703 3866 
L 703 4441 
L 1819 4666 
L 2450 4666 
L 2450 531 
L 3481 531 
L 3481 0 
L 794 0 
L 794 531 
z
" transform="scale(0.015625)"/>
        <path id="DejaVuSans-38" d="M 2034 2216 
Q 1584 2216 1326 1975 
Q 1069 1734 1069 1313 
Q 1069 891 1326 650 
Q 1584 409 2034 409 
Q 2484 409 2743 651 
Q 3003 894 3003 1313 
Q 3003 1734 2745 1975 
Q 2488 2216 2034 2216 
z
M 1403 2484 
Q 997 2584 770 2862 
Q 544 3141 544 3541 
Q 544 4100 942 4425 
Q 1341 4750 2034 4750 
Q 2731 4750 3128 4425 
Q 3525 4100 3525 3541 
Q 3525 3141 3298 2862 
Q 3072 2584 2669 2484 
Q 3125 2378 3379 2068 
Q 3634 1759 3634 1313 
Q 3634 634 3220 271 
Q 2806 -91 2034 -91 
Q 1263 -91 848 271 
Q 434 634 434 1313 
Q 434 1759 690 2068 
Q 947 2378 1403 2484 
z
M 1172 3481 
Q 1172 3119 1398 2916 
Q 1625 2713 2034 2713 
Q 2441 2713 2670 2916 
Q 2900 3119 2900 3481 
Q 2900 3844 2670 4047 
Q 2441 4250 2034 4250 
Q 1625 4250 1398 4047 
Q 1172 3844 1172 3481 
z
" transform="scale(0.015625)"/>
       </defs>
       <use xlink:href="#DejaVuSans-31"/>
       <use xlink:href="#DejaVuSans-38" x="63.623047"/>
       <use xlink:href="#DejaVuSans-30" x="127.246094"/>
      </g>
     </g>
    </g>
    <g id="xtick_4">
     <g id="line2d_4">
      <g>
       <use xlink:href="#m2aaf959f9b" x="283.872187" y="87.0336" style="stroke: #000000; stroke-width: 0.8"/>
      </g>
     </g>
     <g id="text_4">
      <!-- 270 -->
      <g transform="translate(275.282812 100.872194) scale(0.09 -0.09)">
       <defs>
        <path id="DejaVuSans-32" d="M 1228 531 
L 3431 531 
L 3431 0 
L 469 0 
L 469 531 
Q 828 903 1448 1529 
Q 2069 2156 2228 2338 
Q 2531 2678 2651 2914 
Q 2772 3150 2772 3378 
Q 2772 3750 2511 3984 
Q 2250 4219 1831 4219 
Q 1534 4219 1204 4116 
Q 875 4013 500 3803 
L 500 4441 
Q 881 4594 1212 4672 
Q 1544 4750 1819 4750 
Q 2544 4750 2975 4387 
Q 3406 4025 3406 3419 
Q 3406 3131 3298 2873 
Q 3191 2616 2906 2266 
Q 2828 2175 2409 1742 
Q 1991 1309 1228 531 
z
" transform="scale(0.015625)"/>
        <path id="DejaVuSans-37" d="M 525 4666 
L 3525 4666 
L 3525 4397 
L 1831 0 
L 1172 0 
L 2766 4134 
L 525 4134 
L 525 4666 
z
" transform="scale(0.015625)"/>
       </defs>
       <use xlink:href="#DejaVuSans-32"/>
       <use xlink:href="#DejaVuSans-37" x="63.623047"/>
       <use xlink:href="#DejaVuSans-30" x="127.246094"/>
      </g>
     </g>
    </g>
    <g id="xtick_5">
     <g id="line2d_5">
      <g>
       <use xlink:href="#m2aaf959f9b" x="353.622187" y="87.0336" style="stroke: #000000; stroke-width: 0.8"/>
      </g>
     </g>
     <g id="text_5">
      <!-- 360 -->
      <g transform="translate(345.032812 100.872194) scale(0.09 -0.09)">
       <defs>
        <path id="DejaVuSans-33" d="M 2597 2516 
Q 3050 2419 3304 2112 
Q 3559 1806 3559 1356 
Q 3559 666 3084 287 
Q 2609 -91 1734 -91 
Q 1441 -91 1130 -33 
Q 819 25 488 141 
L 488 750 
Q 750 597 1062 519 
Q 1375 441 1716 441 
Q 2309 441 2620 675 
Q 2931 909 2931 1356 
Q 2931 1769 2642 2001 
Q 2353 2234 1838 2234 
L 1294 2234 
L 1294 2753 
L 1863 2753 
Q 2328 2753 2575 2939 
Q 2822 3125 2822 3475 
Q 2822 3834 2567 4026 
Q 2313 4219 1838 4219 
Q 1578 4219 1281 4162 
Q 984 4106 628 3988 
L 628 4550 
Q 988 4650 1302 4700 
Q 1616 4750 1894 4750 
Q 2613 4750 3031 4423 
Q 3450 4097 3450 3541 
Q 3450 3153 3228 2886 
Q 3006 2619 2597 2516 
z
" transform="scale(0.015625)"/>
        <path id="DejaVuSans-36" d="M 2113 2584 
Q 1688 2584 1439 2293 
Q 1191 2003 1191 1497 
Q 1191 994 1439 701 
Q 1688 409 2113 409 
Q 2538 409 2786 701 
Q 3034 994 3034 1497 
Q 3034 2003 2786 2293 
Q 2538 2584 2113 2584 
z
M 3366 4563 
L 3366 3988 
Q 3128 4100 2886 4159 
Q 2644 4219 2406 4219 
Q 1781 4219 1451 3797 
Q 1122 3375 1075 2522 
Q 1259 2794 1537 2939 
Q 1816 3084 2150 3084 
Q 2853 3084 3261 2657 
Q 3669 2231 3669 1497 
Q 3669 778 3244 343 
Q 2819 -91 2113 -91 
Q 1303 -91 875 529 
Q 447 1150 447 2328 
Q 447 3434 972 4092 
Q 1497 4750 2381 4750 
Q 2619 4750 2861 4703 
Q 3103 4656 3366 4563 
z
" transform="scale(0.015625)"/>
       </defs>
       <use xlink:href="#DejaVuSans-33"/>
       <use xlink:href="#DejaVuSans-36" x="63.623047"/>
       <use xlink:href="#DejaVuSans-30" x="127.246094"/>
      </g>
     </g>
    </g>
   </g>
   <g id="matplotlib.axis_2">
    <g id="ytick_1">
     <g id="line2d_6">
      <defs>
       <path id="mbff2cf6005" d="M 0 0 
L -3.5 0 
" style="stroke: #000000; stroke-width: 0.8"/>
      </defs>
      <g>
       <use xlink:href="#mbff2cf6005" x="74.622188" y="87.0336" style="stroke: #000000; stroke-width: 0.8"/>
      </g>
     </g>
     <g id="text_6">
      <!-- 0.00525 -->
      <g transform="translate(30.404375 90.452897) scale(0.09 -0.09)">
       <defs>
        <path id="DejaVuSans-2e" d="M 684 794 
L 1344 794 
L 1344 0 
L 684 0 
L 684 794 
z
" transform="scale(0.015625)"/>
        <path id="DejaVuSans-35" d="M 691 4666 
L 3169 4666 
L 3169 4134 
L 1269 4134 
L 1269 2991 
Q 1406 3038 1543 3061 
Q 1681 3084 1819 3084 
Q 2600 3084 3056 2656 
Q 3513 2228 3513 1497 
Q 3513 744 3044 326 
Q 2575 -91 1722 -91 
Q 1428 -91 1123 -41 
Q 819 9 494 109 
L 494 744 
Q 775 591 1075 516 
Q 1375 441 1709 441 
Q 2250 441 2565 725 
Q 2881 1009 2881 1497 
Q 2881 1984 2565 2268 
Q 2250 2553 1709 2553 
Q 1456 2553 1204 2497 
Q 953 2441 691 2322 
L 691 4666 
z
" transform="scale(0.015625)"/>
       </defs>
       <use xlink:href="#DejaVuSans-30"/>
       <use xlink:href="#DejaVuSans-2e" x="63.623047"/>
       <use xlink:href="#DejaVuSans-30" x="95.410156"/>
       <use xlink:href="#DejaVuSans-30" x="159.033203"/>
       <use xlink:href="#DejaVuSans-35" x="222.65625"/>
       <use xlink:href="#DejaVuSans-32" x="286.279297"/>
       <use xlink:href="#DejaVuSans-35" x="349.902344"/>
      </g>
     </g>
    </g>
    <g id="ytick_2">
     <g id="line2d_7">
      <g>
       <use xlink:href="#mbff2cf6005" x="74.622188" y="65.2608" style="stroke: #000000; stroke-width: 0.8"/>
      </g>
     </g>
     <g id="text_7">
      <!-- 0.00550 -->
      <g transform="translate(30.404375 68.680097) scale(0.09 -0.09)">
       <use xlink:href="#DejaVuSans-30"/>
       <use xlink:href="#DejaVuSans-2e" x="63.623047"/>
       <use xlink:href="#DejaVuSans-30" x="95.410156"/>
       <use xlink:href="#DejaVuSans-30" x="159.033203"/>
       <use xlink:href="#DejaVuSans-35" x="222.65625"/>
       <use xlink:href="#DejaVuSans-35" x="286.279297"/>
       <use xlink:href="#DejaVuSans-30" x="349.902344"/>
      </g>
     </g>
    </g>
    <g id="ytick_3">
     <g id="line2d_8">
      <g>
       <use xlink:href="#mbff2cf6005" x="74.622188" y="43.488" style="stroke: #000000; stroke-width: 0.8"/>
      </g>
     </g>
     <g id="text_8">
      <!-- 0.00575 -->
      <g transform="translate(30.404375 46.907297) scale(0.09 -0.09)">
       <use xlink:href="#DejaVuSans-30"/>
       <use xlink:href="#DejaVuSans-2e" x="63.623047"/>
       <use xlink:href="#DejaVuSans-30" x="95.410156"/>
       <use xlink:href="#DejaVuSans-30" x="159.033203"/>
       <use xlink:href="#DejaVuSans-35" x="222.65625"/>
       <use xlink:href="#DejaVuSans-37" x="286.279297"/>
       <use xlink:href="#DejaVuSans-35" x="349.902344"/>
      </g>
     </g>
    </g>
    <g id="text_9">
     <!-- Probability [ratio] -->
     <g transform="translate(24.740625 95.180525) rotate(-90) scale(0.08 -0.08)">
      <defs>
       <path id="DejaVuSans-50" d="M 1259 4147 
L 1259 2394 
L 2053 2394 
Q 2494 2394 2734 2622 
Q 2975 2850 2975 3272 
Q 2975 3691 2734 3919 
Q 2494 4147 2053 4147 
L 1259 4147 
z
M 628 4666 
L 2053 4666 
Q 2838 4666 3239 4311 
Q 3641 3956 3641 3272 
Q 3641 2581 3239 2228 
Q 2838 1875 2053 1875 
L 1259 1875 
L 1259 0 
L 628 0 
L 628 4666 
z
" transform="scale(0.015625)"/>
       <path id="DejaVuSans-72" d="M 2631 2963 
Q 2534 3019 2420 3045 
Q 2306 3072 2169 3072 
Q 1681 3072 1420 2755 
Q 1159 2438 1159 1844 
L 1159 0 
L 581 0 
L 581 3500 
L 1159 3500 
L 1159 2956 
Q 1341 3275 1631 3429 
Q 1922 3584 2338 3584 
Q 2397 3584 2469 3576 
Q 2541 3569 2628 3553 
L 2631 2963 
z
" transform="scale(0.015625)"/>
       <path id="DejaVuSans-6f" d="M 1959 3097 
Q 1497 3097 1228 2736 
Q 959 2375 959 1747 
Q 959 1119 1226 758 
Q 1494 397 1959 397 
Q 2419 397 2687 759 
Q 2956 1122 2956 1747 
Q 2956 2369 2687 2733 
Q 2419 3097 1959 3097 
z
M 1959 3584 
Q 2709 3584 3137 3096 
Q 3566 2609 3566 1747 
Q 3566 888 3137 398 
Q 2709 -91 1959 -91 
Q 1206 -91 779 398 
Q 353 888 353 1747 
Q 353 2609 779 3096 
Q 1206 3584 1959 3584 
z
" transform="scale(0.015625)"/>
       <path id="DejaVuSans-62" d="M 3116 1747 
Q 3116 2381 2855 2742 
Q 2594 3103 2138 3103 
Q 1681 3103 1420 2742 
Q 1159 2381 1159 1747 
Q 1159 1113 1420 752 
Q 1681 391 2138 391 
Q 2594 391 2855 752 
Q 3116 1113 3116 1747 
z
M 1159 2969 
Q 1341 3281 1617 3432 
Q 1894 3584 2278 3584 
Q 2916 3584 3314 3078 
Q 3713 2572 3713 1747 
Q 3713 922 3314 415 
Q 2916 -91 2278 -91 
Q 1894 -91 1617 61 
Q 1341 213 1159 525 
L 1159 0 
L 581 0 
L 581 4863 
L 1159 4863 
L 1159 2969 
z
" transform="scale(0.015625)"/>
       <path id="DejaVuSans-61" d="M 2194 1759 
Q 1497 1759 1228 1600 
Q 959 1441 959 1056 
Q 959 750 1161 570 
Q 1363 391 1709 391 
Q 2188 391 2477 730 
Q 2766 1069 2766 1631 
L 2766 1759 
L 2194 1759 
z
M 3341 1997 
L 3341 0 
L 2766 0 
L 2766 531 
Q 2569 213 2275 61 
Q 1981 -91 1556 -91 
Q 1019 -91 701 211 
Q 384 513 384 1019 
Q 384 1609 779 1909 
Q 1175 2209 1959 2209 
L 2766 2209 
L 2766 2266 
Q 2766 2663 2505 2880 
Q 2244 3097 1772 3097 
Q 1472 3097 1187 3025 
Q 903 2953 641 2809 
L 641 3341 
Q 956 3463 1253 3523 
Q 1550 3584 1831 3584 
Q 2591 3584 2966 3190 
Q 3341 2797 3341 1997 
z
" transform="scale(0.015625)"/>
       <path id="DejaVuSans-69" d="M 603 3500 
L 1178 3500 
L 1178 0 
L 603 0 
L 603 3500 
z
M 603 4863 
L 1178 4863 
L 1178 4134 
L 603 4134 
L 603 4863 
z
" transform="scale(0.015625)"/>
       <path id="DejaVuSans-6c" d="M 603 4863 
L 1178 4863 
L 1178 0 
L 603 0 
L 603 4863 
z
" transform="scale(0.015625)"/>
       <path id="DejaVuSans-74" d="M 1172 4494 
L 1172 3500 
L 2356 3500 
L 2356 3053 
L 1172 3053 
L 1172 1153 
Q 1172 725 1289 603 
Q 1406 481 1766 481 
L 2356 481 
L 2356 0 
L 1766 0 
Q 1100 0 847 248 
Q 594 497 594 1153 
L 594 3053 
L 172 3053 
L 172 3500 
L 594 3500 
L 594 4494 
L 1172 4494 
z
" transform="scale(0.015625)"/>
       <path id="DejaVuSans-79" d="M 2059 -325 
Q 1816 -950 1584 -1140 
Q 1353 -1331 966 -1331 
L 506 -1331 
L 506 -850 
L 844 -850 
Q 1081 -850 1212 -737 
Q 1344 -625 1503 -206 
L 1606 56 
L 191 3500 
L 800 3500 
L 1894 763 
L 2988 3500 
L 3597 3500 
L 2059 -325 
z
" transform="scale(0.015625)"/>
       <path id="DejaVuSans-20" transform="scale(0.015625)"/>
       <path id="DejaVuSans-5b" d="M 550 4863 
L 1875 4863 
L 1875 4416 
L 1125 4416 
L 1125 -397 
L 1875 -397 
L 1875 -844 
L 550 -844 
L 550 4863 
z
" transform="scale(0.015625)"/>
       <path id="DejaVuSans-5d" d="M 1947 4863 
L 1947 -844 
L 622 -844 
L 622 -397 
L 1369 -397 
L 1369 4416 
L 622 4416 
L 622 4863 
L 1947 4863 
z
" transform="scale(0.015625)"/>
      </defs>
      <use xlink:href="#DejaVuSans-50"/>
      <use xlink:href="#DejaVuSans-72" x="58.552734"/>
      <use xlink:href="#DejaVuSans-6f" x="97.416016"/>
      <use xlink:href="#DejaVuSans-62" x="158.597656"/>
      <use xlink:href="#DejaVuSans-61" x="222.074219"/>
      <use xlink:href="#DejaVuSans-62" x="283.353516"/>
      <use xlink:href="#DejaVuSans-69" x="346.830078"/>
      <use xlink:href="#DejaVuSans-6c" x="374.613281"/>
      <use xlink:href="#DejaVuSans-69" x="402.396484"/>
      <use xlink:href="#DejaVuSans-74" x="430.179688"/>
      <use xlink:href="#DejaVuSans-79" x="469.388672"/>
      <use xlink:href="#DejaVuSans-20" x="528.568359"/>
      <use xlink:href="#DejaVuSans-5b" x="560.355469"/>
      <use xlink:href="#DejaVuSans-72" x="599.369141"/>
      <use xlink:href="#DejaVuSans-61" x="640.482422"/>
      <use xlink:href="#DejaVuSans-74" x="701.761719"/>
      <use xlink:href="#DejaVuSans-69" x="740.970703"/>
      <use xlink:href="#DejaVuSans-6f" x="768.753906"/>
      <use xlink:href="#DejaVuSans-5d" x="829.935547"/>
     </g>
    </g>
   </g>
   <g id="LineCollection_1">
    <path d="M 74.622188 60.4224 
L 352.072187 60.4224 
" clip-path="url(#p21fc50118f)" style="fill: none; stroke: #000000"/>
   </g>
   <g id="patch_3">
    <path d="M 74.622188 87.0336 
L 74.622188 33.8112 
" style="fill: none; stroke: #000000; stroke-width: 0.8; stroke-linejoin: miter; stroke-linecap: square"/>
   </g>
   <g id="patch_4">
    <path d="M 74.622188 87.0336 
L 353.622187 87.0336 
" style="fill: none; stroke: #000000; stroke-width: 0.8; stroke-linejoin: miter; stroke-linecap: square"/>
   </g>
   <g id="text_10">
    <!-- A -->
    <g transform="translate(7.9875 17.837813) scale(0.14 -0.14)">
     <defs>
      <path id="DejaVuSans-Bold-41" d="M 3419 850 
L 1538 850 
L 1241 0 
L 31 0 
L 1759 4666 
L 3194 4666 
L 4922 0 
L 3713 0 
L 3419 850 
z
M 1838 1716 
L 3116 1716 
L 2478 3572 
L 1838 1716 
z
" transform="scale(0.015625)"/>
     </defs>
     <use xlink:href="#DejaVuSans-Bold-41"/>
    </g>
   </g>
   <g id="text_11">
    <!-- Prior distribution over motion directions -->
    <g transform="translate(134.515938 27.8112) scale(0.08 -0.08)">
     <defs>
      <path id="DejaVuSans-64" d="M 2906 2969 
L 2906 4863 
L 3481 4863 
L 3481 0 
L 2906 0 
L 2906 525 
Q 2725 213 2448 61 
Q 2172 -91 1784 -91 
Q 1150 -91 751 415 
Q 353 922 353 1747 
Q 353 2572 751 3078 
Q 1150 3584 1784 3584 
Q 2172 3584 2448 3432 
Q 2725 3281 2906 2969 
z
M 947 1747 
Q 947 1113 1208 752 
Q 1469 391 1925 391 
Q 2381 391 2643 752 
Q 2906 1113 2906 1747 
Q 2906 2381 2643 2742 
Q 2381 3103 1925 3103 
Q 1469 3103 1208 2742 
Q 947 2381 947 1747 
z
" transform="scale(0.015625)"/>
      <path id="DejaVuSans-73" d="M 2834 3397 
L 2834 2853 
Q 2591 2978 2328 3040 
Q 2066 3103 1784 3103 
Q 1356 3103 1142 2972 
Q 928 2841 928 2578 
Q 928 2378 1081 2264 
Q 1234 2150 1697 2047 
L 1894 2003 
Q 2506 1872 2764 1633 
Q 3022 1394 3022 966 
Q 3022 478 2636 193 
Q 2250 -91 1575 -91 
Q 1294 -91 989 -36 
Q 684 19 347 128 
L 347 722 
Q 666 556 975 473 
Q 1284 391 1588 391 
Q 1994 391 2212 530 
Q 2431 669 2431 922 
Q 2431 1156 2273 1281 
Q 2116 1406 1581 1522 
L 1381 1569 
Q 847 1681 609 1914 
Q 372 2147 372 2553 
Q 372 3047 722 3315 
Q 1072 3584 1716 3584 
Q 2034 3584 2315 3537 
Q 2597 3491 2834 3397 
z
" transform="scale(0.015625)"/>
      <path id="DejaVuSans-75" d="M 544 1381 
L 544 3500 
L 1119 3500 
L 1119 1403 
Q 1119 906 1312 657 
Q 1506 409 1894 409 
Q 2359 409 2629 706 
Q 2900 1003 2900 1516 
L 2900 3500 
L 3475 3500 
L 3475 0 
L 2900 0 
L 2900 538 
Q 2691 219 2414 64 
Q 2138 -91 1772 -91 
Q 1169 -91 856 284 
Q 544 659 544 1381 
z
M 1991 3584 
L 1991 3584 
z
" transform="scale(0.015625)"/>
      <path id="DejaVuSans-6e" d="M 3513 2113 
L 3513 0 
L 2938 0 
L 2938 2094 
Q 2938 2591 2744 2837 
Q 2550 3084 2163 3084 
Q 1697 3084 1428 2787 
Q 1159 2491 1159 1978 
L 1159 0 
L 581 0 
L 581 3500 
L 1159 3500 
L 1159 2956 
Q 1366 3272 1645 3428 
Q 1925 3584 2291 3584 
Q 2894 3584 3203 3211 
Q 3513 2838 3513 2113 
z
" transform="scale(0.015625)"/>
      <path id="DejaVuSans-76" d="M 191 3500 
L 800 3500 
L 1894 563 
L 2988 3500 
L 3597 3500 
L 2284 0 
L 1503 0 
L 191 3500 
z
" transform="scale(0.015625)"/>
      <path id="DejaVuSans-65" d="M 3597 1894 
L 3597 1613 
L 953 1613 
Q 991 1019 1311 708 
Q 1631 397 2203 397 
Q 2534 397 2845 478 
Q 3156 559 3463 722 
L 3463 178 
Q 3153 47 2828 -22 
Q 2503 -91 2169 -91 
Q 1331 -91 842 396 
Q 353 884 353 1716 
Q 353 2575 817 3079 
Q 1281 3584 2069 3584 
Q 2775 3584 3186 3129 
Q 3597 2675 3597 1894 
z
M 3022 2063 
Q 3016 2534 2758 2815 
Q 2500 3097 2075 3097 
Q 1594 3097 1305 2825 
Q 1016 2553 972 2059 
L 3022 2063 
z
" transform="scale(0.015625)"/>
      <path id="DejaVuSans-6d" d="M 3328 2828 
Q 3544 3216 3844 3400 
Q 4144 3584 4550 3584 
Q 5097 3584 5394 3201 
Q 5691 2819 5691 2113 
L 5691 0 
L 5113 0 
L 5113 2094 
Q 5113 2597 4934 2840 
Q 4756 3084 4391 3084 
Q 3944 3084 3684 2787 
Q 3425 2491 3425 1978 
L 3425 0 
L 2847 0 
L 2847 2094 
Q 2847 2600 2669 2842 
Q 2491 3084 2119 3084 
Q 1678 3084 1418 2786 
Q 1159 2488 1159 1978 
L 1159 0 
L 581 0 
L 581 3500 
L 1159 3500 
L 1159 2956 
Q 1356 3278 1631 3431 
Q 1906 3584 2284 3584 
Q 2666 3584 2933 3390 
Q 3200 3197 3328 2828 
z
" transform="scale(0.015625)"/>
      <path id="DejaVuSans-63" d="M 3122 3366 
L 3122 2828 
Q 2878 2963 2633 3030 
Q 2388 3097 2138 3097 
Q 1578 3097 1268 2742 
Q 959 2388 959 1747 
Q 959 1106 1268 751 
Q 1578 397 2138 397 
Q 2388 397 2633 464 
Q 2878 531 3122 666 
L 3122 134 
Q 2881 22 2623 -34 
Q 2366 -91 2075 -91 
Q 1284 -91 818 406 
Q 353 903 353 1747 
Q 353 2603 823 3093 
Q 1294 3584 2113 3584 
Q 2378 3584 2631 3529 
Q 2884 3475 3122 3366 
z
" transform="scale(0.015625)"/>
     </defs>
     <use xlink:href="#DejaVuSans-50"/>
     <use xlink:href="#DejaVuSans-72" x="58.552734"/>
     <use xlink:href="#DejaVuSans-69" x="99.666016"/>
     <use xlink:href="#DejaVuSans-6f" x="127.449219"/>
     <use xlink:href="#DejaVuSans-72" x="188.630859"/>
     <use xlink:href="#DejaVuSans-20" x="229.744141"/>
     <use xlink:href="#DejaVuSans-64" x="261.53125"/>
     <use xlink:href="#DejaVuSans-69" x="325.007812"/>
     <use xlink:href="#DejaVuSans-73" x="352.791016"/>
     <use xlink:href="#DejaVuSans-74" x="404.890625"/>
     <use xlink:href="#DejaVuSans-72" x="444.099609"/>
     <use xlink:href="#DejaVuSans-69" x="485.212891"/>
     <use xlink:href="#DejaVuSans-62" x="512.996094"/>
     <use xlink:href="#DejaVuSans-75" x="576.472656"/>
     <use xlink:href="#DejaVuSans-74" x="639.851562"/>
     <use xlink:href="#DejaVuSans-69" x="679.060547"/>
     <use xlink:href="#DejaVuSans-6f" x="706.84375"/>
     <use xlink:href="#DejaVuSans-6e" x="768.025391"/>
     <use xlink:href="#DejaVuSans-20" x="831.404297"/>
     <use xlink:href="#DejaVuSans-6f" x="863.191406"/>
     <use xlink:href="#DejaVuSans-76" x="924.373047"/>
     <use xlink:href="#DejaVuSans-65" x="983.552734"/>
     <use xlink:href="#DejaVuSans-72" x="1045.076172"/>
     <use xlink:href="#DejaVuSans-20" x="1086.189453"/>
     <use xlink:href="#DejaVuSans-6d" x="1117.976562"/>
     <use xlink:href="#DejaVuSans-6f" x="1215.388672"/>
     <use xlink:href="#DejaVuSans-74" x="1276.570312"/>
     <use xlink:href="#DejaVuSans-69" x="1315.779297"/>
     <use xlink:href="#DejaVuSans-6f" x="1343.5625"/>
     <use xlink:href="#DejaVuSans-6e" x="1404.744141"/>
     <use xlink:href="#DejaVuSans-20" x="1468.123047"/>
     <use xlink:href="#DejaVuSans-64" x="1499.910156"/>
     <use xlink:href="#DejaVuSans-69" x="1563.386719"/>
     <use xlink:href="#DejaVuSans-72" x="1591.169922"/>
     <use xlink:href="#DejaVuSans-65" x="1630.033203"/>
     <use xlink:href="#DejaVuSans-63" x="1691.556641"/>
     <use xlink:href="#DejaVuSans-74" x="1746.537109"/>
     <use xlink:href="#DejaVuSans-69" x="1785.746094"/>
     <use xlink:href="#DejaVuSans-6f" x="1813.529297"/>
     <use xlink:href="#DejaVuSans-6e" x="1874.710938"/>
     <use xlink:href="#DejaVuSans-73" x="1938.089844"/>
    </g>
   </g>
  </g>
  <g id="axes_2">
   <g id="patch_5">
    <path d="M 74.622188 180.1728 
L 353.622187 180.1728 
L 353.622187 126.9504 
L 74.622188 126.9504 
z
" style="fill: #ffffff"/>
   </g>
   <g id="matplotlib.axis_3">
    <g id="xtick_6">
     <g id="line2d_9">
      <g>
       <use xlink:href="#m2aaf959f9b" x="74.622188" y="180.1728" style="stroke: #000000; stroke-width: 0.8"/>
      </g>
     </g>
     <g id="text_12">
      <!-- 0 -->
      <g transform="translate(71.759063 194.011394) scale(0.09 -0.09)">
       <use xlink:href="#DejaVuSans-30"/>
      </g>
     </g>
    </g>
    <g id="xtick_7">
     <g id="line2d_10">
      <g>
       <use xlink:href="#m2aaf959f9b" x="144.372187" y="180.1728" style="stroke: #000000; stroke-width: 0.8"/>
      </g>
     </g>
     <g id="text_13">
      <!-- 90 -->
      <g transform="translate(138.645938 194.011394) scale(0.09 -0.09)">
       <use xlink:href="#DejaVuSans-39"/>
       <use xlink:href="#DejaVuSans-30" x="63.623047"/>
      </g>
     </g>
    </g>
    <g id="xtick_8">
     <g id="line2d_11">
      <g>
       <use xlink:href="#m2aaf959f9b" x="214.122187" y="180.1728" style="stroke: #000000; stroke-width: 0.8"/>
      </g>
     </g>
     <g id="text_14">
      <!-- 180 -->
      <g transform="translate(205.532813 194.011394) scale(0.09 -0.09)">
       <use xlink:href="#DejaVuSans-31"/>
       <use xlink:href="#DejaVuSans-38" x="63.623047"/>
       <use xlink:href="#DejaVuSans-30" x="127.246094"/>
      </g>
     </g>
    </g>
    <g id="xtick_9">
     <g id="line2d_12">
      <g>
       <use xlink:href="#m2aaf959f9b" x="283.872187" y="180.1728" style="stroke: #000000; stroke-width: 0.8"/>
      </g>
     </g>
     <g id="text_15">
      <!-- 270 -->
      <g transform="translate(275.282812 194.011394) scale(0.09 -0.09)">
       <use xlink:href="#DejaVuSans-32"/>
       <use xlink:href="#DejaVuSans-37" x="63.623047"/>
       <use xlink:href="#DejaVuSans-30" x="127.246094"/>
      </g>
     </g>
    </g>
    <g id="xtick_10">
     <g id="line2d_13">
      <g>
       <use xlink:href="#m2aaf959f9b" x="353.622187" y="180.1728" style="stroke: #000000; stroke-width: 0.8"/>
      </g>
     </g>
     <g id="text_16">
      <!-- 360 -->
      <g transform="translate(345.032812 194.011394) scale(0.09 -0.09)">
       <use xlink:href="#DejaVuSans-33"/>
       <use xlink:href="#DejaVuSans-36" x="63.623047"/>
       <use xlink:href="#DejaVuSans-30" x="127.246094"/>
      </g>
     </g>
    </g>
   </g>
   <g id="matplotlib.axis_4">
    <g id="ytick_4">
     <g id="line2d_14">
      <g>
       <use xlink:href="#mbff2cf6005" x="74.622188" y="180.1728" style="stroke: #000000; stroke-width: 0.8"/>
      </g>
     </g>
     <g id="text_17">
      <!-- 0 -->
      <g transform="translate(61.895938 183.592097) scale(0.09 -0.09)">
       <use xlink:href="#DejaVuSans-30"/>
      </g>
     </g>
    </g>
    <g id="ytick_5">
     <g id="line2d_15">
      <g>
       <use xlink:href="#mbff2cf6005" x="74.622188" y="162.432" style="stroke: #000000; stroke-width: 0.8"/>
      </g>
     </g>
     <g id="text_18">
      <!-- 25 -->
      <g transform="translate(56.169688 165.851297) scale(0.09 -0.09)">
       <use xlink:href="#DejaVuSans-32"/>
       <use xlink:href="#DejaVuSans-35" x="63.623047"/>
      </g>
     </g>
    </g>
    <g id="ytick_6">
     <g id="line2d_16">
      <g>
       <use xlink:href="#mbff2cf6005" x="74.622188" y="144.6912" style="stroke: #000000; stroke-width: 0.8"/>
      </g>
     </g>
     <g id="text_19">
      <!-- 50 -->
      <g transform="translate(56.169688 148.110497) scale(0.09 -0.09)">
       <use xlink:href="#DejaVuSans-35"/>
       <use xlink:href="#DejaVuSans-30" x="63.623047"/>
      </g>
     </g>
    </g>
    <g id="ytick_7">
     <g id="line2d_17">
      <g>
       <use xlink:href="#mbff2cf6005" x="74.622188" y="126.9504" style="stroke: #000000; stroke-width: 0.8"/>
      </g>
     </g>
     <g id="text_20">
      <!-- 75 -->
      <g transform="translate(56.169688 130.369697) scale(0.09 -0.09)">
       <use xlink:href="#DejaVuSans-37"/>
       <use xlink:href="#DejaVuSans-35" x="63.623047"/>
      </g>
     </g>
    </g>
    <g id="text_21">
     <!-- Tuning -->
     <g transform="translate(25.007438 168.292069) rotate(-90) scale(0.09 -0.09)">
      <defs>
       <path id="DejaVuSans-54" d="M -19 4666 
L 3928 4666 
L 3928 4134 
L 2272 4134 
L 2272 0 
L 1638 0 
L 1638 4134 
L -19 4134 
L -19 4666 
z
" transform="scale(0.015625)"/>
       <path id="DejaVuSans-67" d="M 2906 1791 
Q 2906 2416 2648 2759 
Q 2391 3103 1925 3103 
Q 1463 3103 1205 2759 
Q 947 2416 947 1791 
Q 947 1169 1205 825 
Q 1463 481 1925 481 
Q 2391 481 2648 825 
Q 2906 1169 2906 1791 
z
M 3481 434 
Q 3481 -459 3084 -895 
Q 2688 -1331 1869 -1331 
Q 1566 -1331 1297 -1286 
Q 1028 -1241 775 -1147 
L 775 -588 
Q 1028 -725 1275 -790 
Q 1522 -856 1778 -856 
Q 2344 -856 2625 -561 
Q 2906 -266 2906 331 
L 2906 616 
Q 2728 306 2450 153 
Q 2172 0 1784 0 
Q 1141 0 747 490 
Q 353 981 353 1791 
Q 353 2603 747 3093 
Q 1141 3584 1784 3584 
Q 2172 3584 2450 3431 
Q 2728 3278 2906 2969 
L 2906 3500 
L 3481 3500 
L 3481 434 
z
" transform="scale(0.015625)"/>
      </defs>
      <use xlink:href="#DejaVuSans-54"/>
      <use xlink:href="#DejaVuSans-75" x="45.958984"/>
      <use xlink:href="#DejaVuSans-6e" x="109.337891"/>
      <use xlink:href="#DejaVuSans-69" x="172.716797"/>
      <use xlink:href="#DejaVuSans-6e" x="200.5"/>
      <use xlink:href="#DejaVuSans-67" x="263.878906"/>
     </g>
     <!-- curve [$Hz$] -->
     <g transform="translate(35.085469 176.8716) rotate(-90) scale(0.09 -0.09)">
      <defs>
       <path id="DejaVuSans-Oblique-48" d="M 1081 4666 
L 1716 4666 
L 1344 2753 
L 3634 2753 
L 4006 4666 
L 4641 4666 
L 3731 0 
L 3097 0 
L 3531 2222 
L 1241 2222 
L 806 0 
L 172 0 
L 1081 4666 
z
" transform="scale(0.015625)"/>
       <path id="DejaVuSans-Oblique-7a" d="M 744 3500 
L 3475 3500 
L 3372 2975 
L 738 459 
L 2913 459 
L 2822 0 
L -19 0 
L 84 525 
L 2719 3041 
L 653 3041 
L 744 3500 
z
" transform="scale(0.015625)"/>
      </defs>
      <use xlink:href="#DejaVuSans-63" transform="translate(0 0.015625)"/>
      <use xlink:href="#DejaVuSans-75" transform="translate(54.980469 0.015625)"/>
      <use xlink:href="#DejaVuSans-72" transform="translate(118.359375 0.015625)"/>
      <use xlink:href="#DejaVuSans-76" transform="translate(159.472656 0.015625)"/>
      <use xlink:href="#DejaVuSans-65" transform="translate(218.652344 0.015625)"/>
      <use xlink:href="#DejaVuSans-20" transform="translate(280.175781 0.015625)"/>
      <use xlink:href="#DejaVuSans-5b" transform="translate(311.962891 0.015625)"/>
      <use xlink:href="#DejaVuSans-Oblique-48" transform="translate(350.976562 0.015625)"/>
      <use xlink:href="#DejaVuSans-Oblique-7a" transform="translate(426.171875 0.015625)"/>
      <use xlink:href="#DejaVuSans-5d" transform="translate(478.662109 0.015625)"/>
     </g>
    </g>
   </g>
   <g id="line2d_18">
    <path d="M 74.622188 166.484948 
L 77.722188 166.599442 
L 80.822188 166.936668 
L 83.922188 167.478468 
L 87.022188 168.196516 
L 91.672188 169.524305 
L 99.422188 172.06735 
L 107.172188 174.527625 
L 111.822188 175.799229 
L 116.472188 176.868983 
L 121.122188 177.73189 
L 125.772188 178.403166 
L 131.972188 179.046761 
L 138.172188 179.469421 
L 145.922188 179.786874 
L 156.772188 180.004539 
L 175.372187 180.125359 
L 228.072188 180.156413 
L 268.372187 180.038965 
L 282.322188 179.786874 
L 291.622187 179.380631 
L 297.822188 178.909397 
L 304.022188 178.199204 
L 308.672188 177.466613 
L 313.322188 176.535639 
L 317.972188 175.396785 
L 322.622187 174.063786 
L 330.372187 171.548987 
L 338.122187 169.054947 
L 342.772188 167.817561 
L 345.872187 167.183556 
L 348.972188 166.741085 
L 352.072187 166.513671 
L 352.072187 166.513671 
" clip-path="url(#p3b198e0460)" style="fill: none; stroke: #440154; stroke-linecap: square"/>
   </g>
   <g id="line2d_19">
    <path d="M 74.622188 173.088036 
L 88.572188 168.610636 
L 93.222188 167.478468 
L 96.322188 166.936668 
L 99.422188 166.599442 
L 102.522188 166.484948 
L 105.622188 166.599442 
L 108.722188 166.936668 
L 111.822188 167.478468 
L 114.922188 168.196516 
L 119.572188 169.524305 
L 127.322188 172.06735 
L 135.072188 174.527625 
L 139.722188 175.799229 
L 144.372187 176.868983 
L 149.022188 177.73189 
L 153.672188 178.403166 
L 159.872187 179.046761 
L 166.072188 179.469421 
L 173.822188 179.786874 
L 184.672188 180.004539 
L 203.272188 180.125359 
L 255.972188 180.156413 
L 296.272188 180.038965 
L 310.222188 179.786874 
L 319.522188 179.380631 
L 325.722188 178.909397 
L 331.922188 178.199204 
L 336.572187 177.466613 
L 341.222188 176.535639 
L 345.872187 175.396785 
L 350.522188 174.063786 
L 352.072187 173.583077 
L 352.072187 173.583077 
" clip-path="url(#p3b198e0460)" style="fill: none; stroke: #481467; stroke-linecap: square"/>
   </g>
   <g id="line2d_20">
    <path d="M 74.622188 178.909397 
L 80.822188 178.199204 
L 85.472188 177.466613 
L 90.122188 176.535639 
L 94.772188 175.396785 
L 99.422188 174.063786 
L 107.172188 171.548987 
L 114.922188 169.054947 
L 119.572188 167.817561 
L 122.672188 167.183556 
L 125.772188 166.741085 
L 128.872187 166.513671 
L 131.972188 166.513671 
L 135.072188 166.741085 
L 138.172188 167.183556 
L 141.272188 167.817561 
L 145.922188 169.054947 
L 152.122187 171.030795 
L 161.422188 174.063786 
L 166.072188 175.396785 
L 170.722188 176.535639 
L 175.372187 177.466613 
L 180.022188 178.199204 
L 186.222188 178.909397 
L 192.422188 179.380631 
L 200.172188 179.737521 
L 211.022188 179.983795 
L 228.072188 180.115452 
L 273.022188 180.158841 
L 322.622187 180.053189 
L 336.572187 179.830582 
L 345.872187 179.469421 
L 352.072187 179.046761 
L 352.072187 179.046761 
" clip-path="url(#p3b198e0460)" style="fill: none; stroke: #482576; stroke-linecap: square"/>
   </g>
   <g id="line2d_21">
    <path d="M 74.622188 180.022833 
L 87.022188 179.786874 
L 96.322188 179.380631 
L 102.522188 178.909397 
L 108.722188 178.199204 
L 113.372188 177.466613 
L 118.022188 176.535639 
L 122.672188 175.396785 
L 127.322188 174.063786 
L 135.072188 171.548987 
L 142.822188 169.054947 
L 147.472188 167.817561 
L 150.572188 167.183556 
L 153.672188 166.741085 
L 156.772188 166.513671 
L 159.872187 166.513671 
L 162.972188 166.741085 
L 166.072188 167.183556 
L 169.172188 167.817561 
L 173.822188 169.054947 
L 180.022188 171.030795 
L 189.322188 174.063786 
L 193.972188 175.396785 
L 198.622187 176.535639 
L 203.272188 177.466613 
L 207.922188 178.199204 
L 214.122187 178.909397 
L 220.322188 179.380631 
L 228.072188 179.737521 
L 238.922188 179.983795 
L 255.972188 180.115452 
L 300.922188 180.158841 
L 350.522188 180.053189 
L 352.072187 180.038965 
L 352.072187 180.038965 
" clip-path="url(#p3b198e0460)" style="fill: none; stroke: #453581; stroke-linecap: square"/>
   </g>
   <g id="line2d_22">
    <path d="M 74.622188 180.146057 
L 104.072188 180.004539 
L 116.472188 179.737521 
L 124.222188 179.380631 
L 130.422188 178.909397 
L 136.622187 178.199204 
L 141.272188 177.466613 
L 145.922188 176.535639 
L 150.572188 175.396785 
L 155.222188 174.063786 
L 162.972188 171.548987 
L 170.722188 169.054947 
L 175.372187 167.817561 
L 178.472188 167.183556 
L 181.572188 166.741085 
L 184.672188 166.513671 
L 187.772188 166.513671 
L 190.872187 166.741085 
L 193.972188 167.183556 
L 197.072188 167.817561 
L 201.722188 169.054947 
L 207.922188 171.030795 
L 217.222188 174.063786 
L 221.872187 175.396785 
L 226.522188 176.535639 
L 231.172188 177.466613 
L 235.822188 178.199204 
L 242.022188 178.909397 
L 248.222188 179.380631 
L 255.972188 179.737521 
L 266.822188 179.983795 
L 283.872187 180.115452 
L 328.822188 180.158841 
L 352.072187 180.147841 
L 352.072187 180.147841 
" clip-path="url(#p3b198e0460)" style="fill: none; stroke: #404588; stroke-linecap: square"/>
   </g>
   <g id="line2d_23">
    <path d="M 74.622188 180.158958 
L 127.322188 180.053189 
L 141.272188 179.830582 
L 150.572188 179.469421 
L 156.772188 179.046761 
L 162.972188 178.403166 
L 167.622187 177.73189 
L 172.272188 176.868983 
L 176.922188 175.799229 
L 181.572188 174.527625 
L 187.772188 172.58165 
L 198.622187 169.054947 
L 203.272188 167.817561 
L 206.372187 167.183556 
L 209.472188 166.741085 
L 212.572188 166.513671 
L 215.672188 166.513671 
L 218.772188 166.741085 
L 221.872187 167.183556 
L 224.972188 167.817561 
L 229.622187 169.054947 
L 235.822188 171.030795 
L 245.122187 174.063786 
L 249.772188 175.396785 
L 254.422188 176.535639 
L 259.072188 177.466613 
L 263.722188 178.199204 
L 269.922188 178.909397 
L 276.122187 179.380631 
L 283.872187 179.737521 
L 294.722188 179.983795 
L 311.772188 180.115452 
L 352.072187 180.158929 
L 352.072187 180.158929 
" clip-path="url(#p3b198e0460)" style="fill: none; stroke: #3a538b; stroke-linecap: square"/>
   </g>
   <g id="line2d_24">
    <path d="M 74.622188 180.146057 
L 144.372187 180.115452 
L 164.522188 179.933624 
L 175.372187 179.619153 
L 183.122187 179.170351 
L 189.322188 178.588758 
L 193.972188 177.975783 
L 198.622187 177.179177 
L 203.272188 176.179005 
L 207.922188 174.972507 
L 214.122187 173.088036 
L 228.072188 168.610636 
L 232.722188 167.478468 
L 235.822188 166.936668 
L 238.922188 166.599442 
L 242.022188 166.484948 
L 245.122187 166.599442 
L 248.222188 166.936668 
L 251.322188 167.478468 
L 254.422188 168.196516 
L 259.072188 169.524305 
L 266.822188 172.06735 
L 274.572188 174.527625 
L 279.222188 175.799229 
L 283.872187 176.868983 
L 288.522188 177.73189 
L 293.172188 178.403166 
L 299.372187 179.046761 
L 305.572188 179.469421 
L 313.322188 179.786874 
L 324.172188 180.004539 
L 342.772188 180.125359 
L 352.072187 180.144048 
L 352.072187 180.144048 
" clip-path="url(#p3b198e0460)" style="fill: none; stroke: #34618d; stroke-linecap: square"/>
   </g>
   <g id="line2d_25">
    <path d="M 74.622188 180.022833 
L 94.772188 180.133129 
L 155.222188 180.149425 
L 186.222188 180.022833 
L 198.622187 179.786874 
L 207.922188 179.380631 
L 214.122187 178.909397 
L 220.322188 178.199204 
L 224.972188 177.466613 
L 229.622187 176.535639 
L 234.272188 175.396785 
L 238.922188 174.063786 
L 246.672188 171.548987 
L 254.422188 169.054947 
L 259.072188 167.817561 
L 262.172188 167.183556 
L 265.272188 166.741085 
L 268.372187 166.513671 
L 271.472188 166.513671 
L 274.572188 166.741085 
L 277.672188 167.183556 
L 280.772188 167.817561 
L 285.422188 169.054947 
L 291.622187 171.030795 
L 300.922188 174.063786 
L 305.572188 175.396785 
L 310.222188 176.535639 
L 314.872187 177.466613 
L 319.522188 178.199204 
L 325.722188 178.909397 
L 331.922188 179.380631 
L 339.672188 179.737521 
L 350.522188 179.983795 
L 352.072187 180.004539 
L 352.072187 180.004539 
" clip-path="url(#p3b198e0460)" style="fill: none; stroke: #2e6e8e; stroke-linecap: square"/>
   </g>
   <g id="line2d_26">
    <path d="M 74.622188 178.909397 
L 80.822188 179.380631 
L 88.572188 179.737521 
L 99.422188 179.983795 
L 116.472188 180.115452 
L 161.422188 180.158841 
L 211.022188 180.053189 
L 224.972188 179.830582 
L 234.272188 179.469421 
L 240.472188 179.046761 
L 246.672188 178.403166 
L 251.322188 177.73189 
L 255.972188 176.868983 
L 260.622187 175.799229 
L 265.272188 174.527625 
L 271.472188 172.58165 
L 282.322188 169.054947 
L 286.972188 167.817561 
L 290.072188 167.183556 
L 293.172188 166.741085 
L 296.272188 166.513671 
L 299.372187 166.513671 
L 302.472188 166.741085 
L 305.572188 167.183556 
L 308.672188 167.817561 
L 313.322188 169.054947 
L 319.522188 171.030795 
L 328.822188 174.063786 
L 333.472188 175.396785 
L 338.122187 176.535639 
L 342.772188 177.466613 
L 347.422188 178.199204 
L 352.072187 178.757116 
L 352.072187 178.757116 
" clip-path="url(#p3b198e0460)" style="fill: none; stroke: #297b8e; stroke-linecap: square"/>
   </g>
   <g id="line2d_27">
    <path d="M 74.622188 173.088036 
L 80.822188 174.972507 
L 85.472188 176.179005 
L 90.122188 177.179177 
L 94.772188 177.975783 
L 99.422188 178.588758 
L 105.622188 179.170351 
L 113.372188 179.619153 
L 122.672188 179.903431 
L 136.622187 180.076799 
L 166.072188 180.153177 
L 234.272188 180.086561 
L 251.322188 179.86925 
L 260.622187 179.548625 
L 268.372187 179.046761 
L 274.572188 178.403166 
L 279.222188 177.73189 
L 283.872187 176.868983 
L 288.522188 175.799229 
L 293.172188 174.527625 
L 299.372187 172.58165 
L 310.222188 169.054947 
L 314.872187 167.817561 
L 317.972188 167.183556 
L 321.072188 166.741085 
L 324.172188 166.513671 
L 327.272188 166.513671 
L 330.372187 166.741085 
L 333.472188 167.183556 
L 336.572187 167.817561 
L 341.222188 169.054947 
L 347.422188 171.030795 
L 352.072187 172.58165 
L 352.072187 172.58165 
" clip-path="url(#p3b198e0460)" style="fill: none; stroke: #24878e; stroke-linecap: square"/>
   </g>
   <g id="patch_6">
    <path d="M 74.622188 180.1728 
L 74.622188 126.9504 
" style="fill: none; stroke: #000000; stroke-width: 0.8; stroke-linejoin: miter; stroke-linecap: square"/>
   </g>
   <g id="patch_7">
    <path d="M 74.622188 180.1728 
L 353.622187 180.1728 
" style="fill: none; stroke: #000000; stroke-width: 0.8; stroke-linejoin: miter; stroke-linecap: square"/>
   </g>
   <g id="text_22">
    <!-- B -->
    <g transform="translate(8.151563 110.977013) scale(0.14 -0.14)">
     <defs>
      <path id="DejaVuSans-Bold-42" d="M 2456 2859 
Q 2741 2859 2887 2984 
Q 3034 3109 3034 3353 
Q 3034 3594 2887 3720 
Q 2741 3847 2456 3847 
L 1791 3847 
L 1791 2859 
L 2456 2859 
z
M 2497 819 
Q 2859 819 3042 972 
Q 3225 1125 3225 1434 
Q 3225 1738 3044 1889 
Q 2863 2041 2497 2041 
L 1791 2041 
L 1791 819 
L 2497 819 
z
M 3616 2497 
Q 4003 2384 4215 2081 
Q 4428 1778 4428 1338 
Q 4428 663 3972 331 
Q 3516 0 2584 0 
L 588 0 
L 588 4666 
L 2394 4666 
Q 3366 4666 3802 4372 
Q 4238 4078 4238 3431 
Q 4238 3091 4078 2852 
Q 3919 2613 3616 2497 
z
" transform="scale(0.015625)"/>
     </defs>
     <use xlink:href="#DejaVuSans-Bold-42"/>
    </g>
   </g>
  </g>
  <g id="axes_3">
   <g id="patch_8">
    <path d="M 74.622188 273.312 
L 353.622187 273.312 
L 353.622187 220.0896 
L 74.622188 220.0896 
z
" style="fill: #ffffff"/>
   </g>
   <g id="matplotlib.axis_5">
    <g id="xtick_11">
     <g id="line2d_28">
      <g>
       <use xlink:href="#m2aaf959f9b" x="74.622188" y="273.312" style="stroke: #000000; stroke-width: 0.8"/>
      </g>
     </g>
     <g id="text_23">
      <!-- 0 -->
      <g transform="translate(71.759063 287.150594) scale(0.09 -0.09)">
       <use xlink:href="#DejaVuSans-30"/>
      </g>
     </g>
    </g>
    <g id="xtick_12">
     <g id="line2d_29">
      <g>
       <use xlink:href="#m2aaf959f9b" x="144.372187" y="273.312" style="stroke: #000000; stroke-width: 0.8"/>
      </g>
     </g>
     <g id="text_24">
      <!-- 90 -->
      <g transform="translate(138.645938 287.150594) scale(0.09 -0.09)">
       <use xlink:href="#DejaVuSans-39"/>
       <use xlink:href="#DejaVuSans-30" x="63.623047"/>
      </g>
     </g>
    </g>
    <g id="xtick_13">
     <g id="line2d_30">
      <g>
       <use xlink:href="#m2aaf959f9b" x="214.122187" y="273.312" style="stroke: #000000; stroke-width: 0.8"/>
      </g>
     </g>
     <g id="text_25">
      <!-- 180 -->
      <g transform="translate(205.532813 287.150594) scale(0.09 -0.09)">
       <use xlink:href="#DejaVuSans-31"/>
       <use xlink:href="#DejaVuSans-38" x="63.623047"/>
       <use xlink:href="#DejaVuSans-30" x="127.246094"/>
      </g>
     </g>
    </g>
    <g id="xtick_14">
     <g id="line2d_31">
      <g>
       <use xlink:href="#m2aaf959f9b" x="283.872187" y="273.312" style="stroke: #000000; stroke-width: 0.8"/>
      </g>
     </g>
     <g id="text_26">
      <!-- 270 -->
      <g transform="translate(275.282812 287.150594) scale(0.09 -0.09)">
       <use xlink:href="#DejaVuSans-32"/>
       <use xlink:href="#DejaVuSans-37" x="63.623047"/>
       <use xlink:href="#DejaVuSans-30" x="127.246094"/>
      </g>
     </g>
    </g>
    <g id="xtick_15">
     <g id="line2d_32">
      <g>
       <use xlink:href="#m2aaf959f9b" x="353.622187" y="273.312" style="stroke: #000000; stroke-width: 0.8"/>
      </g>
     </g>
     <g id="text_27">
      <!-- 360 -->
      <g transform="translate(345.032812 287.150594) scale(0.09 -0.09)">
       <use xlink:href="#DejaVuSans-33"/>
       <use xlink:href="#DejaVuSans-36" x="63.623047"/>
       <use xlink:href="#DejaVuSans-30" x="127.246094"/>
      </g>
     </g>
    </g>
   </g>
   <g id="matplotlib.axis_6">
    <g id="ytick_8">
     <g id="line2d_33">
      <g>
       <use xlink:href="#mbff2cf6005" x="74.622188" y="273.312" style="stroke: #000000; stroke-width: 0.8"/>
      </g>
     </g>
     <g id="text_28">
      <!-- 0 -->
      <g style="fill: #ff00ff" transform="translate(61.895938 276.731297) scale(0.09 -0.09)">
       <use xlink:href="#DejaVuSans-30"/>
      </g>
     </g>
    </g>
    <g id="ytick_9">
     <g id="line2d_34">
      <g>
       <use xlink:href="#mbff2cf6005" x="74.622188" y="228.96" style="stroke: #000000; stroke-width: 0.8"/>
      </g>
     </g>
     <g id="text_29">
      <!-- 5 -->
      <g style="fill: #ff00ff" transform="translate(61.895938 232.379297) scale(0.09 -0.09)">
       <use xlink:href="#DejaVuSans-35"/>
      </g>
     </g>
    </g>
    <g id="text_30">
     <!-- Sensitivity -->
     <g style="fill: #ff00ff" transform="translate(45.946188 270.128222) rotate(-90) scale(0.09 -0.09)">
      <defs>
       <path id="DejaVuSans-53" d="M 3425 4513 
L 3425 3897 
Q 3066 4069 2747 4153 
Q 2428 4238 2131 4238 
Q 1616 4238 1336 4038 
Q 1056 3838 1056 3469 
Q 1056 3159 1242 3001 
Q 1428 2844 1947 2747 
L 2328 2669 
Q 3034 2534 3370 2195 
Q 3706 1856 3706 1288 
Q 3706 609 3251 259 
Q 2797 -91 1919 -91 
Q 1588 -91 1214 -16 
Q 841 59 441 206 
L 441 856 
Q 825 641 1194 531 
Q 1563 422 1919 422 
Q 2459 422 2753 634 
Q 3047 847 3047 1241 
Q 3047 1584 2836 1778 
Q 2625 1972 2144 2069 
L 1759 2144 
Q 1053 2284 737 2584 
Q 422 2884 422 3419 
Q 422 4038 858 4394 
Q 1294 4750 2059 4750 
Q 2388 4750 2728 4690 
Q 3069 4631 3425 4513 
z
" transform="scale(0.015625)"/>
      </defs>
      <use xlink:href="#DejaVuSans-53"/>
      <use xlink:href="#DejaVuSans-65" x="63.476562"/>
      <use xlink:href="#DejaVuSans-6e" x="125"/>
      <use xlink:href="#DejaVuSans-73" x="188.378906"/>
      <use xlink:href="#DejaVuSans-69" x="240.478516"/>
      <use xlink:href="#DejaVuSans-74" x="268.261719"/>
      <use xlink:href="#DejaVuSans-69" x="307.470703"/>
      <use xlink:href="#DejaVuSans-76" x="335.253906"/>
      <use xlink:href="#DejaVuSans-69" x="394.433594"/>
      <use xlink:href="#DejaVuSans-74" x="422.216797"/>
      <use xlink:href="#DejaVuSans-79" x="461.425781"/>
     </g>
     <!-- [$Bits$] -->
     <g style="fill: #ff00ff" transform="translate(56.024219 258.6708) rotate(-90) scale(0.09 -0.09)">
      <defs>
       <path id="DejaVuSans-Oblique-42" d="M 1081 4666 
L 2694 4666 
Q 3350 4666 3675 4422 
Q 4000 4178 4000 3688 
Q 4000 3238 3720 2911 
Q 3441 2584 2988 2516 
Q 3375 2428 3569 2181 
Q 3763 1934 3763 1522 
Q 3763 819 3242 409 
Q 2722 0 1819 0 
L 172 0 
L 1081 4666 
z
M 1234 2228 
L 903 519 
L 1919 519 
Q 2491 519 2800 781 
Q 3109 1044 3109 1522 
Q 3109 1891 2904 2059 
Q 2700 2228 2247 2228 
L 1234 2228 
z
M 1606 4147 
L 1331 2741 
L 2272 2741 
Q 2775 2741 3058 2959 
Q 3341 3178 3341 3566 
Q 3341 3869 3150 4008 
Q 2959 4147 2541 4147 
L 1606 4147 
z
" transform="scale(0.015625)"/>
       <path id="DejaVuSans-Oblique-69" d="M 1172 4863 
L 1747 4863 
L 1606 4134 
L 1031 4134 
L 1172 4863 
z
M 909 3500 
L 1484 3500 
L 800 0 
L 225 0 
L 909 3500 
z
" transform="scale(0.015625)"/>
       <path id="DejaVuSans-Oblique-74" d="M 2706 3500 
L 2619 3053 
L 1472 3053 
L 1100 1153 
Q 1081 1047 1072 975 
Q 1063 903 1063 863 
Q 1063 663 1183 572 
Q 1303 481 1569 481 
L 2150 481 
L 2053 0 
L 1503 0 
Q 991 0 739 200 
Q 488 400 488 806 
Q 488 878 497 964 
Q 506 1050 525 1153 
L 897 3053 
L 409 3053 
L 500 3500 
L 978 3500 
L 1172 4494 
L 1747 4494 
L 1556 3500 
L 2706 3500 
z
" transform="scale(0.015625)"/>
       <path id="DejaVuSans-Oblique-73" d="M 3200 3397 
L 3091 2853 
Q 2863 2978 2609 3040 
Q 2356 3103 2088 3103 
Q 1634 3103 1373 2948 
Q 1113 2794 1113 2528 
Q 1113 2219 1719 2053 
Q 1766 2041 1788 2034 
L 1972 1978 
Q 2547 1819 2739 1644 
Q 2931 1469 2931 1166 
Q 2931 609 2489 259 
Q 2047 -91 1331 -91 
Q 1053 -91 747 -37 
Q 441 16 72 128 
L 184 722 
Q 500 559 806 475 
Q 1113 391 1394 391 
Q 1816 391 2080 572 
Q 2344 753 2344 1031 
Q 2344 1331 1650 1516 
L 1591 1531 
L 1394 1581 
Q 956 1697 753 1886 
Q 550 2075 550 2369 
Q 550 2928 970 3256 
Q 1391 3584 2113 3584 
Q 2397 3584 2667 3537 
Q 2938 3491 3200 3397 
z
" transform="scale(0.015625)"/>
      </defs>
      <use xlink:href="#DejaVuSans-5b" transform="translate(0 0.015625)"/>
      <use xlink:href="#DejaVuSans-Oblique-42" transform="translate(39.013672 0.015625)"/>
      <use xlink:href="#DejaVuSans-Oblique-69" transform="translate(107.617188 0.015625)"/>
      <use xlink:href="#DejaVuSans-Oblique-74" transform="translate(135.400391 0.015625)"/>
      <use xlink:href="#DejaVuSans-Oblique-73" transform="translate(174.609375 0.015625)"/>
      <use xlink:href="#DejaVuSans-5d" transform="translate(226.708984 0.015625)"/>
     </g>
    </g>
   </g>
   <g id="line2d_35">
    <path d="M 74.622188 237.140903 
L 82.372188 237.09067 
L 85.472188 237.131761 
L 97.872188 237.148931 
L 99.422188 237.073836 
L 102.522188 237.169411 
L 105.622188 237.121659 
L 127.322188 237.145993 
L 133.522188 237.11726 
L 187.772188 237.164406 
L 189.322188 237.068101 
L 195.522188 237.144113 
L 200.172188 237.132335 
L 209.472188 237.179507 
L 212.572188 237.113907 
L 300.922188 237.134826 
L 305.572188 237.136209 
L 338.122187 237.097211 
L 342.772188 237.159629 
L 345.872187 237.088262 
L 350.522188 237.123476 
L 352.072187 237.09239 
L 352.072187 237.09239 
" clip-path="url(#p77cc54f84e)" style="fill: none; stroke: #ff00ff; stroke-linecap: square"/>
   </g>
   <g id="patch_9">
    <path d="M 74.622188 273.312 
L 74.622188 220.0896 
" style="fill: none; stroke: #000000; stroke-width: 0.8; stroke-linejoin: miter; stroke-linecap: square"/>
   </g>
   <g id="patch_10">
    <path d="M 74.622188 273.312 
L 353.622187 273.312 
" style="fill: none; stroke: #000000; stroke-width: 0.8; stroke-linejoin: miter; stroke-linecap: square"/>
   </g>
  </g>
  <g id="axes_4">
   <g id="matplotlib.axis_7">
    <g id="ytick_10">
     <g id="line2d_36">
      <defs>
       <path id="m367e34fb73" d="M 0 0 
L 3.5 0 
" style="stroke: #000000; stroke-width: 0.8"/>
      </defs>
      <g>
       <use xlink:href="#m367e34fb73" x="353.622187" y="273.312" style="stroke: #000000; stroke-width: 0.8"/>
      </g>
     </g>
     <g id="text_31">
      <!-- 0.00 -->
      <g style="fill: #ffa500" transform="translate(360.622187 276.731297) scale(0.09 -0.09)">
       <use xlink:href="#DejaVuSans-30"/>
       <use xlink:href="#DejaVuSans-2e" x="63.623047"/>
       <use xlink:href="#DejaVuSans-30" x="95.410156"/>
       <use xlink:href="#DejaVuSans-30" x="159.033203"/>
      </g>
     </g>
    </g>
    <g id="ytick_11">
     <g id="line2d_37">
      <g>
       <use xlink:href="#m367e34fb73" x="353.622187" y="244.273845" style="stroke: #000000; stroke-width: 0.8"/>
      </g>
     </g>
     <g id="text_32">
      <!-- 0.05 -->
      <g style="fill: #ffa500" transform="translate(360.622187 247.693141) scale(0.09 -0.09)">
       <use xlink:href="#DejaVuSans-30"/>
       <use xlink:href="#DejaVuSans-2e" x="63.623047"/>
       <use xlink:href="#DejaVuSans-30" x="95.410156"/>
       <use xlink:href="#DejaVuSans-35" x="159.033203"/>
      </g>
     </g>
    </g>
    <g id="text_33">
     <!-- Fisher -->
     <g style="fill: #ffa500" transform="translate(394.213594 233.373769) rotate(-270) scale(0.09 -0.09)">
      <defs>
       <path id="DejaVuSans-46" d="M 628 4666 
L 3309 4666 
L 3309 4134 
L 1259 4134 
L 1259 2759 
L 3109 2759 
L 3109 2228 
L 1259 2228 
L 1259 0 
L 628 0 
L 628 4666 
z
" transform="scale(0.015625)"/>
       <path id="DejaVuSans-68" d="M 3513 2113 
L 3513 0 
L 2938 0 
L 2938 2094 
Q 2938 2591 2744 2837 
Q 2550 3084 2163 3084 
Q 1697 3084 1428 2787 
Q 1159 2491 1159 1978 
L 1159 0 
L 581 0 
L 581 4863 
L 1159 4863 
L 1159 2956 
Q 1366 3272 1645 3428 
Q 1925 3584 2291 3584 
Q 2894 3584 3203 3211 
Q 3513 2838 3513 2113 
z
" transform="scale(0.015625)"/>
      </defs>
      <use xlink:href="#DejaVuSans-46"/>
      <use xlink:href="#DejaVuSans-69" x="50.269531"/>
      <use xlink:href="#DejaVuSans-73" x="78.052734"/>
      <use xlink:href="#DejaVuSans-68" x="130.152344"/>
      <use xlink:href="#DejaVuSans-65" x="193.53125"/>
      <use xlink:href="#DejaVuSans-72" x="255.054688"/>
     </g>
     <!-- Information -->
     <g style="fill: #ffa500" transform="translate(384.135562 220.652128) rotate(-270) scale(0.09 -0.09)">
      <defs>
       <path id="DejaVuSans-49" d="M 628 4666 
L 1259 4666 
L 1259 0 
L 628 0 
L 628 4666 
z
" transform="scale(0.015625)"/>
       <path id="DejaVuSans-66" d="M 2375 4863 
L 2375 4384 
L 1825 4384 
Q 1516 4384 1395 4259 
Q 1275 4134 1275 3809 
L 1275 3500 
L 2222 3500 
L 2222 3053 
L 1275 3053 
L 1275 0 
L 697 0 
L 697 3053 
L 147 3053 
L 147 3500 
L 697 3500 
L 697 3744 
Q 697 4328 969 4595 
Q 1241 4863 1831 4863 
L 2375 4863 
z
" transform="scale(0.015625)"/>
      </defs>
      <use xlink:href="#DejaVuSans-49"/>
      <use xlink:href="#DejaVuSans-6e" x="29.492188"/>
      <use xlink:href="#DejaVuSans-66" x="92.871094"/>
      <use xlink:href="#DejaVuSans-6f" x="128.076172"/>
      <use xlink:href="#DejaVuSans-72" x="189.257812"/>
      <use xlink:href="#DejaVuSans-6d" x="228.621094"/>
      <use xlink:href="#DejaVuSans-61" x="326.033203"/>
      <use xlink:href="#DejaVuSans-74" x="387.3125"/>
      <use xlink:href="#DejaVuSans-69" x="426.521484"/>
      <use xlink:href="#DejaVuSans-6f" x="454.304688"/>
      <use xlink:href="#DejaVuSans-6e" x="515.486328"/>
     </g>
    </g>
   </g>
   <g id="line2d_38">
    <path d="M 74.622188 228.96 
L 79.272188 228.992931 
L 352.072187 228.96 
L 352.072187 228.96 
" clip-path="url(#p77cc54f84e)" style="fill: none; stroke: #ffa500; stroke-linecap: square"/>
   </g>
   <g id="patch_11">
    <path d="M 74.622188 273.312 
L 74.622188 220.0896 
" style="fill: none; stroke: #000000; stroke-width: 0.8; stroke-linejoin: miter; stroke-linecap: square"/>
   </g>
   <g id="patch_12">
    <path d="M 353.622187 273.312 
L 353.622187 220.0896 
" style="fill: none; stroke: #000000; stroke-width: 0.8; stroke-linejoin: miter; stroke-linecap: square"/>
   </g>
   <g id="patch_13">
    <path d="M 74.622188 273.312 
L 353.622187 273.312 
" style="fill: none; stroke: #000000; stroke-width: 0.8; stroke-linejoin: miter; stroke-linecap: square"/>
   </g>
   <g id="text_34">
    <!-- C -->
    <g transform="translate(8.5475 204.116213) scale(0.14 -0.14)">
     <defs>
      <path id="DejaVuSans-Bold-43" d="M 4288 256 
Q 3956 84 3597 -3 
Q 3238 -91 2847 -91 
Q 1681 -91 1000 561 
Q 319 1213 319 2328 
Q 319 3447 1000 4098 
Q 1681 4750 2847 4750 
Q 3238 4750 3597 4662 
Q 3956 4575 4288 4403 
L 4288 3438 
Q 3953 3666 3628 3772 
Q 3303 3878 2944 3878 
Q 2300 3878 1931 3465 
Q 1563 3053 1563 2328 
Q 1563 1606 1931 1193 
Q 2300 781 2944 781 
Q 3303 781 3628 887 
Q 3953 994 4288 1222 
L 4288 256 
z
" transform="scale(0.015625)"/>
     </defs>
     <use xlink:href="#DejaVuSans-Bold-43"/>
    </g>
   </g>
  </g>
  <g id="axes_5">
   <g id="patch_14">
    <path d="M 74.622188 366.4512 
L 353.622187 366.4512 
L 353.622187 313.2288 
L 74.622188 313.2288 
z
" style="fill: #ffffff"/>
   </g>
   <g id="matplotlib.axis_8">
    <g id="xtick_16">
     <g id="line2d_39">
      <g>
       <use xlink:href="#m2aaf959f9b" x="87.304006" y="366.4512" style="stroke: #000000; stroke-width: 0.8"/>
      </g>
     </g>
     <g id="text_35">
      <!-- 0 -->
      <g transform="translate(84.440881 380.289794) scale(0.09 -0.09)">
       <use xlink:href="#DejaVuSans-30"/>
      </g>
     </g>
    </g>
    <g id="xtick_17">
     <g id="line2d_40">
      <g>
       <use xlink:href="#m2aaf959f9b" x="151.067337" y="366.4512" style="stroke: #000000; stroke-width: 0.8"/>
      </g>
     </g>
     <g id="text_36">
      <!-- 90 -->
      <g transform="translate(145.341087 380.289794) scale(0.09 -0.09)">
       <use xlink:href="#DejaVuSans-39"/>
       <use xlink:href="#DejaVuSans-30" x="63.623047"/>
      </g>
     </g>
    </g>
    <g id="xtick_18">
     <g id="line2d_41">
      <g>
       <use xlink:href="#m2aaf959f9b" x="214.830669" y="366.4512" style="stroke: #000000; stroke-width: 0.8"/>
      </g>
     </g>
     <g id="text_37">
      <!-- 180 -->
      <g transform="translate(206.241294 380.289794) scale(0.09 -0.09)">
       <use xlink:href="#DejaVuSans-31"/>
       <use xlink:href="#DejaVuSans-38" x="63.623047"/>
       <use xlink:href="#DejaVuSans-30" x="127.246094"/>
      </g>
     </g>
    </g>
    <g id="xtick_19">
     <g id="line2d_42">
      <g>
       <use xlink:href="#m2aaf959f9b" x="278.594001" y="366.4512" style="stroke: #000000; stroke-width: 0.8"/>
      </g>
     </g>
     <g id="text_38">
      <!-- 270 -->
      <g transform="translate(270.004626 380.289794) scale(0.09 -0.09)">
       <use xlink:href="#DejaVuSans-32"/>
       <use xlink:href="#DejaVuSans-37" x="63.623047"/>
       <use xlink:href="#DejaVuSans-30" x="127.246094"/>
      </g>
     </g>
    </g>
    <g id="xtick_20">
     <g id="line2d_43">
      <g>
       <use xlink:href="#m2aaf959f9b" x="342.357332" y="366.4512" style="stroke: #000000; stroke-width: 0.8"/>
      </g>
     </g>
     <g id="text_39">
      <!-- 360 -->
      <g transform="translate(333.767957 380.289794) scale(0.09 -0.09)">
       <use xlink:href="#DejaVuSans-33"/>
       <use xlink:href="#DejaVuSans-36" x="63.623047"/>
       <use xlink:href="#DejaVuSans-30" x="127.246094"/>
      </g>
     </g>
    </g>
    <g id="text_40">
     <!-- Direction of motion [$\degree$] -->
     <g transform="translate(163.542188 393.000106) scale(0.09 -0.09)">
      <defs>
       <path id="DejaVuSans-44" d="M 1259 4147 
L 1259 519 
L 2022 519 
Q 2988 519 3436 956 
Q 3884 1394 3884 2338 
Q 3884 3275 3436 3711 
Q 2988 4147 2022 4147 
L 1259 4147 
z
M 628 4666 
L 1925 4666 
Q 3281 4666 3915 4102 
Q 4550 3538 4550 2338 
Q 4550 1131 3912 565 
Q 3275 0 1925 0 
L 628 0 
L 628 4666 
z
" transform="scale(0.015625)"/>
       <path id="DejaVuSans-b0" d="M 1600 4347 
Q 1350 4347 1178 4173 
Q 1006 4000 1006 3750 
Q 1006 3503 1178 3333 
Q 1350 3163 1600 3163 
Q 1850 3163 2022 3333 
Q 2194 3503 2194 3750 
Q 2194 3997 2020 4172 
Q 1847 4347 1600 4347 
z
M 1600 4750 
Q 1800 4750 1984 4673 
Q 2169 4597 2303 4453 
Q 2447 4313 2519 4134 
Q 2591 3956 2591 3750 
Q 2591 3338 2302 3052 
Q 2013 2766 1594 2766 
Q 1172 2766 890 3047 
Q 609 3328 609 3750 
Q 609 4169 896 4459 
Q 1184 4750 1600 4750 
z
" transform="scale(0.015625)"/>
      </defs>
      <use xlink:href="#DejaVuSans-44" transform="translate(0 0.015625)"/>
      <use xlink:href="#DejaVuSans-69" transform="translate(77.001953 0.015625)"/>
      <use xlink:href="#DejaVuSans-72" transform="translate(104.785156 0.015625)"/>
      <use xlink:href="#DejaVuSans-65" transform="translate(145.898438 0.015625)"/>
      <use xlink:href="#DejaVuSans-63" transform="translate(207.421875 0.015625)"/>
      <use xlink:href="#DejaVuSans-74" transform="translate(262.402344 0.015625)"/>
      <use xlink:href="#DejaVuSans-69" transform="translate(301.611328 0.015625)"/>
      <use xlink:href="#DejaVuSans-6f" transform="translate(329.394531 0.015625)"/>
      <use xlink:href="#DejaVuSans-6e" transform="translate(390.576172 0.015625)"/>
      <use xlink:href="#DejaVuSans-20" transform="translate(453.955078 0.015625)"/>
      <use xlink:href="#DejaVuSans-6f" transform="translate(485.742188 0.015625)"/>
      <use xlink:href="#DejaVuSans-66" transform="translate(546.923828 0.015625)"/>
      <use xlink:href="#DejaVuSans-20" transform="translate(582.128906 0.015625)"/>
      <use xlink:href="#DejaVuSans-6d" transform="translate(613.916016 0.015625)"/>
      <use xlink:href="#DejaVuSans-6f" transform="translate(711.328125 0.015625)"/>
      <use xlink:href="#DejaVuSans-74" transform="translate(772.509766 0.015625)"/>
      <use xlink:href="#DejaVuSans-69" transform="translate(811.71875 0.015625)"/>
      <use xlink:href="#DejaVuSans-6f" transform="translate(839.501953 0.015625)"/>
      <use xlink:href="#DejaVuSans-6e" transform="translate(900.683594 0.015625)"/>
      <use xlink:href="#DejaVuSans-20" transform="translate(964.0625 0.015625)"/>
      <use xlink:href="#DejaVuSans-5b" transform="translate(995.849609 0.015625)"/>
      <use xlink:href="#DejaVuSans-b0" transform="translate(1034.863281 0.015625)"/>
      <use xlink:href="#DejaVuSans-5d" transform="translate(1084.863281 0.015625)"/>
     </g>
    </g>
   </g>
   <g id="matplotlib.axis_9">
    <g id="ytick_12">
     <g id="line2d_44">
      <g>
       <use xlink:href="#mbff2cf6005" x="74.622188" y="366.4512" style="stroke: #000000; stroke-width: 0.8"/>
      </g>
     </g>
     <g id="text_41">
      <!-- 0 -->
      <g transform="translate(61.895938 369.870497) scale(0.09 -0.09)">
       <use xlink:href="#DejaVuSans-30"/>
      </g>
     </g>
    </g>
    <g id="ytick_13">
     <g id="line2d_45">
      <g>
       <use xlink:href="#mbff2cf6005" x="74.622188" y="339.84" style="stroke: #000000; stroke-width: 0.8"/>
      </g>
     </g>
     <g id="text_42">
      <!-- 25 -->
      <g transform="translate(56.169688 343.259297) scale(0.09 -0.09)">
       <use xlink:href="#DejaVuSans-32"/>
       <use xlink:href="#DejaVuSans-35" x="63.623047"/>
      </g>
     </g>
    </g>
    <g id="ytick_14">
     <g id="line2d_46">
      <g>
       <use xlink:href="#mbff2cf6005" x="74.622188" y="313.2288" style="stroke: #000000; stroke-width: 0.8"/>
      </g>
     </g>
     <g id="text_43">
      <!-- 50 -->
      <g transform="translate(56.169688 316.648097) scale(0.09 -0.09)">
       <use xlink:href="#DejaVuSans-35"/>
       <use xlink:href="#DejaVuSans-30" x="63.623047"/>
      </g>
     </g>
    </g>
    <g id="text_44">
     <!-- Decoding -->
     <g transform="translate(40.219938 361.117266) rotate(-90) scale(0.09 -0.09)">
      <use xlink:href="#DejaVuSans-44"/>
      <use xlink:href="#DejaVuSans-65" x="77.001953"/>
      <use xlink:href="#DejaVuSans-63" x="138.525391"/>
      <use xlink:href="#DejaVuSans-6f" x="193.505859"/>
      <use xlink:href="#DejaVuSans-64" x="254.6875"/>
      <use xlink:href="#DejaVuSans-69" x="318.164062"/>
      <use xlink:href="#DejaVuSans-6e" x="345.947266"/>
      <use xlink:href="#DejaVuSans-67" x="409.326172"/>
     </g>
     <!-- Error [$\degree$] -->
     <g transform="translate(50.297969 358.2) rotate(-90) scale(0.09 -0.09)">
      <defs>
       <path id="DejaVuSans-45" d="M 628 4666 
L 3578 4666 
L 3578 4134 
L 1259 4134 
L 1259 2753 
L 3481 2753 
L 3481 2222 
L 1259 2222 
L 1259 531 
L 3634 531 
L 3634 0 
L 628 0 
L 628 4666 
z
" transform="scale(0.015625)"/>
      </defs>
      <use xlink:href="#DejaVuSans-45" transform="translate(0 0.015625)"/>
      <use xlink:href="#DejaVuSans-72" transform="translate(63.183594 0.015625)"/>
      <use xlink:href="#DejaVuSans-72" transform="translate(104.296875 0.015625)"/>
      <use xlink:href="#DejaVuSans-6f" transform="translate(145.410156 0.015625)"/>
      <use xlink:href="#DejaVuSans-72" transform="translate(206.591797 0.015625)"/>
      <use xlink:href="#DejaVuSans-20" transform="translate(247.705078 0.015625)"/>
      <use xlink:href="#DejaVuSans-5b" transform="translate(279.492188 0.015625)"/>
      <use xlink:href="#DejaVuSans-b0" transform="translate(318.505859 0.015625)"/>
      <use xlink:href="#DejaVuSans-5d" transform="translate(368.505859 0.015625)"/>
     </g>
    </g>
   </g>
   <g id="line2d_47">
    <path d="M 87.304006 362.599368 
L 182.240522 362.597944 
L 340.940369 362.599368 
L 340.940369 362.599368 
" clip-path="url(#pe69adf49f7)" style="fill: none; stroke: #ffa500; stroke-linecap: square"/>
   </g>
   <g id="line2d_48">
    <path d="M 87.304006 360.959956 
L 105.724524 360.965156 
L 112.809338 360.94771 
L 118.47719 360.97371 
L 148.233411 360.957608 
L 153.901263 360.984802 
L 158.152152 360.981253 
L 168.070892 360.979507 
L 186.49141 360.955866 
L 214.830669 360.972053 
L 223.332447 360.963905 
L 229.000298 360.981402 
L 234.66815 360.955941 
L 340.940369 360.980734 
L 340.940369 360.980734 
" clip-path="url(#pe69adf49f7)" style="fill: none; stroke: #ff00ff; stroke-width: 1.5; stroke-linecap: square"/>
   </g>
   <g id="line2d_49">
    <path d="M 87.304006 362.586825 
L 88.720969 362.736653 
L 90.137932 362.391594 
L 91.554894 362.515117 
L 92.971857 362.790089 
L 95.805783 362.450805 
L 97.222746 362.683282 
L 98.639709 362.719201 
L 100.056672 362.359455 
L 101.473635 362.347991 
L 102.890598 362.582329 
L 104.307561 362.444492 
L 105.724524 362.65048 
L 108.55845 362.191238 
L 109.975412 362.407016 
L 112.809338 362.674041 
L 114.226301 362.411754 
L 115.643264 362.370015 
L 117.060227 362.604497 
L 118.47719 362.6967 
L 119.894153 362.528421 
L 121.311116 362.512925 
L 122.728079 362.709138 
L 125.562005 362.426202 
L 126.978968 362.292861 
L 129.812893 362.480543 
L 131.229856 362.768724 
L 132.646819 362.468093 
L 134.063782 362.747912 
L 135.480745 362.401455 
L 138.314671 362.851341 
L 139.731634 362.5204 
L 142.56556 362.427339 
L 146.816449 362.926828 
L 148.233411 362.719403 
L 149.650374 362.843724 
L 152.4843 362.565021 
L 153.901263 362.544566 
L 155.318226 362.643557 
L 156.735189 362.55078 
L 163.820004 362.720298 
L 166.65393 362.549113 
L 168.070892 362.592213 
L 169.487855 362.418176 
L 170.904818 362.723338 
L 172.321781 362.588184 
L 173.738744 362.808956 
L 175.155707 362.397272 
L 176.57267 362.704053 
L 177.989633 362.609812 
L 180.823559 362.734724 
L 182.240522 362.397744 
L 185.074448 362.599595 
L 186.49141 362.55637 
L 189.325336 362.797833 
L 193.576225 362.377171 
L 194.993188 362.693185 
L 196.410151 362.836578 
L 197.827114 362.603686 
L 199.244077 362.788468 
L 200.66104 362.472599 
L 202.078003 362.82582 
L 203.494966 362.50054 
L 210.57978 362.608778 
L 213.413706 362.657069 
L 217.664595 362.643391 
L 219.081558 362.372861 
L 220.498521 362.401592 
L 221.915484 362.584232 
L 231.834224 362.493626 
L 233.251187 362.72314 
L 234.66815 362.559765 
L 237.502076 362.75699 
L 240.336002 362.608923 
L 241.752965 362.577471 
L 243.169927 362.702285 
L 244.58689 362.298092 
L 246.003853 362.745688 
L 247.420816 362.654855 
L 248.837779 362.696401 
L 254.505631 362.316118 
L 257.339557 362.569097 
L 258.75652 362.52391 
L 260.173483 362.747652 
L 265.841334 362.405237 
L 271.509186 362.663407 
L 274.343112 362.683924 
L 275.760075 362.471613 
L 277.177038 362.787252 
L 280.010964 362.52078 
L 281.427926 362.610494 
L 289.929704 362.422054 
L 292.76363 362.677367 
L 298.431482 362.48489 
L 299.848444 362.352161 
L 301.265407 362.701964 
L 302.68237 362.477686 
L 304.099333 362.689894 
L 306.933259 362.460117 
L 309.767185 362.714848 
L 311.184148 362.786467 
L 314.018074 362.520876 
L 315.435037 362.756106 
L 316.852 362.576664 
L 328.187703 362.5809 
L 329.604666 362.161644 
L 331.021629 362.536846 
L 332.438592 362.494038 
L 333.855555 362.663758 
L 335.272518 362.569941 
L 336.689481 362.343484 
L 338.106443 362.582512 
L 339.523406 362.690458 
L 340.940369 362.426665 
L 340.940369 362.426665 
" clip-path="url(#pe69adf49f7)" style="fill: none; stroke-dasharray: 5.55,2.4; stroke-dashoffset: 0; stroke: #0000ff; stroke-width: 1.5"/>
   </g>
   <g id="patch_15">
    <path d="M 74.622188 366.4512 
L 74.622188 313.2288 
" style="fill: none; stroke: #000000; stroke-width: 0.8; stroke-linejoin: miter; stroke-linecap: square"/>
   </g>
   <g id="patch_16">
    <path d="M 74.622188 366.4512 
L 353.622187 366.4512 
" style="fill: none; stroke: #000000; stroke-width: 0.8; stroke-linejoin: miter; stroke-linecap: square"/>
   </g>
   <g id="text_45">
    <!-- D -->
    <g transform="translate(7.2 297.255413) scale(0.14 -0.14)">
     <defs>
      <path id="DejaVuSans-Bold-44" d="M 1791 3756 
L 1791 909 
L 2222 909 
Q 2959 909 3348 1275 
Q 3738 1641 3738 2338 
Q 3738 3031 3350 3393 
Q 2963 3756 2222 3756 
L 1791 3756 
z
M 588 4666 
L 1856 4666 
Q 2919 4666 3439 4514 
Q 3959 4363 4331 4000 
Q 4659 3684 4818 3271 
Q 4978 2859 4978 2338 
Q 4978 1809 4818 1395 
Q 4659 981 4331 666 
Q 3956 303 3431 151 
Q 2906 0 1856 0 
L 588 0 
L 588 4666 
z
" transform="scale(0.015625)"/>
     </defs>
     <use xlink:href="#DejaVuSans-Bold-44"/>
    </g>
   </g>
   <g id="legend_1">
    <g id="line2d_50">
     <path d="M 80.612188 311.35237 
L 80.612188 311.35237 
L 80.612188 311.35237 
" style="fill: none; stroke: #ffa500; stroke-linecap: square"/>
    </g>
    <g id="text_46">
     <!-- Fisher error -->
     <g style="fill: #ffa500" transform="translate(87.012188 314.15237) scale(0.08 -0.08)">
      <use xlink:href="#DejaVuSans-46"/>
      <use xlink:href="#DejaVuSans-69" x="50.269531"/>
      <use xlink:href="#DejaVuSans-73" x="78.052734"/>
      <use xlink:href="#DejaVuSans-68" x="130.152344"/>
      <use xlink:href="#DejaVuSans-65" x="193.53125"/>
      <use xlink:href="#DejaVuSans-72" x="255.054688"/>
      <use xlink:href="#DejaVuSans-20" x="296.167969"/>
      <use xlink:href="#DejaVuSans-65" x="327.955078"/>
      <use xlink:href="#DejaVuSans-72" x="389.478516"/>
      <use xlink:href="#DejaVuSans-72" x="428.841797"/>
      <use xlink:href="#DejaVuSans-6f" x="467.705078"/>
      <use xlink:href="#DejaVuSans-72" x="528.886719"/>
     </g>
    </g>
    <g id="line2d_51">
     <path d="M 80.612188 323.09487 
L 80.612188 323.09487 
L 80.612188 323.09487 
" style="fill: none; stroke: #ff00ff; stroke-width: 1.5; stroke-linecap: square"/>
    </g>
    <g id="text_47">
     <!-- Sensitivity error -->
     <g style="fill: #ff00ff" transform="translate(87.012188 325.89487) scale(0.08 -0.08)">
      <use xlink:href="#DejaVuSans-53"/>
      <use xlink:href="#DejaVuSans-65" x="63.476562"/>
      <use xlink:href="#DejaVuSans-6e" x="125"/>
      <use xlink:href="#DejaVuSans-73" x="188.378906"/>
      <use xlink:href="#DejaVuSans-69" x="240.478516"/>
      <use xlink:href="#DejaVuSans-74" x="268.261719"/>
      <use xlink:href="#DejaVuSans-69" x="307.470703"/>
      <use xlink:href="#DejaVuSans-76" x="335.253906"/>
      <use xlink:href="#DejaVuSans-69" x="394.433594"/>
      <use xlink:href="#DejaVuSans-74" x="422.216797"/>
      <use xlink:href="#DejaVuSans-79" x="461.425781"/>
      <use xlink:href="#DejaVuSans-20" x="520.605469"/>
      <use xlink:href="#DejaVuSans-65" x="552.392578"/>
      <use xlink:href="#DejaVuSans-72" x="613.916016"/>
      <use xlink:href="#DejaVuSans-72" x="653.279297"/>
      <use xlink:href="#DejaVuSans-6f" x="692.142578"/>
      <use xlink:href="#DejaVuSans-72" x="753.324219"/>
     </g>
    </g>
    <g id="line2d_52">
     <path d="M 80.612188 334.83737 
L 80.612188 334.83737 
L 80.612188 334.83737 
" style="fill: none; stroke-dasharray: 5.55,2.4; stroke-dashoffset: 0; stroke: #0000ff; stroke-width: 1.5"/>
    </g>
    <g id="text_48">
     <!-- Bayesian error -->
     <g style="fill: #0000ff" transform="translate(87.012188 337.63737) scale(0.08 -0.08)">
      <defs>
       <path id="DejaVuSans-42" d="M 1259 2228 
L 1259 519 
L 2272 519 
Q 2781 519 3026 730 
Q 3272 941 3272 1375 
Q 3272 1813 3026 2020 
Q 2781 2228 2272 2228 
L 1259 2228 
z
M 1259 4147 
L 1259 2741 
L 2194 2741 
Q 2656 2741 2882 2914 
Q 3109 3088 3109 3444 
Q 3109 3797 2882 3972 
Q 2656 4147 2194 4147 
L 1259 4147 
z
M 628 4666 
L 2241 4666 
Q 2963 4666 3353 4366 
Q 3744 4066 3744 3513 
Q 3744 3084 3544 2831 
Q 3344 2578 2956 2516 
Q 3422 2416 3680 2098 
Q 3938 1781 3938 1306 
Q 3938 681 3513 340 
Q 3088 0 2303 0 
L 628 0 
L 628 4666 
z
" transform="scale(0.015625)"/>
      </defs>
      <use xlink:href="#DejaVuSans-42"/>
      <use xlink:href="#DejaVuSans-61" x="68.603516"/>
      <use xlink:href="#DejaVuSans-79" x="129.882812"/>
      <use xlink:href="#DejaVuSans-65" x="189.0625"/>
      <use xlink:href="#DejaVuSans-73" x="250.585938"/>
      <use xlink:href="#DejaVuSans-69" x="302.685547"/>
      <use xlink:href="#DejaVuSans-61" x="330.46875"/>
      <use xlink:href="#DejaVuSans-6e" x="391.748047"/>
      <use xlink:href="#DejaVuSans-20" x="455.126953"/>
      <use xlink:href="#DejaVuSans-65" x="486.914062"/>
      <use xlink:href="#DejaVuSans-72" x="548.4375"/>
      <use xlink:href="#DejaVuSans-72" x="587.800781"/>
      <use xlink:href="#DejaVuSans-6f" x="626.664062"/>
      <use xlink:href="#DejaVuSans-72" x="687.845703"/>
     </g>
    </g>
   </g>
  </g>
 </g>
 <defs>
  <clipPath id="p21fc50118f">
   <rect x="74.622188" y="33.8112" width="279" height="53.2224"/>
  </clipPath>
  <clipPath id="p3b198e0460">
   <rect x="74.622188" y="126.9504" width="279" height="53.2224"/>
  </clipPath>
  <clipPath id="p77cc54f84e">
   <rect x="74.622188" y="220.0896" width="279" height="53.2224"/>
  </clipPath>
  <clipPath id="pe69adf49f7">
   <rect x="74.622188" y="313.2288" width="279" height="53.2224"/>
  </clipPath>
 </defs>
</svg>
