<?xml version="1.0" encoding="utf-8" standalone="no"?>
<!DOCTYPE svg PUBLIC "-//W3C//DTD SVG 1.1//EN"
  "http://www.w3.org/Graphics/SVG/1.1/DTD/svg11.dtd">
<svg xmlns:xlink="http://www.w3.org/1999/xlink" width="397.283344pt" height="387.539375pt" viewBox="0 0 397.283344 387.539375" xmlns="http://www.w3.org/2000/svg" version="1.1">
 <metadata>
  <rdf:RDF xmlns:dc="http://purl.org/dc/elements/1.1/" xmlns:cc="http://creativecommons.org/ns#" xmlns:rdf="http://www.w3.org/1999/02/22-rdf-syntax-ns#">
   <cc:Work>
    <dc:type rdf:resource="http://purl.org/dc/dcmitype/StillImage"/>
    <dc:date>2025-10-13T12:04:06.249459</dc:date>
    <dc:format>image/svg+xml</dc:format>
    <dc:creator>
     <cc:Agent>
      <dc:title>Matplotlib v3.9.4, https://matplotlib.org/</dc:title>
     </cc:Agent>
    </dc:creator>
   </cc:Work>
  </rdf:RDF>
 </metadata>
 <defs>
  <style type="text/css">*{stroke-linejoin: round; stroke-linecap: butt}</style>
 </defs>
 <g id="figure_1">
  <g id="patch_1">
   <path d="M 0 387.539375 
L 397.283344 387.539375 
L 397.283344 0 
L 0 0 
z
" style="fill: #ffffff"/>
  </g>
  <g id="axes_1">
   <g id="patch_2">
    <path d="M 63.653344 72.50115 
L 342.653344 72.50115 
L 342.653344 19.27875 
L 63.653344 19.27875 
z
" style="fill: #ffffff"/>
   </g>
   <g id="matplotlib.axis_1">
    <g id="xtick_1">
     <g id="line2d_1">
      <defs>
       <path id="md3ba1337f2" d="M 0 0 
L 0 3.5 
" style="stroke: #000000; stroke-width: 0.8"/>
      </defs>
      <g>
       <use xlink:href="#md3ba1337f2" x="63.653344" y="72.50115" style="stroke: #000000; stroke-width: 0.8"/>
      </g>
     </g>
     <g id="text_1">
      <!-- 0 -->
      <g transform="translate(60.790219 86.339744) scale(0.09 -0.09)">
       <defs>
        <path id="DejaVuSans-30" d="M 2034 4250 
Q 1547 4250 1301 3770 
Q 1056 3291 1056 2328 
Q 1056 1369 1301 889 
Q 1547 409 2034 409 
Q 2525 409 2770 889 
Q 3016 1369 3016 2328 
Q 3016 3291 2770 3770 
Q 2525 4250 2034 4250 
z
M 2034 4750 
Q 2819 4750 3233 4129 
Q 3647 3509 3647 2328 
Q 3647 1150 3233 529 
Q 2819 -91 2034 -91 
Q 1250 -91 836 529 
Q 422 1150 422 2328 
Q 422 3509 836 4129 
Q 1250 4750 2034 4750 
z
" transform="scale(0.015625)"/>
       </defs>
       <use xlink:href="#DejaVuSans-30"/>
      </g>
     </g>
    </g>
    <g id="xtick_2">
     <g id="line2d_2">
      <g>
       <use xlink:href="#md3ba1337f2" x="133.403344" y="72.50115" style="stroke: #000000; stroke-width: 0.8"/>
      </g>
     </g>
     <g id="text_2">
      <!-- 90 -->
      <g transform="translate(127.677094 86.339744) scale(0.09 -0.09)">
       <defs>
        <path id="DejaVuSans-39" d="M 703 97 
L 703 672 
Q 941 559 1184 500 
Q 1428 441 1663 441 
Q 2288 441 2617 861 
Q 2947 1281 2994 2138 
Q 2813 1869 2534 1725 
Q 2256 1581 1919 1581 
Q 1219 1581 811 2004 
Q 403 2428 403 3163 
Q 403 3881 828 4315 
Q 1253 4750 1959 4750 
Q 2769 4750 3195 4129 
Q 3622 3509 3622 2328 
Q 3622 1225 3098 567 
Q 2575 -91 1691 -91 
Q 1453 -91 1209 -44 
Q 966 3 703 97 
z
M 1959 2075 
Q 2384 2075 2632 2365 
Q 2881 2656 2881 3163 
Q 2881 3666 2632 3958 
Q 2384 4250 1959 4250 
Q 1534 4250 1286 3958 
Q 1038 3666 1038 3163 
Q 1038 2656 1286 2365 
Q 1534 2075 1959 2075 
z
" transform="scale(0.015625)"/>
       </defs>
       <use xlink:href="#DejaVuSans-39"/>
       <use xlink:href="#DejaVuSans-30" x="63.623047"/>
      </g>
     </g>
    </g>
    <g id="xtick_3">
     <g id="line2d_3">
      <g>
       <use xlink:href="#md3ba1337f2" x="203.153344" y="72.50115" style="stroke: #000000; stroke-width: 0.8"/>
      </g>
     </g>
     <g id="text_3">
      <!-- 180 -->
      <g transform="translate(194.563969 86.339744) scale(0.09 -0.09)">
       <defs>
        <path id="DejaVuSans-31" d="M 794 531 
L 1825 531 
L 1825 4091 
L 703 3866 
L 703 4441 
L 1819 4666 
L 2450 4666 
L 2450 531 
L 3481 531 
L 3481 0 
L 794 0 
L 794 531 
z
" transform="scale(0.015625)"/>
        <path id="DejaVuSans-38" d="M 2034 2216 
Q 1584 2216 1326 1975 
Q 1069 1734 1069 1313 
Q 1069 891 1326 650 
Q 1584 409 2034 409 
Q 2484 409 2743 651 
Q 3003 894 3003 1313 
Q 3003 1734 2745 1975 
Q 2488 2216 2034 2216 
z
M 1403 2484 
Q 997 2584 770 2862 
Q 544 3141 544 3541 
Q 544 4100 942 4425 
Q 1341 4750 2034 4750 
Q 2731 4750 3128 4425 
Q 3525 4100 3525 3541 
Q 3525 3141 3298 2862 
Q 3072 2584 2669 2484 
Q 3125 2378 3379 2068 
Q 3634 1759 3634 1313 
Q 3634 634 3220 271 
Q 2806 -91 2034 -91 
Q 1263 -91 848 271 
Q 434 634 434 1313 
Q 434 1759 690 2068 
Q 947 2378 1403 2484 
z
M 1172 3481 
Q 1172 3119 1398 2916 
Q 1625 2713 2034 2713 
Q 2441 2713 2670 2916 
Q 2900 3119 2900 3481 
Q 2900 3844 2670 4047 
Q 2441 4250 2034 4250 
Q 1625 4250 1398 4047 
Q 1172 3844 1172 3481 
z
" transform="scale(0.015625)"/>
       </defs>
       <use xlink:href="#DejaVuSans-31"/>
       <use xlink:href="#DejaVuSans-38" x="63.623047"/>
       <use xlink:href="#DejaVuSans-30" x="127.246094"/>
      </g>
     </g>
    </g>
    <g id="xtick_4">
     <g id="line2d_4">
      <g>
       <use xlink:href="#md3ba1337f2" x="272.903344" y="72.50115" style="stroke: #000000; stroke-width: 0.8"/>
      </g>
     </g>
     <g id="text_4">
      <!-- 270 -->
      <g transform="translate(264.313969 86.339744) scale(0.09 -0.09)">
       <defs>
        <path id="DejaVuSans-32" d="M 1228 531 
L 3431 531 
L 3431 0 
L 469 0 
L 469 531 
Q 828 903 1448 1529 
Q 2069 2156 2228 2338 
Q 2531 2678 2651 2914 
Q 2772 3150 2772 3378 
Q 2772 3750 2511 3984 
Q 2250 4219 1831 4219 
Q 1534 4219 1204 4116 
Q 875 4013 500 3803 
L 500 4441 
Q 881 4594 1212 4672 
Q 1544 4750 1819 4750 
Q 2544 4750 2975 4387 
Q 3406 4025 3406 3419 
Q 3406 3131 3298 2873 
Q 3191 2616 2906 2266 
Q 2828 2175 2409 1742 
Q 1991 1309 1228 531 
z
" transform="scale(0.015625)"/>
        <path id="DejaVuSans-37" d="M 525 4666 
L 3525 4666 
L 3525 4397 
L 1831 0 
L 1172 0 
L 2766 4134 
L 525 4134 
L 525 4666 
z
" transform="scale(0.015625)"/>
       </defs>
       <use xlink:href="#DejaVuSans-32"/>
       <use xlink:href="#DejaVuSans-37" x="63.623047"/>
       <use xlink:href="#DejaVuSans-30" x="127.246094"/>
      </g>
     </g>
    </g>
    <g id="xtick_5">
     <g id="line2d_5">
      <g>
       <use xlink:href="#md3ba1337f2" x="342.653344" y="72.50115" style="stroke: #000000; stroke-width: 0.8"/>
      </g>
     </g>
     <g id="text_5">
      <!-- 360 -->
      <g transform="translate(334.063969 86.339744) scale(0.09 -0.09)">
       <defs>
        <path id="DejaVuSans-33" d="M 2597 2516 
Q 3050 2419 3304 2112 
Q 3559 1806 3559 1356 
Q 3559 666 3084 287 
Q 2609 -91 1734 -91 
Q 1441 -91 1130 -33 
Q 819 25 488 141 
L 488 750 
Q 750 597 1062 519 
Q 1375 441 1716 441 
Q 2309 441 2620 675 
Q 2931 909 2931 1356 
Q 2931 1769 2642 2001 
Q 2353 2234 1838 2234 
L 1294 2234 
L 1294 2753 
L 1863 2753 
Q 2328 2753 2575 2939 
Q 2822 3125 2822 3475 
Q 2822 3834 2567 4026 
Q 2313 4219 1838 4219 
Q 1578 4219 1281 4162 
Q 984 4106 628 3988 
L 628 4550 
Q 988 4650 1302 4700 
Q 1616 4750 1894 4750 
Q 2613 4750 3031 4423 
Q 3450 4097 3450 3541 
Q 3450 3153 3228 2886 
Q 3006 2619 2597 2516 
z
" transform="scale(0.015625)"/>
        <path id="DejaVuSans-36" d="M 2113 2584 
Q 1688 2584 1439 2293 
Q 1191 2003 1191 1497 
Q 1191 994 1439 701 
Q 1688 409 2113 409 
Q 2538 409 2786 701 
Q 3034 994 3034 1497 
Q 3034 2003 2786 2293 
Q 2538 2584 2113 2584 
z
M 3366 4563 
L 3366 3988 
Q 3128 4100 2886 4159 
Q 2644 4219 2406 4219 
Q 1781 4219 1451 3797 
Q 1122 3375 1075 2522 
Q 1259 2794 1537 2939 
Q 1816 3084 2150 3084 
Q 2853 3084 3261 2657 
Q 3669 2231 3669 1497 
Q 3669 778 3244 343 
Q 2819 -91 2113 -91 
Q 1303 -91 875 529 
Q 447 1150 447 2328 
Q 447 3434 972 4092 
Q 1497 4750 2381 4750 
Q 2619 4750 2861 4703 
Q 3103 4656 3366 4563 
z
" transform="scale(0.015625)"/>
       </defs>
       <use xlink:href="#DejaVuSans-33"/>
       <use xlink:href="#DejaVuSans-36" x="63.623047"/>
       <use xlink:href="#DejaVuSans-30" x="127.246094"/>
      </g>
     </g>
    </g>
   </g>
   <g id="matplotlib.axis_2">
    <g id="ytick_1">
     <g id="line2d_6">
      <defs>
       <path id="m64a47900bc" d="M 0 0 
L -3.5 0 
" style="stroke: #000000; stroke-width: 0.8"/>
      </defs>
      <g>
       <use xlink:href="#m64a47900bc" x="63.653344" y="72.50115" style="stroke: #000000; stroke-width: 0.8"/>
      </g>
     </g>
     <g id="text_6">
      <!-- 0.00525 -->
      <g transform="translate(19.435531 75.920447) scale(0.09 -0.09)">
       <defs>
        <path id="DejaVuSans-2e" d="M 684 794 
L 1344 794 
L 1344 0 
L 684 0 
L 684 794 
z
" transform="scale(0.015625)"/>
        <path id="DejaVuSans-35" d="M 691 4666 
L 3169 4666 
L 3169 4134 
L 1269 4134 
L 1269 2991 
Q 1406 3038 1543 3061 
Q 1681 3084 1819 3084 
Q 2600 3084 3056 2656 
Q 3513 2228 3513 1497 
Q 3513 744 3044 326 
Q 2575 -91 1722 -91 
Q 1428 -91 1123 -41 
Q 819 9 494 109 
L 494 744 
Q 775 591 1075 516 
Q 1375 441 1709 441 
Q 2250 441 2565 725 
Q 2881 1009 2881 1497 
Q 2881 1984 2565 2268 
Q 2250 2553 1709 2553 
Q 1456 2553 1204 2497 
Q 953 2441 691 2322 
L 691 4666 
z
" transform="scale(0.015625)"/>
       </defs>
       <use xlink:href="#DejaVuSans-30"/>
       <use xlink:href="#DejaVuSans-2e" x="63.623047"/>
       <use xlink:href="#DejaVuSans-30" x="95.410156"/>
       <use xlink:href="#DejaVuSans-30" x="159.033203"/>
       <use xlink:href="#DejaVuSans-35" x="222.65625"/>
       <use xlink:href="#DejaVuSans-32" x="286.279297"/>
       <use xlink:href="#DejaVuSans-35" x="349.902344"/>
      </g>
     </g>
    </g>
    <g id="ytick_2">
     <g id="line2d_7">
      <g>
       <use xlink:href="#m64a47900bc" x="63.653344" y="50.72835" style="stroke: #000000; stroke-width: 0.8"/>
      </g>
     </g>
     <g id="text_7">
      <!-- 0.00550 -->
      <g transform="translate(19.435531 54.147647) scale(0.09 -0.09)">
       <use xlink:href="#DejaVuSans-30"/>
       <use xlink:href="#DejaVuSans-2e" x="63.623047"/>
       <use xlink:href="#DejaVuSans-30" x="95.410156"/>
       <use xlink:href="#DejaVuSans-30" x="159.033203"/>
       <use xlink:href="#DejaVuSans-35" x="222.65625"/>
       <use xlink:href="#DejaVuSans-35" x="286.279297"/>
       <use xlink:href="#DejaVuSans-30" x="349.902344"/>
      </g>
     </g>
    </g>
    <g id="ytick_3">
     <g id="line2d_8">
      <g>
       <use xlink:href="#m64a47900bc" x="63.653344" y="28.95555" style="stroke: #000000; stroke-width: 0.8"/>
      </g>
     </g>
     <g id="text_8">
      <!-- 0.00575 -->
      <g transform="translate(19.435531 32.374847) scale(0.09 -0.09)">
       <use xlink:href="#DejaVuSans-30"/>
       <use xlink:href="#DejaVuSans-2e" x="63.623047"/>
       <use xlink:href="#DejaVuSans-30" x="95.410156"/>
       <use xlink:href="#DejaVuSans-30" x="159.033203"/>
       <use xlink:href="#DejaVuSans-35" x="222.65625"/>
       <use xlink:href="#DejaVuSans-37" x="286.279297"/>
       <use xlink:href="#DejaVuSans-35" x="349.902344"/>
      </g>
     </g>
    </g>
    <g id="text_9">
     <!-- Probability [ratio] -->
     <g transform="translate(13.771781 80.648075) rotate(-90) scale(0.08 -0.08)">
      <defs>
       <path id="DejaVuSans-50" d="M 1259 4147 
L 1259 2394 
L 2053 2394 
Q 2494 2394 2734 2622 
Q 2975 2850 2975 3272 
Q 2975 3691 2734 3919 
Q 2494 4147 2053 4147 
L 1259 4147 
z
M 628 4666 
L 2053 4666 
Q 2838 4666 3239 4311 
Q 3641 3956 3641 3272 
Q 3641 2581 3239 2228 
Q 2838 1875 2053 1875 
L 1259 1875 
L 1259 0 
L 628 0 
L 628 4666 
z
" transform="scale(0.015625)"/>
       <path id="DejaVuSans-72" d="M 2631 2963 
Q 2534 3019 2420 3045 
Q 2306 3072 2169 3072 
Q 1681 3072 1420 2755 
Q 1159 2438 1159 1844 
L 1159 0 
L 581 0 
L 581 3500 
L 1159 3500 
L 1159 2956 
Q 1341 3275 1631 3429 
Q 1922 3584 2338 3584 
Q 2397 3584 2469 3576 
Q 2541 3569 2628 3553 
L 2631 2963 
z
" transform="scale(0.015625)"/>
       <path id="DejaVuSans-6f" d="M 1959 3097 
Q 1497 3097 1228 2736 
Q 959 2375 959 1747 
Q 959 1119 1226 758 
Q 1494 397 1959 397 
Q 2419 397 2687 759 
Q 2956 1122 2956 1747 
Q 2956 2369 2687 2733 
Q 2419 3097 1959 3097 
z
M 1959 3584 
Q 2709 3584 3137 3096 
Q 3566 2609 3566 1747 
Q 3566 888 3137 398 
Q 2709 -91 1959 -91 
Q 1206 -91 779 398 
Q 353 888 353 1747 
Q 353 2609 779 3096 
Q 1206 3584 1959 3584 
z
" transform="scale(0.015625)"/>
       <path id="DejaVuSans-62" d="M 3116 1747 
Q 3116 2381 2855 2742 
Q 2594 3103 2138 3103 
Q 1681 3103 1420 2742 
Q 1159 2381 1159 1747 
Q 1159 1113 1420 752 
Q 1681 391 2138 391 
Q 2594 391 2855 752 
Q 3116 1113 3116 1747 
z
M 1159 2969 
Q 1341 3281 1617 3432 
Q 1894 3584 2278 3584 
Q 2916 3584 3314 3078 
Q 3713 2572 3713 1747 
Q 3713 922 3314 415 
Q 2916 -91 2278 -91 
Q 1894 -91 1617 61 
Q 1341 213 1159 525 
L 1159 0 
L 581 0 
L 581 4863 
L 1159 4863 
L 1159 2969 
z
" transform="scale(0.015625)"/>
       <path id="DejaVuSans-61" d="M 2194 1759 
Q 1497 1759 1228 1600 
Q 959 1441 959 1056 
Q 959 750 1161 570 
Q 1363 391 1709 391 
Q 2188 391 2477 730 
Q 2766 1069 2766 1631 
L 2766 1759 
L 2194 1759 
z
M 3341 1997 
L 3341 0 
L 2766 0 
L 2766 531 
Q 2569 213 2275 61 
Q 1981 -91 1556 -91 
Q 1019 -91 701 211 
Q 384 513 384 1019 
Q 384 1609 779 1909 
Q 1175 2209 1959 2209 
L 2766 2209 
L 2766 2266 
Q 2766 2663 2505 2880 
Q 2244 3097 1772 3097 
Q 1472 3097 1187 3025 
Q 903 2953 641 2809 
L 641 3341 
Q 956 3463 1253 3523 
Q 1550 3584 1831 3584 
Q 2591 3584 2966 3190 
Q 3341 2797 3341 1997 
z
" transform="scale(0.015625)"/>
       <path id="DejaVuSans-69" d="M 603 3500 
L 1178 3500 
L 1178 0 
L 603 0 
L 603 3500 
z
M 603 4863 
L 1178 4863 
L 1178 4134 
L 603 4134 
L 603 4863 
z
" transform="scale(0.015625)"/>
       <path id="DejaVuSans-6c" d="M 603 4863 
L 1178 4863 
L 1178 0 
L 603 0 
L 603 4863 
z
" transform="scale(0.015625)"/>
       <path id="DejaVuSans-74" d="M 1172 4494 
L 1172 3500 
L 2356 3500 
L 2356 3053 
L 1172 3053 
L 1172 1153 
Q 1172 725 1289 603 
Q 1406 481 1766 481 
L 2356 481 
L 2356 0 
L 1766 0 
Q 1100 0 847 248 
Q 594 497 594 1153 
L 594 3053 
L 172 3053 
L 172 3500 
L 594 3500 
L 594 4494 
L 1172 4494 
z
" transform="scale(0.015625)"/>
       <path id="DejaVuSans-79" d="M 2059 -325 
Q 1816 -950 1584 -1140 
Q 1353 -1331 966 -1331 
L 506 -1331 
L 506 -850 
L 844 -850 
Q 1081 -850 1212 -737 
Q 1344 -625 1503 -206 
L 1606 56 
L 191 3500 
L 800 3500 
L 1894 763 
L 2988 3500 
L 3597 3500 
L 2059 -325 
z
" transform="scale(0.015625)"/>
       <path id="DejaVuSans-20" transform="scale(0.015625)"/>
       <path id="DejaVuSans-5b" d="M 550 4863 
L 1875 4863 
L 1875 4416 
L 1125 4416 
L 1125 -397 
L 1875 -397 
L 1875 -844 
L 550 -844 
L 550 4863 
z
" transform="scale(0.015625)"/>
       <path id="DejaVuSans-5d" d="M 1947 4863 
L 1947 -844 
L 622 -844 
L 622 -397 
L 1369 -397 
L 1369 4416 
L 622 4416 
L 622 4863 
L 1947 4863 
z
" transform="scale(0.015625)"/>
      </defs>
      <use xlink:href="#DejaVuSans-50"/>
      <use xlink:href="#DejaVuSans-72" x="58.552734"/>
      <use xlink:href="#DejaVuSans-6f" x="97.416016"/>
      <use xlink:href="#DejaVuSans-62" x="158.597656"/>
      <use xlink:href="#DejaVuSans-61" x="222.074219"/>
      <use xlink:href="#DejaVuSans-62" x="283.353516"/>
      <use xlink:href="#DejaVuSans-69" x="346.830078"/>
      <use xlink:href="#DejaVuSans-6c" x="374.613281"/>
      <use xlink:href="#DejaVuSans-69" x="402.396484"/>
      <use xlink:href="#DejaVuSans-74" x="430.179688"/>
      <use xlink:href="#DejaVuSans-79" x="469.388672"/>
      <use xlink:href="#DejaVuSans-20" x="528.568359"/>
      <use xlink:href="#DejaVuSans-5b" x="560.355469"/>
      <use xlink:href="#DejaVuSans-72" x="599.369141"/>
      <use xlink:href="#DejaVuSans-61" x="640.482422"/>
      <use xlink:href="#DejaVuSans-74" x="701.761719"/>
      <use xlink:href="#DejaVuSans-69" x="740.970703"/>
      <use xlink:href="#DejaVuSans-6f" x="768.753906"/>
      <use xlink:href="#DejaVuSans-5d" x="829.935547"/>
     </g>
    </g>
   </g>
   <g id="LineCollection_1">
    <path d="M 63.653344 45.88995 
L 341.103344 45.88995 
" clip-path="url(#p3183777f3b)" style="fill: none; stroke: #000000"/>
   </g>
   <g id="patch_3">
    <path d="M 63.653344 72.50115 
L 63.653344 19.27875 
" style="fill: none; stroke: #000000; stroke-width: 0.8; stroke-linejoin: miter; stroke-linecap: square"/>
   </g>
   <g id="patch_4">
    <path d="M 63.653344 72.50115 
L 342.653344 72.50115 
" style="fill: none; stroke: #000000; stroke-width: 0.8; stroke-linejoin: miter; stroke-linecap: square"/>
   </g>
   <g id="text_10">
    <!-- Prior distribution over motion directions -->
    <g transform="translate(123.547094 13.27875) scale(0.08 -0.08)">
     <defs>
      <path id="DejaVuSans-64" d="M 2906 2969 
L 2906 4863 
L 3481 4863 
L 3481 0 
L 2906 0 
L 2906 525 
Q 2725 213 2448 61 
Q 2172 -91 1784 -91 
Q 1150 -91 751 415 
Q 353 922 353 1747 
Q 353 2572 751 3078 
Q 1150 3584 1784 3584 
Q 2172 3584 2448 3432 
Q 2725 3281 2906 2969 
z
M 947 1747 
Q 947 1113 1208 752 
Q 1469 391 1925 391 
Q 2381 391 2643 752 
Q 2906 1113 2906 1747 
Q 2906 2381 2643 2742 
Q 2381 3103 1925 3103 
Q 1469 3103 1208 2742 
Q 947 2381 947 1747 
z
" transform="scale(0.015625)"/>
      <path id="DejaVuSans-73" d="M 2834 3397 
L 2834 2853 
Q 2591 2978 2328 3040 
Q 2066 3103 1784 3103 
Q 1356 3103 1142 2972 
Q 928 2841 928 2578 
Q 928 2378 1081 2264 
Q 1234 2150 1697 2047 
L 1894 2003 
Q 2506 1872 2764 1633 
Q 3022 1394 3022 966 
Q 3022 478 2636 193 
Q 2250 -91 1575 -91 
Q 1294 -91 989 -36 
Q 684 19 347 128 
L 347 722 
Q 666 556 975 473 
Q 1284 391 1588 391 
Q 1994 391 2212 530 
Q 2431 669 2431 922 
Q 2431 1156 2273 1281 
Q 2116 1406 1581 1522 
L 1381 1569 
Q 847 1681 609 1914 
Q 372 2147 372 2553 
Q 372 3047 722 3315 
Q 1072 3584 1716 3584 
Q 2034 3584 2315 3537 
Q 2597 3491 2834 3397 
z
" transform="scale(0.015625)"/>
      <path id="DejaVuSans-75" d="M 544 1381 
L 544 3500 
L 1119 3500 
L 1119 1403 
Q 1119 906 1312 657 
Q 1506 409 1894 409 
Q 2359 409 2629 706 
Q 2900 1003 2900 1516 
L 2900 3500 
L 3475 3500 
L 3475 0 
L 2900 0 
L 2900 538 
Q 2691 219 2414 64 
Q 2138 -91 1772 -91 
Q 1169 -91 856 284 
Q 544 659 544 1381 
z
M 1991 3584 
L 1991 3584 
z
" transform="scale(0.015625)"/>
      <path id="DejaVuSans-6e" d="M 3513 2113 
L 3513 0 
L 2938 0 
L 2938 2094 
Q 2938 2591 2744 2837 
Q 2550 3084 2163 3084 
Q 1697 3084 1428 2787 
Q 1159 2491 1159 1978 
L 1159 0 
L 581 0 
L 581 3500 
L 1159 3500 
L 1159 2956 
Q 1366 3272 1645 3428 
Q 1925 3584 2291 3584 
Q 2894 3584 3203 3211 
Q 3513 2838 3513 2113 
z
" transform="scale(0.015625)"/>
      <path id="DejaVuSans-76" d="M 191 3500 
L 800 3500 
L 1894 563 
L 2988 3500 
L 3597 3500 
L 2284 0 
L 1503 0 
L 191 3500 
z
" transform="scale(0.015625)"/>
      <path id="DejaVuSans-65" d="M 3597 1894 
L 3597 1613 
L 953 1613 
Q 991 1019 1311 708 
Q 1631 397 2203 397 
Q 2534 397 2845 478 
Q 3156 559 3463 722 
L 3463 178 
Q 3153 47 2828 -22 
Q 2503 -91 2169 -91 
Q 1331 -91 842 396 
Q 353 884 353 1716 
Q 353 2575 817 3079 
Q 1281 3584 2069 3584 
Q 2775 3584 3186 3129 
Q 3597 2675 3597 1894 
z
M 3022 2063 
Q 3016 2534 2758 2815 
Q 2500 3097 2075 3097 
Q 1594 3097 1305 2825 
Q 1016 2553 972 2059 
L 3022 2063 
z
" transform="scale(0.015625)"/>
      <path id="DejaVuSans-6d" d="M 3328 2828 
Q 3544 3216 3844 3400 
Q 4144 3584 4550 3584 
Q 5097 3584 5394 3201 
Q 5691 2819 5691 2113 
L 5691 0 
L 5113 0 
L 5113 2094 
Q 5113 2597 4934 2840 
Q 4756 3084 4391 3084 
Q 3944 3084 3684 2787 
Q 3425 2491 3425 1978 
L 3425 0 
L 2847 0 
L 2847 2094 
Q 2847 2600 2669 2842 
Q 2491 3084 2119 3084 
Q 1678 3084 1418 2786 
Q 1159 2488 1159 1978 
L 1159 0 
L 581 0 
L 581 3500 
L 1159 3500 
L 1159 2956 
Q 1356 3278 1631 3431 
Q 1906 3584 2284 3584 
Q 2666 3584 2933 3390 
Q 3200 3197 3328 2828 
z
" transform="scale(0.015625)"/>
      <path id="DejaVuSans-63" d="M 3122 3366 
L 3122 2828 
Q 2878 2963 2633 3030 
Q 2388 3097 2138 3097 
Q 1578 3097 1268 2742 
Q 959 2388 959 1747 
Q 959 1106 1268 751 
Q 1578 397 2138 397 
Q 2388 397 2633 464 
Q 2878 531 3122 666 
L 3122 134 
Q 2881 22 2623 -34 
Q 2366 -91 2075 -91 
Q 1284 -91 818 406 
Q 353 903 353 1747 
Q 353 2603 823 3093 
Q 1294 3584 2113 3584 
Q 2378 3584 2631 3529 
Q 2884 3475 3122 3366 
z
" transform="scale(0.015625)"/>
     </defs>
     <use xlink:href="#DejaVuSans-50"/>
     <use xlink:href="#DejaVuSans-72" x="58.552734"/>
     <use xlink:href="#DejaVuSans-69" x="99.666016"/>
     <use xlink:href="#DejaVuSans-6f" x="127.449219"/>
     <use xlink:href="#DejaVuSans-72" x="188.630859"/>
     <use xlink:href="#DejaVuSans-20" x="229.744141"/>
     <use xlink:href="#DejaVuSans-64" x="261.53125"/>
     <use xlink:href="#DejaVuSans-69" x="325.007812"/>
     <use xlink:href="#DejaVuSans-73" x="352.791016"/>
     <use xlink:href="#DejaVuSans-74" x="404.890625"/>
     <use xlink:href="#DejaVuSans-72" x="444.099609"/>
     <use xlink:href="#DejaVuSans-69" x="485.212891"/>
     <use xlink:href="#DejaVuSans-62" x="512.996094"/>
     <use xlink:href="#DejaVuSans-75" x="576.472656"/>
     <use xlink:href="#DejaVuSans-74" x="639.851562"/>
     <use xlink:href="#DejaVuSans-69" x="679.060547"/>
     <use xlink:href="#DejaVuSans-6f" x="706.84375"/>
     <use xlink:href="#DejaVuSans-6e" x="768.025391"/>
     <use xlink:href="#DejaVuSans-20" x="831.404297"/>
     <use xlink:href="#DejaVuSans-6f" x="863.191406"/>
     <use xlink:href="#DejaVuSans-76" x="924.373047"/>
     <use xlink:href="#DejaVuSans-65" x="983.552734"/>
     <use xlink:href="#DejaVuSans-72" x="1045.076172"/>
     <use xlink:href="#DejaVuSans-20" x="1086.189453"/>
     <use xlink:href="#DejaVuSans-6d" x="1117.976562"/>
     <use xlink:href="#DejaVuSans-6f" x="1215.388672"/>
     <use xlink:href="#DejaVuSans-74" x="1276.570312"/>
     <use xlink:href="#DejaVuSans-69" x="1315.779297"/>
     <use xlink:href="#DejaVuSans-6f" x="1343.5625"/>
     <use xlink:href="#DejaVuSans-6e" x="1404.744141"/>
     <use xlink:href="#DejaVuSans-20" x="1468.123047"/>
     <use xlink:href="#DejaVuSans-64" x="1499.910156"/>
     <use xlink:href="#DejaVuSans-69" x="1563.386719"/>
     <use xlink:href="#DejaVuSans-72" x="1591.169922"/>
     <use xlink:href="#DejaVuSans-65" x="1630.033203"/>
     <use xlink:href="#DejaVuSans-63" x="1691.556641"/>
     <use xlink:href="#DejaVuSans-74" x="1746.537109"/>
     <use xlink:href="#DejaVuSans-69" x="1785.746094"/>
     <use xlink:href="#DejaVuSans-6f" x="1813.529297"/>
     <use xlink:href="#DejaVuSans-6e" x="1874.710938"/>
     <use xlink:href="#DejaVuSans-73" x="1938.089844"/>
    </g>
   </g>
  </g>
  <g id="axes_2">
   <g id="patch_5">
    <path d="M 63.653344 165.64035 
L 342.653344 165.64035 
L 342.653344 112.41795 
L 63.653344 112.41795 
z
" style="fill: #ffffff"/>
   </g>
   <g id="matplotlib.axis_3">
    <g id="xtick_6">
     <g id="line2d_9">
      <g>
       <use xlink:href="#md3ba1337f2" x="63.653344" y="165.64035" style="stroke: #000000; stroke-width: 0.8"/>
      </g>
     </g>
     <g id="text_11">
      <!-- 0 -->
      <g transform="translate(60.790219 179.478944) scale(0.09 -0.09)">
       <use xlink:href="#DejaVuSans-30"/>
      </g>
     </g>
    </g>
    <g id="xtick_7">
     <g id="line2d_10">
      <g>
       <use xlink:href="#md3ba1337f2" x="133.403344" y="165.64035" style="stroke: #000000; stroke-width: 0.8"/>
      </g>
     </g>
     <g id="text_12">
      <!-- 90 -->
      <g transform="translate(127.677094 179.478944) scale(0.09 -0.09)">
       <use xlink:href="#DejaVuSans-39"/>
       <use xlink:href="#DejaVuSans-30" x="63.623047"/>
      </g>
     </g>
    </g>
    <g id="xtick_8">
     <g id="line2d_11">
      <g>
       <use xlink:href="#md3ba1337f2" x="203.153344" y="165.64035" style="stroke: #000000; stroke-width: 0.8"/>
      </g>
     </g>
     <g id="text_13">
      <!-- 180 -->
      <g transform="translate(194.563969 179.478944) scale(0.09 -0.09)">
       <use xlink:href="#DejaVuSans-31"/>
       <use xlink:href="#DejaVuSans-38" x="63.623047"/>
       <use xlink:href="#DejaVuSans-30" x="127.246094"/>
      </g>
     </g>
    </g>
    <g id="xtick_9">
     <g id="line2d_12">
      <g>
       <use xlink:href="#md3ba1337f2" x="272.903344" y="165.64035" style="stroke: #000000; stroke-width: 0.8"/>
      </g>
     </g>
     <g id="text_14">
      <!-- 270 -->
      <g transform="translate(264.313969 179.478944) scale(0.09 -0.09)">
       <use xlink:href="#DejaVuSans-32"/>
       <use xlink:href="#DejaVuSans-37" x="63.623047"/>
       <use xlink:href="#DejaVuSans-30" x="127.246094"/>
      </g>
     </g>
    </g>
    <g id="xtick_10">
     <g id="line2d_13">
      <g>
       <use xlink:href="#md3ba1337f2" x="342.653344" y="165.64035" style="stroke: #000000; stroke-width: 0.8"/>
      </g>
     </g>
     <g id="text_15">
      <!-- 360 -->
      <g transform="translate(334.063969 179.478944) scale(0.09 -0.09)">
       <use xlink:href="#DejaVuSans-33"/>
       <use xlink:href="#DejaVuSans-36" x="63.623047"/>
       <use xlink:href="#DejaVuSans-30" x="127.246094"/>
      </g>
     </g>
    </g>
   </g>
   <g id="matplotlib.axis_4">
    <g id="ytick_4">
     <g id="line2d_14">
      <g>
       <use xlink:href="#m64a47900bc" x="63.653344" y="165.64035" style="stroke: #000000; stroke-width: 0.8"/>
      </g>
     </g>
     <g id="text_16">
      <!-- 0 -->
      <g transform="translate(50.927094 169.059647) scale(0.09 -0.09)">
       <use xlink:href="#DejaVuSans-30"/>
      </g>
     </g>
    </g>
    <g id="ytick_5">
     <g id="line2d_15">
      <g>
       <use xlink:href="#m64a47900bc" x="63.653344" y="147.89955" style="stroke: #000000; stroke-width: 0.8"/>
      </g>
     </g>
     <g id="text_17">
      <!-- 25 -->
      <g transform="translate(45.200844 151.318847) scale(0.09 -0.09)">
       <use xlink:href="#DejaVuSans-32"/>
       <use xlink:href="#DejaVuSans-35" x="63.623047"/>
      </g>
     </g>
    </g>
    <g id="ytick_6">
     <g id="line2d_16">
      <g>
       <use xlink:href="#m64a47900bc" x="63.653344" y="130.15875" style="stroke: #000000; stroke-width: 0.8"/>
      </g>
     </g>
     <g id="text_18">
      <!-- 50 -->
      <g transform="translate(45.200844 133.578047) scale(0.09 -0.09)">
       <use xlink:href="#DejaVuSans-35"/>
       <use xlink:href="#DejaVuSans-30" x="63.623047"/>
      </g>
     </g>
    </g>
    <g id="ytick_7">
     <g id="line2d_17">
      <g>
       <use xlink:href="#m64a47900bc" x="63.653344" y="112.41795" style="stroke: #000000; stroke-width: 0.8"/>
      </g>
     </g>
     <g id="text_19">
      <!-- 75 -->
      <g transform="translate(45.200844 115.837247) scale(0.09 -0.09)">
       <use xlink:href="#DejaVuSans-37"/>
       <use xlink:href="#DejaVuSans-35" x="63.623047"/>
      </g>
     </g>
    </g>
    <g id="text_20">
     <!-- Tuning -->
     <g transform="translate(14.038594 153.759619) rotate(-90) scale(0.09 -0.09)">
      <defs>
       <path id="DejaVuSans-54" d="M -19 4666 
L 3928 4666 
L 3928 4134 
L 2272 4134 
L 2272 0 
L 1638 0 
L 1638 4134 
L -19 4134 
L -19 4666 
z
" transform="scale(0.015625)"/>
       <path id="DejaVuSans-67" d="M 2906 1791 
Q 2906 2416 2648 2759 
Q 2391 3103 1925 3103 
Q 1463 3103 1205 2759 
Q 947 2416 947 1791 
Q 947 1169 1205 825 
Q 1463 481 1925 481 
Q 2391 481 2648 825 
Q 2906 1169 2906 1791 
z
M 3481 434 
Q 3481 -459 3084 -895 
Q 2688 -1331 1869 -1331 
Q 1566 -1331 1297 -1286 
Q 1028 -1241 775 -1147 
L 775 -588 
Q 1028 -725 1275 -790 
Q 1522 -856 1778 -856 
Q 2344 -856 2625 -561 
Q 2906 -266 2906 331 
L 2906 616 
Q 2728 306 2450 153 
Q 2172 0 1784 0 
Q 1141 0 747 490 
Q 353 981 353 1791 
Q 353 2603 747 3093 
Q 1141 3584 1784 3584 
Q 2172 3584 2450 3431 
Q 2728 3278 2906 2969 
L 2906 3500 
L 3481 3500 
L 3481 434 
z
" transform="scale(0.015625)"/>
      </defs>
      <use xlink:href="#DejaVuSans-54"/>
      <use xlink:href="#DejaVuSans-75" x="45.958984"/>
      <use xlink:href="#DejaVuSans-6e" x="109.337891"/>
      <use xlink:href="#DejaVuSans-69" x="172.716797"/>
      <use xlink:href="#DejaVuSans-6e" x="200.5"/>
      <use xlink:href="#DejaVuSans-67" x="263.878906"/>
     </g>
     <!-- curve [$Hz$] -->
     <g transform="translate(24.116625 162.33915) rotate(-90) scale(0.09 -0.09)">
      <defs>
       <path id="DejaVuSans-Oblique-48" d="M 1081 4666 
L 1716 4666 
L 1344 2753 
L 3634 2753 
L 4006 4666 
L 4641 4666 
L 3731 0 
L 3097 0 
L 3531 2222 
L 1241 2222 
L 806 0 
L 172 0 
L 1081 4666 
z
" transform="scale(0.015625)"/>
       <path id="DejaVuSans-Oblique-7a" d="M 744 3500 
L 3475 3500 
L 3372 2975 
L 738 459 
L 2913 459 
L 2822 0 
L -19 0 
L 84 525 
L 2719 3041 
L 653 3041 
L 744 3500 
z
" transform="scale(0.015625)"/>
      </defs>
      <use xlink:href="#DejaVuSans-63" transform="translate(0 0.015625)"/>
      <use xlink:href="#DejaVuSans-75" transform="translate(54.980469 0.015625)"/>
      <use xlink:href="#DejaVuSans-72" transform="translate(118.359375 0.015625)"/>
      <use xlink:href="#DejaVuSans-76" transform="translate(159.472656 0.015625)"/>
      <use xlink:href="#DejaVuSans-65" transform="translate(218.652344 0.015625)"/>
      <use xlink:href="#DejaVuSans-20" transform="translate(280.175781 0.015625)"/>
      <use xlink:href="#DejaVuSans-5b" transform="translate(311.962891 0.015625)"/>
      <use xlink:href="#DejaVuSans-Oblique-48" transform="translate(350.976562 0.015625)"/>
      <use xlink:href="#DejaVuSans-Oblique-7a" transform="translate(426.171875 0.015625)"/>
      <use xlink:href="#DejaVuSans-5d" transform="translate(478.662109 0.015625)"/>
     </g>
    </g>
   </g>
   <g id="line2d_18">
    <path d="M 63.653344 151.952498 
L 66.753344 152.066992 
L 69.853344 152.404218 
L 72.953344 152.946018 
L 76.053344 153.664066 
L 80.703344 154.991855 
L 88.453344 157.5349 
L 96.203344 159.995175 
L 100.853344 161.266779 
L 105.503344 162.336533 
L 110.153344 163.19944 
L 114.803344 163.870716 
L 121.003344 164.514311 
L 127.203344 164.936971 
L 134.953344 165.254424 
L 145.803344 165.472089 
L 164.403344 165.592909 
L 217.103344 165.623963 
L 257.403344 165.506515 
L 271.353344 165.254424 
L 280.653344 164.848181 
L 286.853344 164.376947 
L 293.053344 163.666754 
L 297.703344 162.934163 
L 302.353344 162.003189 
L 307.003344 160.864335 
L 311.653344 159.531336 
L 319.403344 157.016537 
L 327.153344 154.522497 
L 331.803344 153.285111 
L 334.903344 152.651106 
L 338.003344 152.208635 
L 341.103344 151.981221 
L 341.103344 151.981221 
" clip-path="url(#p083fa78c65)" style="fill: none; stroke: #440154; stroke-linecap: square"/>
   </g>
   <g id="line2d_19">
    <path d="M 63.653344 158.555586 
L 77.603344 154.078186 
L 82.253344 152.946018 
L 85.353344 152.404218 
L 88.453344 152.066992 
L 91.553344 151.952498 
L 94.653344 152.066992 
L 97.753344 152.404218 
L 100.853344 152.946018 
L 103.953344 153.664066 
L 108.603344 154.991855 
L 116.353344 157.5349 
L 124.103344 159.995175 
L 128.753344 161.266779 
L 133.403344 162.336533 
L 138.053344 163.19944 
L 142.703344 163.870716 
L 148.903344 164.514311 
L 155.103344 164.936971 
L 162.853344 165.254424 
L 173.703344 165.472089 
L 192.303344 165.592909 
L 245.003344 165.623963 
L 285.303344 165.506515 
L 299.253344 165.254424 
L 308.553344 164.848181 
L 314.753344 164.376947 
L 320.953344 163.666754 
L 325.603344 162.934163 
L 330.253344 162.003189 
L 334.903344 160.864335 
L 339.553344 159.531336 
L 341.103344 159.050627 
L 341.103344 159.050627 
" clip-path="url(#p083fa78c65)" style="fill: none; stroke: #481467; stroke-linecap: square"/>
   </g>
   <g id="line2d_20">
    <path d="M 63.653344 164.376947 
L 69.853344 163.666754 
L 74.503344 162.934163 
L 79.153344 162.003189 
L 83.803344 160.864335 
L 88.453344 159.531336 
L 96.203344 157.016537 
L 103.953344 154.522497 
L 108.603344 153.285111 
L 111.703344 152.651106 
L 114.803344 152.208635 
L 117.903344 151.981221 
L 121.003344 151.981221 
L 124.103344 152.208635 
L 127.203344 152.651106 
L 130.303344 153.285111 
L 134.953344 154.522497 
L 141.153344 156.498345 
L 150.453344 159.531336 
L 155.103344 160.864335 
L 159.753344 162.003189 
L 164.403344 162.934163 
L 169.053344 163.666754 
L 175.253344 164.376947 
L 181.453344 164.848181 
L 189.203344 165.205071 
L 200.053344 165.451345 
L 217.103344 165.583002 
L 262.053344 165.626391 
L 311.653344 165.520739 
L 325.603344 165.298132 
L 334.903344 164.936971 
L 341.103344 164.514311 
L 341.103344 164.514311 
" clip-path="url(#p083fa78c65)" style="fill: none; stroke: #482576; stroke-linecap: square"/>
   </g>
   <g id="line2d_21">
    <path d="M 63.653344 165.490383 
L 76.053344 165.254424 
L 85.353344 164.848181 
L 91.553344 164.376947 
L 97.753344 163.666754 
L 102.403344 162.934163 
L 107.053344 162.003189 
L 111.703344 160.864335 
L 116.353344 159.531336 
L 124.103344 157.016537 
L 131.853344 154.522497 
L 136.503344 153.285111 
L 139.603344 152.651106 
L 142.703344 152.208635 
L 145.803344 151.981221 
L 148.903344 151.981221 
L 152.003344 152.208635 
L 155.103344 152.651106 
L 158.203344 153.285111 
L 162.853344 154.522497 
L 169.053344 156.498345 
L 178.353344 159.531336 
L 183.003344 160.864335 
L 187.653344 162.003189 
L 192.303344 162.934163 
L 196.953344 163.666754 
L 203.153344 164.376947 
L 209.353344 164.848181 
L 217.103344 165.205071 
L 227.953344 165.451345 
L 245.003344 165.583002 
L 289.953344 165.626391 
L 339.553344 165.520739 
L 341.103344 165.506515 
L 341.103344 165.506515 
" clip-path="url(#p083fa78c65)" style="fill: none; stroke: #453581; stroke-linecap: square"/>
   </g>
   <g id="line2d_22">
    <path d="M 63.653344 165.613607 
L 93.103344 165.472089 
L 105.503344 165.205071 
L 113.253344 164.848181 
L 119.453344 164.376947 
L 125.653344 163.666754 
L 130.303344 162.934163 
L 134.953344 162.003189 
L 139.603344 160.864335 
L 144.253344 159.531336 
L 152.003344 157.016537 
L 159.753344 154.522497 
L 164.403344 153.285111 
L 167.503344 152.651106 
L 170.603344 152.208635 
L 173.703344 151.981221 
L 176.803344 151.981221 
L 179.903344 152.208635 
L 183.003344 152.651106 
L 186.103344 153.285111 
L 190.753344 154.522497 
L 196.953344 156.498345 
L 206.253344 159.531336 
L 210.903344 160.864335 
L 215.553344 162.003189 
L 220.203344 162.934163 
L 224.853344 163.666754 
L 231.053344 164.376947 
L 237.253344 164.848181 
L 245.003344 165.205071 
L 255.853344 165.451345 
L 272.903344 165.583002 
L 317.853344 165.626391 
L 341.103344 165.615391 
L 341.103344 165.615391 
" clip-path="url(#p083fa78c65)" style="fill: none; stroke: #404588; stroke-linecap: square"/>
   </g>
   <g id="line2d_23">
    <path d="M 63.653344 165.626508 
L 116.353344 165.520739 
L 130.303344 165.298132 
L 139.603344 164.936971 
L 145.803344 164.514311 
L 152.003344 163.870716 
L 156.653344 163.19944 
L 161.303344 162.336533 
L 165.953344 161.266779 
L 170.603344 159.995175 
L 176.803344 158.0492 
L 187.653344 154.522497 
L 192.303344 153.285111 
L 195.403344 152.651106 
L 198.503344 152.208635 
L 201.603344 151.981221 
L 204.703344 151.981221 
L 207.803344 152.208635 
L 210.903344 152.651106 
L 214.003344 153.285111 
L 218.653344 154.522497 
L 224.853344 156.498345 
L 234.153344 159.531336 
L 238.803344 160.864335 
L 243.453344 162.003189 
L 248.103344 162.934163 
L 252.753344 163.666754 
L 258.953344 164.376947 
L 265.153344 164.848181 
L 272.903344 165.205071 
L 283.753344 165.451345 
L 300.803344 165.583002 
L 341.103344 165.626479 
L 341.103344 165.626479 
" clip-path="url(#p083fa78c65)" style="fill: none; stroke: #3a538b; stroke-linecap: square"/>
   </g>
   <g id="line2d_24">
    <path d="M 63.653344 165.613607 
L 133.403344 165.583002 
L 153.553344 165.401174 
L 164.403344 165.086703 
L 172.153344 164.637901 
L 178.353344 164.056308 
L 183.003344 163.443333 
L 187.653344 162.646727 
L 192.303344 161.646555 
L 196.953344 160.440057 
L 203.153344 158.555586 
L 217.103344 154.078186 
L 221.753344 152.946018 
L 224.853344 152.404218 
L 227.953344 152.066992 
L 231.053344 151.952498 
L 234.153344 152.066992 
L 237.253344 152.404218 
L 240.353344 152.946018 
L 243.453344 153.664066 
L 248.103344 154.991855 
L 255.853344 157.5349 
L 263.603344 159.995175 
L 268.253344 161.266779 
L 272.903344 162.336533 
L 277.553344 163.19944 
L 282.203344 163.870716 
L 288.403344 164.514311 
L 294.603344 164.936971 
L 302.353344 165.254424 
L 313.203344 165.472089 
L 331.803344 165.592909 
L 341.103344 165.611598 
L 341.103344 165.611598 
" clip-path="url(#p083fa78c65)" style="fill: none; stroke: #34618d; stroke-linecap: square"/>
   </g>
   <g id="line2d_25">
    <path d="M 63.653344 165.490383 
L 83.803344 165.600679 
L 144.253344 165.616975 
L 175.253344 165.490383 
L 187.653344 165.254424 
L 196.953344 164.848181 
L 203.153344 164.376947 
L 209.353344 163.666754 
L 214.003344 162.934163 
L 218.653344 162.003189 
L 223.303344 160.864335 
L 227.953344 159.531336 
L 235.703344 157.016537 
L 243.453344 154.522497 
L 248.103344 153.285111 
L 251.203344 152.651106 
L 254.303344 152.208635 
L 257.403344 151.981221 
L 260.503344 151.981221 
L 263.603344 152.208635 
L 266.703344 152.651106 
L 269.803344 153.285111 
L 274.453344 154.522497 
L 280.653344 156.498345 
L 289.953344 159.531336 
L 294.603344 160.864335 
L 299.253344 162.003189 
L 303.903344 162.934163 
L 308.553344 163.666754 
L 314.753344 164.376947 
L 320.953344 164.848181 
L 328.703344 165.205071 
L 339.553344 165.451345 
L 341.103344 165.472089 
L 341.103344 165.472089 
" clip-path="url(#p083fa78c65)" style="fill: none; stroke: #2e6e8e; stroke-linecap: square"/>
   </g>
   <g id="line2d_26">
    <path d="M 63.653344 164.376947 
L 69.853344 164.848181 
L 77.603344 165.205071 
L 88.453344 165.451345 
L 105.503344 165.583002 
L 150.453344 165.626391 
L 200.053344 165.520739 
L 214.003344 165.298132 
L 223.303344 164.936971 
L 229.503344 164.514311 
L 235.703344 163.870716 
L 240.353344 163.19944 
L 245.003344 162.336533 
L 249.653344 161.266779 
L 254.303344 159.995175 
L 260.503344 158.0492 
L 271.353344 154.522497 
L 276.003344 153.285111 
L 279.103344 152.651106 
L 282.203344 152.208635 
L 285.303344 151.981221 
L 288.403344 151.981221 
L 291.503344 152.208635 
L 294.603344 152.651106 
L 297.703344 153.285111 
L 302.353344 154.522497 
L 308.553344 156.498345 
L 317.853344 159.531336 
L 322.503344 160.864335 
L 327.153344 162.003189 
L 331.803344 162.934163 
L 336.453344 163.666754 
L 341.103344 164.224666 
L 341.103344 164.224666 
" clip-path="url(#p083fa78c65)" style="fill: none; stroke: #297b8e; stroke-linecap: square"/>
   </g>
   <g id="line2d_27">
    <path d="M 63.653344 158.555586 
L 69.853344 160.440057 
L 74.503344 161.646555 
L 79.153344 162.646727 
L 83.803344 163.443333 
L 88.453344 164.056308 
L 94.653344 164.637901 
L 102.403344 165.086703 
L 111.703344 165.370981 
L 125.653344 165.544349 
L 155.103344 165.620727 
L 223.303344 165.554111 
L 240.353344 165.3368 
L 249.653344 165.016175 
L 257.403344 164.514311 
L 263.603344 163.870716 
L 268.253344 163.19944 
L 272.903344 162.336533 
L 277.553344 161.266779 
L 282.203344 159.995175 
L 288.403344 158.0492 
L 299.253344 154.522497 
L 303.903344 153.285111 
L 307.003344 152.651106 
L 310.103344 152.208635 
L 313.203344 151.981221 
L 316.303344 151.981221 
L 319.403344 152.208635 
L 322.503344 152.651106 
L 325.603344 153.285111 
L 330.253344 154.522497 
L 336.453344 156.498345 
L 341.103344 158.0492 
L 341.103344 158.0492 
" clip-path="url(#p083fa78c65)" style="fill: none; stroke: #24878e; stroke-linecap: square"/>
   </g>
   <g id="patch_6">
    <path d="M 63.653344 165.64035 
L 63.653344 112.41795 
" style="fill: none; stroke: #000000; stroke-width: 0.8; stroke-linejoin: miter; stroke-linecap: square"/>
   </g>
   <g id="patch_7">
    <path d="M 63.653344 165.64035 
L 342.653344 165.64035 
" style="fill: none; stroke: #000000; stroke-width: 0.8; stroke-linejoin: miter; stroke-linecap: square"/>
   </g>
  </g>
  <g id="axes_3">
   <g id="patch_8">
    <path d="M 63.653344 258.77955 
L 342.653344 258.77955 
L 342.653344 205.55715 
L 63.653344 205.55715 
z
" style="fill: #ffffff"/>
   </g>
   <g id="matplotlib.axis_5">
    <g id="xtick_11">
     <g id="line2d_28">
      <g>
       <use xlink:href="#md3ba1337f2" x="63.653344" y="258.77955" style="stroke: #000000; stroke-width: 0.8"/>
      </g>
     </g>
     <g id="text_21">
      <!-- 0 -->
      <g transform="translate(60.790219 272.618144) scale(0.09 -0.09)">
       <use xlink:href="#DejaVuSans-30"/>
      </g>
     </g>
    </g>
    <g id="xtick_12">
     <g id="line2d_29">
      <g>
       <use xlink:href="#md3ba1337f2" x="133.403344" y="258.77955" style="stroke: #000000; stroke-width: 0.8"/>
      </g>
     </g>
     <g id="text_22">
      <!-- 90 -->
      <g transform="translate(127.677094 272.618144) scale(0.09 -0.09)">
       <use xlink:href="#DejaVuSans-39"/>
       <use xlink:href="#DejaVuSans-30" x="63.623047"/>
      </g>
     </g>
    </g>
    <g id="xtick_13">
     <g id="line2d_30">
      <g>
       <use xlink:href="#md3ba1337f2" x="203.153344" y="258.77955" style="stroke: #000000; stroke-width: 0.8"/>
      </g>
     </g>
     <g id="text_23">
      <!-- 180 -->
      <g transform="translate(194.563969 272.618144) scale(0.09 -0.09)">
       <use xlink:href="#DejaVuSans-31"/>
       <use xlink:href="#DejaVuSans-38" x="63.623047"/>
       <use xlink:href="#DejaVuSans-30" x="127.246094"/>
      </g>
     </g>
    </g>
    <g id="xtick_14">
     <g id="line2d_31">
      <g>
       <use xlink:href="#md3ba1337f2" x="272.903344" y="258.77955" style="stroke: #000000; stroke-width: 0.8"/>
      </g>
     </g>
     <g id="text_24">
      <!-- 270 -->
      <g transform="translate(264.313969 272.618144) scale(0.09 -0.09)">
       <use xlink:href="#DejaVuSans-32"/>
       <use xlink:href="#DejaVuSans-37" x="63.623047"/>
       <use xlink:href="#DejaVuSans-30" x="127.246094"/>
      </g>
     </g>
    </g>
    <g id="xtick_15">
     <g id="line2d_32">
      <g>
       <use xlink:href="#md3ba1337f2" x="342.653344" y="258.77955" style="stroke: #000000; stroke-width: 0.8"/>
      </g>
     </g>
     <g id="text_25">
      <!-- 360 -->
      <g transform="translate(334.063969 272.618144) scale(0.09 -0.09)">
       <use xlink:href="#DejaVuSans-33"/>
       <use xlink:href="#DejaVuSans-36" x="63.623047"/>
       <use xlink:href="#DejaVuSans-30" x="127.246094"/>
      </g>
     </g>
    </g>
   </g>
   <g id="matplotlib.axis_6">
    <g id="ytick_8">
     <g id="line2d_33">
      <g>
       <use xlink:href="#m64a47900bc" x="63.653344" y="258.77955" style="stroke: #000000; stroke-width: 0.8"/>
      </g>
     </g>
     <g id="text_26">
      <!-- 0 -->
      <g style="fill: #ff00ff" transform="translate(50.927094 262.198847) scale(0.09 -0.09)">
       <use xlink:href="#DejaVuSans-30"/>
      </g>
     </g>
    </g>
    <g id="ytick_9">
     <g id="line2d_34">
      <g>
       <use xlink:href="#m64a47900bc" x="63.653344" y="214.42755" style="stroke: #000000; stroke-width: 0.8"/>
      </g>
     </g>
     <g id="text_27">
      <!-- 5 -->
      <g style="fill: #ff00ff" transform="translate(50.927094 217.846847) scale(0.09 -0.09)">
       <use xlink:href="#DejaVuSans-35"/>
      </g>
     </g>
    </g>
    <g id="text_28">
     <!-- Sensitivity -->
     <g style="fill: #ff00ff" transform="translate(34.977344 255.595772) rotate(-90) scale(0.09 -0.09)">
      <defs>
       <path id="DejaVuSans-53" d="M 3425 4513 
L 3425 3897 
Q 3066 4069 2747 4153 
Q 2428 4238 2131 4238 
Q 1616 4238 1336 4038 
Q 1056 3838 1056 3469 
Q 1056 3159 1242 3001 
Q 1428 2844 1947 2747 
L 2328 2669 
Q 3034 2534 3370 2195 
Q 3706 1856 3706 1288 
Q 3706 609 3251 259 
Q 2797 -91 1919 -91 
Q 1588 -91 1214 -16 
Q 841 59 441 206 
L 441 856 
Q 825 641 1194 531 
Q 1563 422 1919 422 
Q 2459 422 2753 634 
Q 3047 847 3047 1241 
Q 3047 1584 2836 1778 
Q 2625 1972 2144 2069 
L 1759 2144 
Q 1053 2284 737 2584 
Q 422 2884 422 3419 
Q 422 4038 858 4394 
Q 1294 4750 2059 4750 
Q 2388 4750 2728 4690 
Q 3069 4631 3425 4513 
z
" transform="scale(0.015625)"/>
      </defs>
      <use xlink:href="#DejaVuSans-53"/>
      <use xlink:href="#DejaVuSans-65" x="63.476562"/>
      <use xlink:href="#DejaVuSans-6e" x="125"/>
      <use xlink:href="#DejaVuSans-73" x="188.378906"/>
      <use xlink:href="#DejaVuSans-69" x="240.478516"/>
      <use xlink:href="#DejaVuSans-74" x="268.261719"/>
      <use xlink:href="#DejaVuSans-69" x="307.470703"/>
      <use xlink:href="#DejaVuSans-76" x="335.253906"/>
      <use xlink:href="#DejaVuSans-69" x="394.433594"/>
      <use xlink:href="#DejaVuSans-74" x="422.216797"/>
      <use xlink:href="#DejaVuSans-79" x="461.425781"/>
     </g>
     <!-- [$Bits$] -->
     <g style="fill: #ff00ff" transform="translate(45.055375 244.13835) rotate(-90) scale(0.09 -0.09)">
      <defs>
       <path id="DejaVuSans-Oblique-42" d="M 1081 4666 
L 2694 4666 
Q 3350 4666 3675 4422 
Q 4000 4178 4000 3688 
Q 4000 3238 3720 2911 
Q 3441 2584 2988 2516 
Q 3375 2428 3569 2181 
Q 3763 1934 3763 1522 
Q 3763 819 3242 409 
Q 2722 0 1819 0 
L 172 0 
L 1081 4666 
z
M 1234 2228 
L 903 519 
L 1919 519 
Q 2491 519 2800 781 
Q 3109 1044 3109 1522 
Q 3109 1891 2904 2059 
Q 2700 2228 2247 2228 
L 1234 2228 
z
M 1606 4147 
L 1331 2741 
L 2272 2741 
Q 2775 2741 3058 2959 
Q 3341 3178 3341 3566 
Q 3341 3869 3150 4008 
Q 2959 4147 2541 4147 
L 1606 4147 
z
" transform="scale(0.015625)"/>
       <path id="DejaVuSans-Oblique-69" d="M 1172 4863 
L 1747 4863 
L 1606 4134 
L 1031 4134 
L 1172 4863 
z
M 909 3500 
L 1484 3500 
L 800 0 
L 225 0 
L 909 3500 
z
" transform="scale(0.015625)"/>
       <path id="DejaVuSans-Oblique-74" d="M 2706 3500 
L 2619 3053 
L 1472 3053 
L 1100 1153 
Q 1081 1047 1072 975 
Q 1063 903 1063 863 
Q 1063 663 1183 572 
Q 1303 481 1569 481 
L 2150 481 
L 2053 0 
L 1503 0 
Q 991 0 739 200 
Q 488 400 488 806 
Q 488 878 497 964 
Q 506 1050 525 1153 
L 897 3053 
L 409 3053 
L 500 3500 
L 978 3500 
L 1172 4494 
L 1747 4494 
L 1556 3500 
L 2706 3500 
z
" transform="scale(0.015625)"/>
       <path id="DejaVuSans-Oblique-73" d="M 3200 3397 
L 3091 2853 
Q 2863 2978 2609 3040 
Q 2356 3103 2088 3103 
Q 1634 3103 1373 2948 
Q 1113 2794 1113 2528 
Q 1113 2219 1719 2053 
Q 1766 2041 1788 2034 
L 1972 1978 
Q 2547 1819 2739 1644 
Q 2931 1469 2931 1166 
Q 2931 609 2489 259 
Q 2047 -91 1331 -91 
Q 1053 -91 747 -37 
Q 441 16 72 128 
L 184 722 
Q 500 559 806 475 
Q 1113 391 1394 391 
Q 1816 391 2080 572 
Q 2344 753 2344 1031 
Q 2344 1331 1650 1516 
L 1591 1531 
L 1394 1581 
Q 956 1697 753 1886 
Q 550 2075 550 2369 
Q 550 2928 970 3256 
Q 1391 3584 2113 3584 
Q 2397 3584 2667 3537 
Q 2938 3491 3200 3397 
z
" transform="scale(0.015625)"/>
      </defs>
      <use xlink:href="#DejaVuSans-5b" transform="translate(0 0.015625)"/>
      <use xlink:href="#DejaVuSans-Oblique-42" transform="translate(39.013672 0.015625)"/>
      <use xlink:href="#DejaVuSans-Oblique-69" transform="translate(107.617188 0.015625)"/>
      <use xlink:href="#DejaVuSans-Oblique-74" transform="translate(135.400391 0.015625)"/>
      <use xlink:href="#DejaVuSans-Oblique-73" transform="translate(174.609375 0.015625)"/>
      <use xlink:href="#DejaVuSans-5d" transform="translate(226.708984 0.015625)"/>
     </g>
    </g>
   </g>
   <g id="line2d_35">
    <path d="M 63.653344 222.608453 
L 71.403344 222.55822 
L 74.503344 222.599311 
L 86.903344 222.616481 
L 88.453344 222.541386 
L 91.553344 222.636961 
L 94.653344 222.589209 
L 116.353344 222.613543 
L 122.553344 222.58481 
L 176.803344 222.631956 
L 178.353344 222.535651 
L 184.553344 222.611663 
L 189.203344 222.599885 
L 198.503344 222.647057 
L 201.603344 222.581457 
L 289.953344 222.602376 
L 294.603344 222.603759 
L 327.153344 222.564761 
L 331.803344 222.627179 
L 334.903344 222.555812 
L 339.553344 222.591026 
L 341.103344 222.55994 
L 341.103344 222.55994 
" clip-path="url(#p0485cc25b0)" style="fill: none; stroke: #ff00ff; stroke-linecap: square"/>
   </g>
   <g id="patch_9">
    <path d="M 63.653344 258.77955 
L 63.653344 205.55715 
" style="fill: none; stroke: #000000; stroke-width: 0.8; stroke-linejoin: miter; stroke-linecap: square"/>
   </g>
   <g id="patch_10">
    <path d="M 63.653344 258.77955 
L 342.653344 258.77955 
" style="fill: none; stroke: #000000; stroke-width: 0.8; stroke-linejoin: miter; stroke-linecap: square"/>
   </g>
  </g>
  <g id="axes_4">
   <g id="matplotlib.axis_7">
    <g id="ytick_10">
     <g id="line2d_36">
      <defs>
       <path id="m885462ae52" d="M 0 0 
L 3.5 0 
" style="stroke: #000000; stroke-width: 0.8"/>
      </defs>
      <g>
       <use xlink:href="#m885462ae52" x="342.653344" y="258.77955" style="stroke: #000000; stroke-width: 0.8"/>
      </g>
     </g>
     <g id="text_29">
      <!-- 0.00 -->
      <g style="fill: #ffa500" transform="translate(349.653344 262.198847) scale(0.09 -0.09)">
       <use xlink:href="#DejaVuSans-30"/>
       <use xlink:href="#DejaVuSans-2e" x="63.623047"/>
       <use xlink:href="#DejaVuSans-30" x="95.410156"/>
       <use xlink:href="#DejaVuSans-30" x="159.033203"/>
      </g>
     </g>
    </g>
    <g id="ytick_11">
     <g id="line2d_37">
      <g>
       <use xlink:href="#m885462ae52" x="342.653344" y="229.741395" style="stroke: #000000; stroke-width: 0.8"/>
      </g>
     </g>
     <g id="text_30">
      <!-- 0.05 -->
      <g style="fill: #ffa500" transform="translate(349.653344 233.160691) scale(0.09 -0.09)">
       <use xlink:href="#DejaVuSans-30"/>
       <use xlink:href="#DejaVuSans-2e" x="63.623047"/>
       <use xlink:href="#DejaVuSans-30" x="95.410156"/>
       <use xlink:href="#DejaVuSans-35" x="159.033203"/>
      </g>
     </g>
    </g>
    <g id="text_31">
     <!-- Fisher -->
     <g style="fill: #ffa500" transform="translate(383.24475 218.841319) rotate(-270) scale(0.09 -0.09)">
      <defs>
       <path id="DejaVuSans-46" d="M 628 4666 
L 3309 4666 
L 3309 4134 
L 1259 4134 
L 1259 2759 
L 3109 2759 
L 3109 2228 
L 1259 2228 
L 1259 0 
L 628 0 
L 628 4666 
z
" transform="scale(0.015625)"/>
       <path id="DejaVuSans-68" d="M 3513 2113 
L 3513 0 
L 2938 0 
L 2938 2094 
Q 2938 2591 2744 2837 
Q 2550 3084 2163 3084 
Q 1697 3084 1428 2787 
Q 1159 2491 1159 1978 
L 1159 0 
L 581 0 
L 581 4863 
L 1159 4863 
L 1159 2956 
Q 1366 3272 1645 3428 
Q 1925 3584 2291 3584 
Q 2894 3584 3203 3211 
Q 3513 2838 3513 2113 
z
" transform="scale(0.015625)"/>
      </defs>
      <use xlink:href="#DejaVuSans-46"/>
      <use xlink:href="#DejaVuSans-69" x="50.269531"/>
      <use xlink:href="#DejaVuSans-73" x="78.052734"/>
      <use xlink:href="#DejaVuSans-68" x="130.152344"/>
      <use xlink:href="#DejaVuSans-65" x="193.53125"/>
      <use xlink:href="#DejaVuSans-72" x="255.054688"/>
     </g>
     <!-- Information -->
     <g style="fill: #ffa500" transform="translate(373.166719 206.119678) rotate(-270) scale(0.09 -0.09)">
      <defs>
       <path id="DejaVuSans-49" d="M 628 4666 
L 1259 4666 
L 1259 0 
L 628 0 
L 628 4666 
z
" transform="scale(0.015625)"/>
       <path id="DejaVuSans-66" d="M 2375 4863 
L 2375 4384 
L 1825 4384 
Q 1516 4384 1395 4259 
Q 1275 4134 1275 3809 
L 1275 3500 
L 2222 3500 
L 2222 3053 
L 1275 3053 
L 1275 0 
L 697 0 
L 697 3053 
L 147 3053 
L 147 3500 
L 697 3500 
L 697 3744 
Q 697 4328 969 4595 
Q 1241 4863 1831 4863 
L 2375 4863 
z
" transform="scale(0.015625)"/>
      </defs>
      <use xlink:href="#DejaVuSans-49"/>
      <use xlink:href="#DejaVuSans-6e" x="29.492188"/>
      <use xlink:href="#DejaVuSans-66" x="92.871094"/>
      <use xlink:href="#DejaVuSans-6f" x="128.076172"/>
      <use xlink:href="#DejaVuSans-72" x="189.257812"/>
      <use xlink:href="#DejaVuSans-6d" x="228.621094"/>
      <use xlink:href="#DejaVuSans-61" x="326.033203"/>
      <use xlink:href="#DejaVuSans-74" x="387.3125"/>
      <use xlink:href="#DejaVuSans-69" x="426.521484"/>
      <use xlink:href="#DejaVuSans-6f" x="454.304688"/>
      <use xlink:href="#DejaVuSans-6e" x="515.486328"/>
     </g>
    </g>
   </g>
   <g id="line2d_38">
    <path d="M 63.653344 214.42755 
L 68.303344 214.460481 
L 341.103344 214.42755 
L 341.103344 214.42755 
" clip-path="url(#p0485cc25b0)" style="fill: none; stroke: #ffa500; stroke-linecap: square"/>
   </g>
   <g id="patch_11">
    <path d="M 63.653344 258.77955 
L 63.653344 205.55715 
" style="fill: none; stroke: #000000; stroke-width: 0.8; stroke-linejoin: miter; stroke-linecap: square"/>
   </g>
   <g id="patch_12">
    <path d="M 342.653344 258.77955 
L 342.653344 205.55715 
" style="fill: none; stroke: #000000; stroke-width: 0.8; stroke-linejoin: miter; stroke-linecap: square"/>
   </g>
   <g id="patch_13">
    <path d="M 63.653344 258.77955 
L 342.653344 258.77955 
" style="fill: none; stroke: #000000; stroke-width: 0.8; stroke-linejoin: miter; stroke-linecap: square"/>
   </g>
  </g>
  <g id="axes_5">
   <g id="patch_14">
    <path d="M 63.653344 351.91875 
L 342.653344 351.91875 
L 342.653344 298.69635 
L 63.653344 298.69635 
z
" style="fill: #ffffff"/>
   </g>
   <g id="matplotlib.axis_8">
    <g id="xtick_16">
     <g id="line2d_39">
      <g>
       <use xlink:href="#md3ba1337f2" x="76.335162" y="351.91875" style="stroke: #000000; stroke-width: 0.8"/>
      </g>
     </g>
     <g id="text_32">
      <!-- 0 -->
      <g transform="translate(73.472037 365.757344) scale(0.09 -0.09)">
       <use xlink:href="#DejaVuSans-30"/>
      </g>
     </g>
    </g>
    <g id="xtick_17">
     <g id="line2d_40">
      <g>
       <use xlink:href="#md3ba1337f2" x="140.098494" y="351.91875" style="stroke: #000000; stroke-width: 0.8"/>
      </g>
     </g>
     <g id="text_33">
      <!-- 90 -->
      <g transform="translate(134.372244 365.757344) scale(0.09 -0.09)">
       <use xlink:href="#DejaVuSans-39"/>
       <use xlink:href="#DejaVuSans-30" x="63.623047"/>
      </g>
     </g>
    </g>
    <g id="xtick_18">
     <g id="line2d_41">
      <g>
       <use xlink:href="#md3ba1337f2" x="203.861825" y="351.91875" style="stroke: #000000; stroke-width: 0.8"/>
      </g>
     </g>
     <g id="text_34">
      <!-- 180 -->
      <g transform="translate(195.27245 365.757344) scale(0.09 -0.09)">
       <use xlink:href="#DejaVuSans-31"/>
       <use xlink:href="#DejaVuSans-38" x="63.623047"/>
       <use xlink:href="#DejaVuSans-30" x="127.246094"/>
      </g>
     </g>
    </g>
    <g id="xtick_19">
     <g id="line2d_42">
      <g>
       <use xlink:href="#md3ba1337f2" x="267.625157" y="351.91875" style="stroke: #000000; stroke-width: 0.8"/>
      </g>
     </g>
     <g id="text_35">
      <!-- 270 -->
      <g transform="translate(259.035782 365.757344) scale(0.09 -0.09)">
       <use xlink:href="#DejaVuSans-32"/>
       <use xlink:href="#DejaVuSans-37" x="63.623047"/>
       <use xlink:href="#DejaVuSans-30" x="127.246094"/>
      </g>
     </g>
    </g>
    <g id="xtick_20">
     <g id="line2d_43">
      <g>
       <use xlink:href="#md3ba1337f2" x="331.388488" y="351.91875" style="stroke: #000000; stroke-width: 0.8"/>
      </g>
     </g>
     <g id="text_36">
      <!-- 360 -->
      <g transform="translate(322.799113 365.757344) scale(0.09 -0.09)">
       <use xlink:href="#DejaVuSans-33"/>
       <use xlink:href="#DejaVuSans-36" x="63.623047"/>
       <use xlink:href="#DejaVuSans-30" x="127.246094"/>
      </g>
     </g>
    </g>
    <g id="text_37">
     <!-- Direction of motion [$\degree$] -->
     <g transform="translate(152.573344 378.467656) scale(0.09 -0.09)">
      <defs>
       <path id="DejaVuSans-44" d="M 1259 4147 
L 1259 519 
L 2022 519 
Q 2988 519 3436 956 
Q 3884 1394 3884 2338 
Q 3884 3275 3436 3711 
Q 2988 4147 2022 4147 
L 1259 4147 
z
M 628 4666 
L 1925 4666 
Q 3281 4666 3915 4102 
Q 4550 3538 4550 2338 
Q 4550 1131 3912 565 
Q 3275 0 1925 0 
L 628 0 
L 628 4666 
z
" transform="scale(0.015625)"/>
       <path id="DejaVuSans-b0" d="M 1600 4347 
Q 1350 4347 1178 4173 
Q 1006 4000 1006 3750 
Q 1006 3503 1178 3333 
Q 1350 3163 1600 3163 
Q 1850 3163 2022 3333 
Q 2194 3503 2194 3750 
Q 2194 3997 2020 4172 
Q 1847 4347 1600 4347 
z
M 1600 4750 
Q 1800 4750 1984 4673 
Q 2169 4597 2303 4453 
Q 2447 4313 2519 4134 
Q 2591 3956 2591 3750 
Q 2591 3338 2302 3052 
Q 2013 2766 1594 2766 
Q 1172 2766 890 3047 
Q 609 3328 609 3750 
Q 609 4169 896 4459 
Q 1184 4750 1600 4750 
z
" transform="scale(0.015625)"/>
      </defs>
      <use xlink:href="#DejaVuSans-44" transform="translate(0 0.015625)"/>
      <use xlink:href="#DejaVuSans-69" transform="translate(77.001953 0.015625)"/>
      <use xlink:href="#DejaVuSans-72" transform="translate(104.785156 0.015625)"/>
      <use xlink:href="#DejaVuSans-65" transform="translate(145.898438 0.015625)"/>
      <use xlink:href="#DejaVuSans-63" transform="translate(207.421875 0.015625)"/>
      <use xlink:href="#DejaVuSans-74" transform="translate(262.402344 0.015625)"/>
      <use xlink:href="#DejaVuSans-69" transform="translate(301.611328 0.015625)"/>
      <use xlink:href="#DejaVuSans-6f" transform="translate(329.394531 0.015625)"/>
      <use xlink:href="#DejaVuSans-6e" transform="translate(390.576172 0.015625)"/>
      <use xlink:href="#DejaVuSans-20" transform="translate(453.955078 0.015625)"/>
      <use xlink:href="#DejaVuSans-6f" transform="translate(485.742188 0.015625)"/>
      <use xlink:href="#DejaVuSans-66" transform="translate(546.923828 0.015625)"/>
      <use xlink:href="#DejaVuSans-20" transform="translate(582.128906 0.015625)"/>
      <use xlink:href="#DejaVuSans-6d" transform="translate(613.916016 0.015625)"/>
      <use xlink:href="#DejaVuSans-6f" transform="translate(711.328125 0.015625)"/>
      <use xlink:href="#DejaVuSans-74" transform="translate(772.509766 0.015625)"/>
      <use xlink:href="#DejaVuSans-69" transform="translate(811.71875 0.015625)"/>
      <use xlink:href="#DejaVuSans-6f" transform="translate(839.501953 0.015625)"/>
      <use xlink:href="#DejaVuSans-6e" transform="translate(900.683594 0.015625)"/>
      <use xlink:href="#DejaVuSans-20" transform="translate(964.0625 0.015625)"/>
      <use xlink:href="#DejaVuSans-5b" transform="translate(995.849609 0.015625)"/>
      <use xlink:href="#DejaVuSans-b0" transform="translate(1034.863281 0.015625)"/>
      <use xlink:href="#DejaVuSans-5d" transform="translate(1084.863281 0.015625)"/>
     </g>
    </g>
   </g>
   <g id="matplotlib.axis_9">
    <g id="ytick_12">
     <g id="line2d_44">
      <g>
       <use xlink:href="#m64a47900bc" x="63.653344" y="351.91875" style="stroke: #000000; stroke-width: 0.8"/>
      </g>
     </g>
     <g id="text_38">
      <!-- 0 -->
      <g transform="translate(50.927094 355.338047) scale(0.09 -0.09)">
       <use xlink:href="#DejaVuSans-30"/>
      </g>
     </g>
    </g>
    <g id="ytick_13">
     <g id="line2d_45">
      <g>
       <use xlink:href="#m64a47900bc" x="63.653344" y="325.30755" style="stroke: #000000; stroke-width: 0.8"/>
      </g>
     </g>
     <g id="text_39">
      <!-- 25 -->
      <g transform="translate(45.200844 328.726847) scale(0.09 -0.09)">
       <use xlink:href="#DejaVuSans-32"/>
       <use xlink:href="#DejaVuSans-35" x="63.623047"/>
      </g>
     </g>
    </g>
    <g id="ytick_14">
     <g id="line2d_46">
      <g>
       <use xlink:href="#m64a47900bc" x="63.653344" y="298.69635" style="stroke: #000000; stroke-width: 0.8"/>
      </g>
     </g>
     <g id="text_40">
      <!-- 50 -->
      <g transform="translate(45.200844 302.115647) scale(0.09 -0.09)">
       <use xlink:href="#DejaVuSans-35"/>
       <use xlink:href="#DejaVuSans-30" x="63.623047"/>
      </g>
     </g>
    </g>
    <g id="text_41">
     <!-- Decoding -->
     <g transform="translate(29.251094 346.584816) rotate(-90) scale(0.09 -0.09)">
      <use xlink:href="#DejaVuSans-44"/>
      <use xlink:href="#DejaVuSans-65" x="77.001953"/>
      <use xlink:href="#DejaVuSans-63" x="138.525391"/>
      <use xlink:href="#DejaVuSans-6f" x="193.505859"/>
      <use xlink:href="#DejaVuSans-64" x="254.6875"/>
      <use xlink:href="#DejaVuSans-69" x="318.164062"/>
      <use xlink:href="#DejaVuSans-6e" x="345.947266"/>
      <use xlink:href="#DejaVuSans-67" x="409.326172"/>
     </g>
     <!-- Error [$\degree$] -->
     <g transform="translate(39.329125 343.66755) rotate(-90) scale(0.09 -0.09)">
      <defs>
       <path id="DejaVuSans-45" d="M 628 4666 
L 3578 4666 
L 3578 4134 
L 1259 4134 
L 1259 2753 
L 3481 2753 
L 3481 2222 
L 1259 2222 
L 1259 531 
L 3634 531 
L 3634 0 
L 628 0 
L 628 4666 
z
" transform="scale(0.015625)"/>
      </defs>
      <use xlink:href="#DejaVuSans-45" transform="translate(0 0.015625)"/>
      <use xlink:href="#DejaVuSans-72" transform="translate(63.183594 0.015625)"/>
      <use xlink:href="#DejaVuSans-72" transform="translate(104.296875 0.015625)"/>
      <use xlink:href="#DejaVuSans-6f" transform="translate(145.410156 0.015625)"/>
      <use xlink:href="#DejaVuSans-72" transform="translate(206.591797 0.015625)"/>
      <use xlink:href="#DejaVuSans-20" transform="translate(247.705078 0.015625)"/>
      <use xlink:href="#DejaVuSans-5b" transform="translate(279.492188 0.015625)"/>
      <use xlink:href="#DejaVuSans-b0" transform="translate(318.505859 0.015625)"/>
      <use xlink:href="#DejaVuSans-5d" transform="translate(368.505859 0.015625)"/>
     </g>
    </g>
   </g>
   <g id="line2d_47">
    <path d="M 76.335162 348.066918 
L 171.271678 348.065494 
L 329.971526 348.066918 
L 329.971526 348.066918 
" clip-path="url(#pe24772f622)" style="fill: none; stroke: #ffa500; stroke-linecap: square"/>
   </g>
   <g id="line2d_48">
    <path d="M 76.335162 346.427506 
L 94.75568 346.432706 
L 101.840495 346.41526 
L 107.508346 346.44126 
L 137.264568 346.425158 
L 142.932419 346.452352 
L 147.183308 346.448803 
L 157.102049 346.447057 
L 175.522567 346.423416 
L 203.861825 346.439603 
L 212.363603 346.431455 
L 218.031454 346.448952 
L 223.699306 346.423491 
L 329.971526 346.448284 
L 329.971526 346.448284 
" clip-path="url(#pe24772f622)" style="fill: none; stroke: #ff00ff; stroke-width: 1.5; stroke-linecap: square"/>
   </g>
   <g id="line2d_49">
    <path d="M 76.335162 348.054375 
L 77.752125 348.204203 
L 79.169088 347.859144 
L 80.586051 347.982667 
L 82.003014 348.257639 
L 84.836939 347.918355 
L 86.253902 348.150832 
L 87.670865 348.186751 
L 89.087828 347.827005 
L 90.504791 347.815541 
L 91.921754 348.049879 
L 93.338717 347.912042 
L 94.75568 348.11803 
L 97.589606 347.658788 
L 99.006569 347.874566 
L 101.840495 348.141591 
L 103.257458 347.879304 
L 104.67442 347.837565 
L 106.091383 348.072047 
L 107.508346 348.16425 
L 108.925309 347.995971 
L 110.342272 347.980475 
L 111.759235 348.176688 
L 114.593161 347.893752 
L 116.010124 347.760411 
L 118.84405 347.948093 
L 120.261013 348.236274 
L 121.677976 347.935643 
L 123.094938 348.215462 
L 124.511901 347.869005 
L 127.345827 348.318891 
L 128.76279 347.98795 
L 131.596716 347.894889 
L 135.847605 348.394378 
L 137.264568 348.186953 
L 138.681531 348.311274 
L 141.515456 348.032571 
L 142.932419 348.012116 
L 144.349382 348.111107 
L 145.766345 348.01833 
L 152.85116 348.187848 
L 155.685086 348.016663 
L 157.102049 348.059763 
L 158.519012 347.885726 
L 159.935975 348.190888 
L 161.352937 348.055734 
L 162.7699 348.276506 
L 164.186863 347.864822 
L 165.603826 348.171603 
L 167.020789 348.077362 
L 169.854715 348.202274 
L 171.271678 347.865294 
L 174.105604 348.067145 
L 175.522567 348.02392 
L 178.356493 348.265383 
L 182.607381 347.844721 
L 184.024344 348.160735 
L 185.441307 348.304128 
L 186.85827 348.071236 
L 188.275233 348.256018 
L 189.692196 347.940149 
L 191.109159 348.29337 
L 192.526122 347.96809 
L 199.610936 348.076328 
L 202.444862 348.124619 
L 206.695751 348.110941 
L 208.112714 347.840411 
L 209.529677 347.869142 
L 210.94664 348.051782 
L 220.86538 347.961176 
L 222.282343 348.19069 
L 223.699306 348.027315 
L 226.533232 348.22454 
L 229.367158 348.076473 
L 230.784121 348.045021 
L 232.201084 348.169835 
L 233.618047 347.765642 
L 235.03501 348.213238 
L 236.451972 348.122405 
L 237.868935 348.163951 
L 243.536787 347.783668 
L 246.370713 348.036647 
L 247.787676 347.99146 
L 249.204639 348.215202 
L 254.872491 347.872787 
L 260.540342 348.130957 
L 263.374268 348.151474 
L 264.791231 347.939163 
L 266.208194 348.254802 
L 269.04212 347.98833 
L 270.459083 348.078044 
L 278.96086 347.889604 
L 281.794786 348.144917 
L 287.462638 347.95244 
L 288.879601 347.819711 
L 290.296564 348.169514 
L 291.713527 347.945236 
L 293.13049 348.157444 
L 295.964415 347.927667 
L 298.798341 348.182398 
L 300.215304 348.254017 
L 303.04923 347.988426 
L 304.466193 348.223656 
L 305.883156 348.044214 
L 317.218859 348.04845 
L 318.635822 347.629194 
L 320.052785 348.004396 
L 321.469748 347.961588 
L 322.886711 348.131308 
L 324.303674 348.037491 
L 325.720637 347.811034 
L 327.1376 348.050062 
L 328.554563 348.158008 
L 329.971526 347.894215 
L 329.971526 347.894215 
" clip-path="url(#pe24772f622)" style="fill: none; stroke-dasharray: 5.55,2.4; stroke-dashoffset: 0; stroke: #0000ff; stroke-width: 1.5"/>
   </g>
   <g id="patch_15">
    <path d="M 63.653344 351.91875 
L 63.653344 298.69635 
" style="fill: none; stroke: #000000; stroke-width: 0.8; stroke-linejoin: miter; stroke-linecap: square"/>
   </g>
   <g id="patch_16">
    <path d="M 63.653344 351.91875 
L 342.653344 351.91875 
" style="fill: none; stroke: #000000; stroke-width: 0.8; stroke-linejoin: miter; stroke-linecap: square"/>
   </g>
   <g id="legend_1">
    <g id="line2d_50">
     <path d="M 69.643344 296.81992 
L 69.643344 296.81992 
L 69.643344 296.81992 
" style="fill: none; stroke: #ffa500; stroke-linecap: square"/>
    </g>
    <g id="text_42">
     <!-- Fisher error -->
     <g style="fill: #ffa500" transform="translate(76.043344 299.61992) scale(0.08 -0.08)">
      <use xlink:href="#DejaVuSans-46"/>
      <use xlink:href="#DejaVuSans-69" x="50.269531"/>
      <use xlink:href="#DejaVuSans-73" x="78.052734"/>
      <use xlink:href="#DejaVuSans-68" x="130.152344"/>
      <use xlink:href="#DejaVuSans-65" x="193.53125"/>
      <use xlink:href="#DejaVuSans-72" x="255.054688"/>
      <use xlink:href="#DejaVuSans-20" x="296.167969"/>
      <use xlink:href="#DejaVuSans-65" x="327.955078"/>
      <use xlink:href="#DejaVuSans-72" x="389.478516"/>
      <use xlink:href="#DejaVuSans-72" x="428.841797"/>
      <use xlink:href="#DejaVuSans-6f" x="467.705078"/>
      <use xlink:href="#DejaVuSans-72" x="528.886719"/>
     </g>
    </g>
    <g id="line2d_51">
     <path d="M 69.643344 308.56242 
L 69.643344 308.56242 
L 69.643344 308.56242 
" style="fill: none; stroke: #ff00ff; stroke-width: 1.5; stroke-linecap: square"/>
    </g>
    <g id="text_43">
     <!-- Sensitivity error -->
     <g style="fill: #ff00ff" transform="translate(76.043344 311.36242) scale(0.08 -0.08)">
      <use xlink:href="#DejaVuSans-53"/>
      <use xlink:href="#DejaVuSans-65" x="63.476562"/>
      <use xlink:href="#DejaVuSans-6e" x="125"/>
      <use xlink:href="#DejaVuSans-73" x="188.378906"/>
      <use xlink:href="#DejaVuSans-69" x="240.478516"/>
      <use xlink:href="#DejaVuSans-74" x="268.261719"/>
      <use xlink:href="#DejaVuSans-69" x="307.470703"/>
      <use xlink:href="#DejaVuSans-76" x="335.253906"/>
      <use xlink:href="#DejaVuSans-69" x="394.433594"/>
      <use xlink:href="#DejaVuSans-74" x="422.216797"/>
      <use xlink:href="#DejaVuSans-79" x="461.425781"/>
      <use xlink:href="#DejaVuSans-20" x="520.605469"/>
      <use xlink:href="#DejaVuSans-65" x="552.392578"/>
      <use xlink:href="#DejaVuSans-72" x="613.916016"/>
      <use xlink:href="#DejaVuSans-72" x="653.279297"/>
      <use xlink:href="#DejaVuSans-6f" x="692.142578"/>
      <use xlink:href="#DejaVuSans-72" x="753.324219"/>
     </g>
    </g>
    <g id="line2d_52">
     <path d="M 69.643344 320.30492 
L 69.643344 320.30492 
L 69.643344 320.30492 
" style="fill: none; stroke-dasharray: 5.55,2.4; stroke-dashoffset: 0; stroke: #0000ff; stroke-width: 1.5"/>
    </g>
    <g id="text_44">
     <!-- Bayesian error -->
     <g style="fill: #0000ff" transform="translate(76.043344 323.10492) scale(0.08 -0.08)">
      <defs>
       <path id="DejaVuSans-42" d="M 1259 2228 
L 1259 519 
L 2272 519 
Q 2781 519 3026 730 
Q 3272 941 3272 1375 
Q 3272 1813 3026 2020 
Q 2781 2228 2272 2228 
L 1259 2228 
z
M 1259 4147 
L 1259 2741 
L 2194 2741 
Q 2656 2741 2882 2914 
Q 3109 3088 3109 3444 
Q 3109 3797 2882 3972 
Q 2656 4147 2194 4147 
L 1259 4147 
z
M 628 4666 
L 2241 4666 
Q 2963 4666 3353 4366 
Q 3744 4066 3744 3513 
Q 3744 3084 3544 2831 
Q 3344 2578 2956 2516 
Q 3422 2416 3680 2098 
Q 3938 1781 3938 1306 
Q 3938 681 3513 340 
Q 3088 0 2303 0 
L 628 0 
L 628 4666 
z
" transform="scale(0.015625)"/>
      </defs>
      <use xlink:href="#DejaVuSans-42"/>
      <use xlink:href="#DejaVuSans-61" x="68.603516"/>
      <use xlink:href="#DejaVuSans-79" x="129.882812"/>
      <use xlink:href="#DejaVuSans-65" x="189.0625"/>
      <use xlink:href="#DejaVuSans-73" x="250.585938"/>
      <use xlink:href="#DejaVuSans-69" x="302.685547"/>
      <use xlink:href="#DejaVuSans-61" x="330.46875"/>
      <use xlink:href="#DejaVuSans-6e" x="391.748047"/>
      <use xlink:href="#DejaVuSans-20" x="455.126953"/>
      <use xlink:href="#DejaVuSans-65" x="486.914062"/>
      <use xlink:href="#DejaVuSans-72" x="548.4375"/>
      <use xlink:href="#DejaVuSans-72" x="587.800781"/>
      <use xlink:href="#DejaVuSans-6f" x="626.664062"/>
      <use xlink:href="#DejaVuSans-72" x="687.845703"/>
     </g>
    </g>
   </g>
  </g>
 </g>
 <defs>
  <clipPath id="p3183777f3b">
   <rect x="63.653344" y="19.27875" width="279" height="53.2224"/>
  </clipPath>
  <clipPath id="p083fa78c65">
   <rect x="63.653344" y="112.41795" width="279" height="53.2224"/>
  </clipPath>
  <clipPath id="p0485cc25b0">
   <rect x="63.653344" y="205.55715" width="279" height="53.2224"/>
  </clipPath>
  <clipPath id="pe24772f622">
   <rect x="63.653344" y="298.69635" width="279" height="53.2224"/>
  </clipPath>
 </defs>
</svg>
