<?xml version="1.0" encoding="utf-8" standalone="no"?>
<!DOCTYPE svg PUBLIC "-//W3C//DTD SVG 1.1//EN"
  "http://www.w3.org/Graphics/SVG/1.1/DTD/svg11.dtd">
<svg xmlns:xlink="http://www.w3.org/1999/xlink" width="293.778166pt" height="390.856625pt" viewBox="0 0 293.778166 390.856625" xmlns="http://www.w3.org/2000/svg" version="1.1">
 <metadata>
  <rdf:RDF xmlns:dc="http://purl.org/dc/elements/1.1/" xmlns:cc="http://creativecommons.org/ns#" xmlns:rdf="http://www.w3.org/1999/02/22-rdf-syntax-ns#">
   <cc:Work>
    <dc:type rdf:resource="http://purl.org/dc/dcmitype/StillImage"/>
    <dc:date>2025-09-08T12:53:48.549074</dc:date>
    <dc:format>image/svg+xml</dc:format>
    <dc:creator>
     <cc:Agent>
      <dc:title>Matplotlib v3.9.4, https://matplotlib.org/</dc:title>
     </cc:Agent>
    </dc:creator>
   </cc:Work>
  </rdf:RDF>
 </metadata>
 <defs>
  <style type="text/css">*{stroke-linejoin: round; stroke-linecap: butt}</style>
 </defs>
 <g id="figure_1">
  <g id="patch_1">
   <path d="M 0 390.856625 
L 293.778166 390.856625 
L 293.778166 0 
L 0 0 
z
" style="fill: #ffffff"/>
  </g>
  <g id="axes_1">
   <g id="patch_2">
    <path d="M 55.976125 108.81475 
L 226.792452 108.81475 
L 226.792452 39.51475 
L 55.976125 39.51475 
z
" style="fill: #ffffff"/>
   </g>
   <g id="matplotlib.axis_1">
    <g id="xtick_1">
     <g id="line2d_1">
      <defs>
       <path id="m16a4b1506b" d="M 0 0 
L 0 3.5 
" style="stroke: #000000; stroke-width: 0.8"/>
      </defs>
      <g>
       <use xlink:href="#m16a4b1506b" x="55.976125" y="108.81475" style="stroke: #000000; stroke-width: 0.8"/>
      </g>
     </g>
     <g id="text_1">
      <!-- 0 -->
      <g transform="translate(52.794875 123.413187) scale(0.1 -0.1)">
       <defs>
        <path id="DejaVuSans-30" d="M 2034 4250 
Q 1547 4250 1301 3770 
Q 1056 3291 1056 2328 
Q 1056 1369 1301 889 
Q 1547 409 2034 409 
Q 2525 409 2770 889 
Q 3016 1369 3016 2328 
Q 3016 3291 2770 3770 
Q 2525 4250 2034 4250 
z
M 2034 4750 
Q 2819 4750 3233 4129 
Q 3647 3509 3647 2328 
Q 3647 1150 3233 529 
Q 2819 -91 2034 -91 
Q 1250 -91 836 529 
Q 422 1150 422 2328 
Q 422 3509 836 4129 
Q 1250 4750 2034 4750 
z
" transform="scale(0.015625)"/>
       </defs>
       <use xlink:href="#DejaVuSans-30"/>
      </g>
     </g>
    </g>
    <g id="xtick_2">
     <g id="line2d_2">
      <g>
       <use xlink:href="#m16a4b1506b" x="98.680207" y="108.81475" style="stroke: #000000; stroke-width: 0.8"/>
      </g>
     </g>
     <g id="text_2">
      <!-- 90 -->
      <g transform="translate(92.317707 123.413187) scale(0.1 -0.1)">
       <defs>
        <path id="DejaVuSans-39" d="M 703 97 
L 703 672 
Q 941 559 1184 500 
Q 1428 441 1663 441 
Q 2288 441 2617 861 
Q 2947 1281 2994 2138 
Q 2813 1869 2534 1725 
Q 2256 1581 1919 1581 
Q 1219 1581 811 2004 
Q 403 2428 403 3163 
Q 403 3881 828 4315 
Q 1253 4750 1959 4750 
Q 2769 4750 3195 4129 
Q 3622 3509 3622 2328 
Q 3622 1225 3098 567 
Q 2575 -91 1691 -91 
Q 1453 -91 1209 -44 
Q 966 3 703 97 
z
M 1959 2075 
Q 2384 2075 2632 2365 
Q 2881 2656 2881 3163 
Q 2881 3666 2632 3958 
Q 2384 4250 1959 4250 
Q 1534 4250 1286 3958 
Q 1038 3666 1038 3163 
Q 1038 2656 1286 2365 
Q 1534 2075 1959 2075 
z
" transform="scale(0.015625)"/>
       </defs>
       <use xlink:href="#DejaVuSans-39"/>
       <use xlink:href="#DejaVuSans-30" x="63.623047"/>
      </g>
     </g>
    </g>
    <g id="xtick_3">
     <g id="line2d_3">
      <g>
       <use xlink:href="#m16a4b1506b" x="141.384288" y="108.81475" style="stroke: #000000; stroke-width: 0.8"/>
      </g>
     </g>
     <g id="text_3">
      <!-- 180 -->
      <g transform="translate(131.840538 123.413187) scale(0.1 -0.1)">
       <defs>
        <path id="DejaVuSans-31" d="M 794 531 
L 1825 531 
L 1825 4091 
L 703 3866 
L 703 4441 
L 1819 4666 
L 2450 4666 
L 2450 531 
L 3481 531 
L 3481 0 
L 794 0 
L 794 531 
z
" transform="scale(0.015625)"/>
        <path id="DejaVuSans-38" d="M 2034 2216 
Q 1584 2216 1326 1975 
Q 1069 1734 1069 1313 
Q 1069 891 1326 650 
Q 1584 409 2034 409 
Q 2484 409 2743 651 
Q 3003 894 3003 1313 
Q 3003 1734 2745 1975 
Q 2488 2216 2034 2216 
z
M 1403 2484 
Q 997 2584 770 2862 
Q 544 3141 544 3541 
Q 544 4100 942 4425 
Q 1341 4750 2034 4750 
Q 2731 4750 3128 4425 
Q 3525 4100 3525 3541 
Q 3525 3141 3298 2862 
Q 3072 2584 2669 2484 
Q 3125 2378 3379 2068 
Q 3634 1759 3634 1313 
Q 3634 634 3220 271 
Q 2806 -91 2034 -91 
Q 1263 -91 848 271 
Q 434 634 434 1313 
Q 434 1759 690 2068 
Q 947 2378 1403 2484 
z
M 1172 3481 
Q 1172 3119 1398 2916 
Q 1625 2713 2034 2713 
Q 2441 2713 2670 2916 
Q 2900 3119 2900 3481 
Q 2900 3844 2670 4047 
Q 2441 4250 2034 4250 
Q 1625 4250 1398 4047 
Q 1172 3844 1172 3481 
z
" transform="scale(0.015625)"/>
       </defs>
       <use xlink:href="#DejaVuSans-31"/>
       <use xlink:href="#DejaVuSans-38" x="63.623047"/>
       <use xlink:href="#DejaVuSans-30" x="127.246094"/>
      </g>
     </g>
    </g>
    <g id="xtick_4">
     <g id="line2d_4">
      <g>
       <use xlink:href="#m16a4b1506b" x="184.08837" y="108.81475" style="stroke: #000000; stroke-width: 0.8"/>
      </g>
     </g>
     <g id="text_4">
      <!-- 270 -->
      <g transform="translate(174.54462 123.413187) scale(0.1 -0.1)">
       <defs>
        <path id="DejaVuSans-32" d="M 1228 531 
L 3431 531 
L 3431 0 
L 469 0 
L 469 531 
Q 828 903 1448 1529 
Q 2069 2156 2228 2338 
Q 2531 2678 2651 2914 
Q 2772 3150 2772 3378 
Q 2772 3750 2511 3984 
Q 2250 4219 1831 4219 
Q 1534 4219 1204 4116 
Q 875 4013 500 3803 
L 500 4441 
Q 881 4594 1212 4672 
Q 1544 4750 1819 4750 
Q 2544 4750 2975 4387 
Q 3406 4025 3406 3419 
Q 3406 3131 3298 2873 
Q 3191 2616 2906 2266 
Q 2828 2175 2409 1742 
Q 1991 1309 1228 531 
z
" transform="scale(0.015625)"/>
        <path id="DejaVuSans-37" d="M 525 4666 
L 3525 4666 
L 3525 4397 
L 1831 0 
L 1172 0 
L 2766 4134 
L 525 4134 
L 525 4666 
z
" transform="scale(0.015625)"/>
       </defs>
       <use xlink:href="#DejaVuSans-32"/>
       <use xlink:href="#DejaVuSans-37" x="63.623047"/>
       <use xlink:href="#DejaVuSans-30" x="127.246094"/>
      </g>
     </g>
    </g>
    <g id="xtick_5">
     <g id="line2d_5">
      <g>
       <use xlink:href="#m16a4b1506b" x="226.792452" y="108.81475" style="stroke: #000000; stroke-width: 0.8"/>
      </g>
     </g>
     <g id="text_5">
      <!-- 360 -->
      <g transform="translate(217.248702 123.413187) scale(0.1 -0.1)">
       <defs>
        <path id="DejaVuSans-33" d="M 2597 2516 
Q 3050 2419 3304 2112 
Q 3559 1806 3559 1356 
Q 3559 666 3084 287 
Q 2609 -91 1734 -91 
Q 1441 -91 1130 -33 
Q 819 25 488 141 
L 488 750 
Q 750 597 1062 519 
Q 1375 441 1716 441 
Q 2309 441 2620 675 
Q 2931 909 2931 1356 
Q 2931 1769 2642 2001 
Q 2353 2234 1838 2234 
L 1294 2234 
L 1294 2753 
L 1863 2753 
Q 2328 2753 2575 2939 
Q 2822 3125 2822 3475 
Q 2822 3834 2567 4026 
Q 2313 4219 1838 4219 
Q 1578 4219 1281 4162 
Q 984 4106 628 3988 
L 628 4550 
Q 988 4650 1302 4700 
Q 1616 4750 1894 4750 
Q 2613 4750 3031 4423 
Q 3450 4097 3450 3541 
Q 3450 3153 3228 2886 
Q 3006 2619 2597 2516 
z
" transform="scale(0.015625)"/>
        <path id="DejaVuSans-36" d="M 2113 2584 
Q 1688 2584 1439 2293 
Q 1191 2003 1191 1497 
Q 1191 994 1439 701 
Q 1688 409 2113 409 
Q 2538 409 2786 701 
Q 3034 994 3034 1497 
Q 3034 2003 2786 2293 
Q 2538 2584 2113 2584 
z
M 3366 4563 
L 3366 3988 
Q 3128 4100 2886 4159 
Q 2644 4219 2406 4219 
Q 1781 4219 1451 3797 
Q 1122 3375 1075 2522 
Q 1259 2794 1537 2939 
Q 1816 3084 2150 3084 
Q 2853 3084 3261 2657 
Q 3669 2231 3669 1497 
Q 3669 778 3244 343 
Q 2819 -91 2113 -91 
Q 1303 -91 875 529 
Q 447 1150 447 2328 
Q 447 3434 972 4092 
Q 1497 4750 2381 4750 
Q 2619 4750 2861 4703 
Q 3103 4656 3366 4563 
z
" transform="scale(0.015625)"/>
       </defs>
       <use xlink:href="#DejaVuSans-33"/>
       <use xlink:href="#DejaVuSans-36" x="63.623047"/>
       <use xlink:href="#DejaVuSans-30" x="127.246094"/>
      </g>
     </g>
    </g>
   </g>
   <g id="matplotlib.axis_2">
    <g id="ytick_1">
     <g id="line2d_6">
      <defs>
       <path id="m1b9deb3149" d="M 0 0 
L -3.5 0 
" style="stroke: #000000; stroke-width: 0.8"/>
      </defs>
      <g>
       <use xlink:href="#m1b9deb3149" x="55.976125" y="108.81475" style="stroke: #000000; stroke-width: 0.8"/>
      </g>
     </g>
     <g id="text_6">
      <!-- 0 -->
      <g transform="translate(42.613625 112.613969) scale(0.1 -0.1)">
       <use xlink:href="#DejaVuSans-30"/>
      </g>
     </g>
    </g>
    <g id="ytick_2">
     <g id="line2d_7">
      <g>
       <use xlink:href="#m1b9deb3149" x="55.976125" y="85.71475" style="stroke: #000000; stroke-width: 0.8"/>
      </g>
     </g>
     <g id="text_7">
      <!-- 25 -->
      <g transform="translate(36.251125 89.513969) scale(0.1 -0.1)">
       <defs>
        <path id="DejaVuSans-35" d="M 691 4666 
L 3169 4666 
L 3169 4134 
L 1269 4134 
L 1269 2991 
Q 1406 3038 1543 3061 
Q 1681 3084 1819 3084 
Q 2600 3084 3056 2656 
Q 3513 2228 3513 1497 
Q 3513 744 3044 326 
Q 2575 -91 1722 -91 
Q 1428 -91 1123 -41 
Q 819 9 494 109 
L 494 744 
Q 775 591 1075 516 
Q 1375 441 1709 441 
Q 2250 441 2565 725 
Q 2881 1009 2881 1497 
Q 2881 1984 2565 2268 
Q 2250 2553 1709 2553 
Q 1456 2553 1204 2497 
Q 953 2441 691 2322 
L 691 4666 
z
" transform="scale(0.015625)"/>
       </defs>
       <use xlink:href="#DejaVuSans-32"/>
       <use xlink:href="#DejaVuSans-35" x="63.623047"/>
      </g>
     </g>
    </g>
    <g id="ytick_3">
     <g id="line2d_8">
      <g>
       <use xlink:href="#m1b9deb3149" x="55.976125" y="62.61475" style="stroke: #000000; stroke-width: 0.8"/>
      </g>
     </g>
     <g id="text_8">
      <!-- 50 -->
      <g transform="translate(36.251125 66.413969) scale(0.1 -0.1)">
       <use xlink:href="#DejaVuSans-35"/>
       <use xlink:href="#DejaVuSans-30" x="63.623047"/>
      </g>
     </g>
    </g>
    <g id="ytick_4">
     <g id="line2d_9">
      <g>
       <use xlink:href="#m1b9deb3149" x="55.976125" y="39.51475" style="stroke: #000000; stroke-width: 0.8"/>
      </g>
     </g>
     <g id="text_9">
      <!-- 75 -->
      <g transform="translate(36.251125 43.313969) scale(0.1 -0.1)">
       <use xlink:href="#DejaVuSans-37"/>
       <use xlink:href="#DejaVuSans-35" x="63.623047"/>
      </g>
     </g>
    </g>
    <g id="text_10">
     <!-- Tuning -->
     <g transform="translate(16.982921 93.805375) rotate(-90) scale(0.12 -0.12)">
      <defs>
       <path id="DejaVuSans-54" d="M -19 4666 
L 3928 4666 
L 3928 4134 
L 2272 4134 
L 2272 0 
L 1638 0 
L 1638 4134 
L -19 4134 
L -19 4666 
z
" transform="scale(0.015625)"/>
       <path id="DejaVuSans-75" d="M 544 1381 
L 544 3500 
L 1119 3500 
L 1119 1403 
Q 1119 906 1312 657 
Q 1506 409 1894 409 
Q 2359 409 2629 706 
Q 2900 1003 2900 1516 
L 2900 3500 
L 3475 3500 
L 3475 0 
L 2900 0 
L 2900 538 
Q 2691 219 2414 64 
Q 2138 -91 1772 -91 
Q 1169 -91 856 284 
Q 544 659 544 1381 
z
M 1991 3584 
L 1991 3584 
z
" transform="scale(0.015625)"/>
       <path id="DejaVuSans-6e" d="M 3513 2113 
L 3513 0 
L 2938 0 
L 2938 2094 
Q 2938 2591 2744 2837 
Q 2550 3084 2163 3084 
Q 1697 3084 1428 2787 
Q 1159 2491 1159 1978 
L 1159 0 
L 581 0 
L 581 3500 
L 1159 3500 
L 1159 2956 
Q 1366 3272 1645 3428 
Q 1925 3584 2291 3584 
Q 2894 3584 3203 3211 
Q 3513 2838 3513 2113 
z
" transform="scale(0.015625)"/>
       <path id="DejaVuSans-69" d="M 603 3500 
L 1178 3500 
L 1178 0 
L 603 0 
L 603 3500 
z
M 603 4863 
L 1178 4863 
L 1178 4134 
L 603 4134 
L 603 4863 
z
" transform="scale(0.015625)"/>
       <path id="DejaVuSans-67" d="M 2906 1791 
Q 2906 2416 2648 2759 
Q 2391 3103 1925 3103 
Q 1463 3103 1205 2759 
Q 947 2416 947 1791 
Q 947 1169 1205 825 
Q 1463 481 1925 481 
Q 2391 481 2648 825 
Q 2906 1169 2906 1791 
z
M 3481 434 
Q 3481 -459 3084 -895 
Q 2688 -1331 1869 -1331 
Q 1566 -1331 1297 -1286 
Q 1028 -1241 775 -1147 
L 775 -588 
Q 1028 -725 1275 -790 
Q 1522 -856 1778 -856 
Q 2344 -856 2625 -561 
Q 2906 -266 2906 331 
L 2906 616 
Q 2728 306 2450 153 
Q 2172 0 1784 0 
Q 1141 0 747 490 
Q 353 981 353 1791 
Q 353 2603 747 3093 
Q 1141 3584 1784 3584 
Q 2172 3584 2450 3431 
Q 2728 3278 2906 2969 
L 2906 3500 
L 3481 3500 
L 3481 434 
z
" transform="scale(0.015625)"/>
      </defs>
      <use xlink:href="#DejaVuSans-54"/>
      <use xlink:href="#DejaVuSans-75" x="45.958984"/>
      <use xlink:href="#DejaVuSans-6e" x="109.337891"/>
      <use xlink:href="#DejaVuSans-69" x="172.716797"/>
      <use xlink:href="#DejaVuSans-6e" x="200.5"/>
      <use xlink:href="#DejaVuSans-67" x="263.878906"/>
     </g>
     <!-- curve [$Hz$] -->
     <g transform="translate(30.420296 105.24475) rotate(-90) scale(0.12 -0.12)">
      <defs>
       <path id="DejaVuSans-63" d="M 3122 3366 
L 3122 2828 
Q 2878 2963 2633 3030 
Q 2388 3097 2138 3097 
Q 1578 3097 1268 2742 
Q 959 2388 959 1747 
Q 959 1106 1268 751 
Q 1578 397 2138 397 
Q 2388 397 2633 464 
Q 2878 531 3122 666 
L 3122 134 
Q 2881 22 2623 -34 
Q 2366 -91 2075 -91 
Q 1284 -91 818 406 
Q 353 903 353 1747 
Q 353 2603 823 3093 
Q 1294 3584 2113 3584 
Q 2378 3584 2631 3529 
Q 2884 3475 3122 3366 
z
" transform="scale(0.015625)"/>
       <path id="DejaVuSans-72" d="M 2631 2963 
Q 2534 3019 2420 3045 
Q 2306 3072 2169 3072 
Q 1681 3072 1420 2755 
Q 1159 2438 1159 1844 
L 1159 0 
L 581 0 
L 581 3500 
L 1159 3500 
L 1159 2956 
Q 1341 3275 1631 3429 
Q 1922 3584 2338 3584 
Q 2397 3584 2469 3576 
Q 2541 3569 2628 3553 
L 2631 2963 
z
" transform="scale(0.015625)"/>
       <path id="DejaVuSans-76" d="M 191 3500 
L 800 3500 
L 1894 563 
L 2988 3500 
L 3597 3500 
L 2284 0 
L 1503 0 
L 191 3500 
z
" transform="scale(0.015625)"/>
       <path id="DejaVuSans-65" d="M 3597 1894 
L 3597 1613 
L 953 1613 
Q 991 1019 1311 708 
Q 1631 397 2203 397 
Q 2534 397 2845 478 
Q 3156 559 3463 722 
L 3463 178 
Q 3153 47 2828 -22 
Q 2503 -91 2169 -91 
Q 1331 -91 842 396 
Q 353 884 353 1716 
Q 353 2575 817 3079 
Q 1281 3584 2069 3584 
Q 2775 3584 3186 3129 
Q 3597 2675 3597 1894 
z
M 3022 2063 
Q 3016 2534 2758 2815 
Q 2500 3097 2075 3097 
Q 1594 3097 1305 2825 
Q 1016 2553 972 2059 
L 3022 2063 
z
" transform="scale(0.015625)"/>
       <path id="DejaVuSans-20" transform="scale(0.015625)"/>
       <path id="DejaVuSans-5b" d="M 550 4863 
L 1875 4863 
L 1875 4416 
L 1125 4416 
L 1125 -397 
L 1875 -397 
L 1875 -844 
L 550 -844 
L 550 4863 
z
" transform="scale(0.015625)"/>
       <path id="DejaVuSans-Oblique-48" d="M 1081 4666 
L 1716 4666 
L 1344 2753 
L 3634 2753 
L 4006 4666 
L 4641 4666 
L 3731 0 
L 3097 0 
L 3531 2222 
L 1241 2222 
L 806 0 
L 172 0 
L 1081 4666 
z
" transform="scale(0.015625)"/>
       <path id="DejaVuSans-Oblique-7a" d="M 744 3500 
L 3475 3500 
L 3372 2975 
L 738 459 
L 2913 459 
L 2822 0 
L -19 0 
L 84 525 
L 2719 3041 
L 653 3041 
L 744 3500 
z
" transform="scale(0.015625)"/>
       <path id="DejaVuSans-5d" d="M 1947 4863 
L 1947 -844 
L 622 -844 
L 622 -397 
L 1369 -397 
L 1369 4416 
L 622 4416 
L 622 4863 
L 1947 4863 
z
" transform="scale(0.015625)"/>
      </defs>
      <use xlink:href="#DejaVuSans-63" transform="translate(0 0.015625)"/>
      <use xlink:href="#DejaVuSans-75" transform="translate(54.980469 0.015625)"/>
      <use xlink:href="#DejaVuSans-72" transform="translate(118.359375 0.015625)"/>
      <use xlink:href="#DejaVuSans-76" transform="translate(159.472656 0.015625)"/>
      <use xlink:href="#DejaVuSans-65" transform="translate(218.652344 0.015625)"/>
      <use xlink:href="#DejaVuSans-20" transform="translate(280.175781 0.015625)"/>
      <use xlink:href="#DejaVuSans-5b" transform="translate(311.962891 0.015625)"/>
      <use xlink:href="#DejaVuSans-Oblique-48" transform="translate(350.976562 0.015625)"/>
      <use xlink:href="#DejaVuSans-Oblique-7a" transform="translate(426.171875 0.015625)"/>
      <use xlink:href="#DejaVuSans-5d" transform="translate(478.662109 0.015625)"/>
     </g>
    </g>
   </g>
   <g id="line2d_10">
    <path d="M 55.976125 90.992026 
L 57.874084 91.141107 
L 59.772043 91.580204 
L 61.670003 92.285672 
L 63.567962 93.22063 
L 66.414901 94.949522 
L 71.159798 98.260779 
L 74.955717 100.860304 
L 77.802656 102.59598 
L 80.649594 104.078863 
L 83.496533 105.291069 
L 86.343472 106.244963 
L 89.190411 106.971412 
L 92.986329 107.65392 
L 96.782247 108.093855 
L 101.527145 108.419503 
L 108.170003 108.640486 
L 119.557758 108.763095 
L 150.874084 108.79256 
L 173.649594 108.659007 
L 181.241431 108.419503 
L 185.986329 108.093855 
L 189.782247 107.65392 
L 193.578166 106.971412 
L 196.425105 106.244963 
L 199.272043 105.291069 
L 202.118982 104.078863 
L 204.965921 102.59598 
L 207.81286 100.860304 
L 211.608778 98.260779 
L 217.302656 94.338378 
L 220.149594 92.727199 
L 222.047554 91.901671 
L 223.945513 91.325538 
L 225.843472 91.029425 
L 225.843472 91.029425 
" clip-path="url(#p8a10626f83)" style="fill: none; stroke: #440154; stroke-linecap: square"/>
   </g>
   <g id="line2d_11">
    <path d="M 55.976125 93.759848 
L 57.874084 92.727199 
L 59.772043 91.901671 
L 61.670003 91.325538 
L 63.567962 91.029425 
L 65.465921 91.029425 
L 67.36388 91.325538 
L 69.261839 91.901671 
L 71.159798 92.727199 
L 73.057758 93.759848 
L 75.904696 95.586494 
L 85.394492 102.043535 
L 88.241431 103.614496 
L 91.08837 104.916804 
L 93.935309 105.954051 
L 96.782247 106.752195 
L 99.629186 107.348553 
L 103.425105 107.898892 
L 108.170003 108.312242 
L 113.86388 108.568649 
L 123.353676 108.73234 
L 144.231227 108.795316 
L 179.343472 108.70246 
L 187.884288 108.503322 
L 193.578166 108.175499 
L 197.374084 107.78328 
L 201.170003 107.169694 
L 204.016941 106.510538 
L 206.86388 105.636482 
L 209.710819 104.512905 
L 212.557758 103.119996 
L 215.404696 101.464262 
L 219.200615 98.93044 
L 225.843472 94.338378 
L 225.843472 94.338378 
" clip-path="url(#p8a10626f83)" style="fill: none; stroke: #481467; stroke-linecap: square"/>
   </g>
   <g id="line2d_12">
    <path d="M 55.976125 99.589796 
L 64.516941 93.759848 
L 66.414901 92.727199 
L 68.31286 91.901671 
L 70.210819 91.325538 
L 72.108778 91.029425 
L 74.006737 91.029425 
L 75.904696 91.325538 
L 77.802656 91.901671 
L 79.700615 92.727199 
L 81.598574 93.759848 
L 84.445513 95.586494 
L 93.935309 102.043535 
L 96.782247 103.614496 
L 99.629186 104.916804 
L 102.476125 105.954051 
L 105.323064 106.752195 
L 108.170003 107.348553 
L 111.965921 107.898892 
L 116.710819 108.312242 
L 122.404696 108.568649 
L 131.894492 108.73234 
L 152.772043 108.795316 
L 187.884288 108.70246 
L 196.425105 108.503322 
L 202.118982 108.175499 
L 205.914901 107.78328 
L 209.710819 107.169694 
L 212.557758 106.510538 
L 215.404696 105.636482 
L 218.251635 104.512905 
L 221.098574 103.119996 
L 223.945513 101.464262 
L 225.843472 100.234382 
L 225.843472 100.234382 
" clip-path="url(#p8a10626f83)" style="fill: none; stroke: #482576; stroke-linecap: square"/>
   </g>
   <g id="line2d_13">
    <path d="M 55.976125 104.512905 
L 58.823064 103.119996 
L 61.670003 101.464262 
L 65.465921 98.93044 
L 72.108778 94.338378 
L 74.955717 92.727199 
L 76.853676 91.901671 
L 78.751635 91.325538 
L 80.649594 91.029425 
L 82.547554 91.029425 
L 84.445513 91.325538 
L 86.343472 91.901671 
L 88.241431 92.727199 
L 90.13939 93.759848 
L 92.986329 95.586494 
L 102.476125 102.043535 
L 105.323064 103.614496 
L 108.170003 104.916804 
L 111.016941 105.954051 
L 113.86388 106.752195 
L 116.710819 107.348553 
L 120.506737 107.898892 
L 125.251635 108.312242 
L 130.945513 108.568649 
L 140.435309 108.73234 
L 161.31286 108.795316 
L 196.425105 108.70246 
L 204.965921 108.503322 
L 210.659798 108.175499 
L 214.455717 107.78328 
L 218.251635 107.169694 
L 221.098574 106.510538 
L 223.945513 105.636482 
L 225.843472 104.916804 
L 225.843472 104.916804 
" clip-path="url(#p8a10626f83)" style="fill: none; stroke: #453781; stroke-linecap: square"/>
   </g>
   <g id="line2d_14">
    <path d="M 55.976125 107.169694 
L 58.823064 106.510538 
L 61.670003 105.636482 
L 64.516941 104.512905 
L 67.36388 103.119996 
L 70.210819 101.464262 
L 74.006737 98.93044 
L 80.649594 94.338378 
L 83.496533 92.727199 
L 85.394492 91.901671 
L 87.292452 91.325538 
L 89.190411 91.029425 
L 91.08837 91.029425 
L 92.986329 91.325538 
L 94.884288 91.901671 
L 96.782247 92.727199 
L 98.680207 93.759848 
L 101.527145 95.586494 
L 111.016941 102.043535 
L 113.86388 103.614496 
L 116.710819 104.916804 
L 119.557758 105.954051 
L 122.404696 106.752195 
L 125.251635 107.348553 
L 129.047554 107.898892 
L 133.792452 108.312242 
L 139.486329 108.568649 
L 148.976125 108.73234 
L 169.853676 108.795316 
L 204.965921 108.70246 
L 213.506737 108.503322 
L 219.200615 108.175499 
L 222.996533 107.78328 
L 225.843472 107.348553 
L 225.843472 107.348553 
" clip-path="url(#p8a10626f83)" style="fill: none; stroke: #404688; stroke-linecap: square"/>
   </g>
   <g id="line2d_15">
    <path d="M 55.976125 108.24798 
L 60.721023 107.78328 
L 64.516941 107.169694 
L 67.36388 106.510538 
L 70.210819 105.636482 
L 73.057758 104.512905 
L 75.904696 103.119996 
L 78.751635 101.464262 
L 82.547554 98.93044 
L 89.190411 94.338378 
L 92.037349 92.727199 
L 93.935309 91.901671 
L 95.833268 91.325538 
L 97.731227 91.029425 
L 99.629186 91.029425 
L 101.527145 91.325538 
L 103.425105 91.901671 
L 105.323064 92.727199 
L 107.221023 93.759848 
L 110.067962 95.586494 
L 119.557758 102.043535 
L 122.404696 103.614496 
L 125.251635 104.916804 
L 128.098574 105.954051 
L 130.945513 106.752195 
L 133.792452 107.348553 
L 137.58837 107.898892 
L 142.333268 108.312242 
L 148.027145 108.568649 
L 157.516941 108.73234 
L 178.394492 108.795316 
L 213.506737 108.70246 
L 222.047554 108.503322 
L 225.843472 108.312242 
L 225.843472 108.312242 
" clip-path="url(#p8a10626f83)" style="fill: none; stroke: #39558c; stroke-linecap: square"/>
   </g>
   <g id="line2d_16">
    <path d="M 55.976125 108.619481 
L 62.618982 108.369153 
L 67.36388 108.002022 
L 71.159798 107.509478 
L 74.006737 106.971412 
L 76.853676 106.244963 
L 79.700615 105.291069 
L 82.547554 104.078863 
L 85.394492 102.59598 
L 88.241431 100.860304 
L 92.037349 98.260779 
L 97.731227 94.338378 
L 100.578166 92.727199 
L 102.476125 91.901671 
L 104.374084 91.325538 
L 106.272043 91.029425 
L 108.170003 91.029425 
L 110.067962 91.325538 
L 111.965921 91.901671 
L 113.86388 92.727199 
L 115.761839 93.759848 
L 118.608778 95.586494 
L 128.098574 102.043535 
L 130.945513 103.614496 
L 133.792452 104.916804 
L 136.63939 105.954051 
L 139.486329 106.752195 
L 142.333268 107.348553 
L 146.129186 107.898892 
L 150.874084 108.312242 
L 156.567962 108.568649 
L 166.057758 108.73234 
L 186.935309 108.795316 
L 222.047554 108.70246 
L 225.843472 108.640486 
L 225.843472 108.640486 
" clip-path="url(#p8a10626f83)" style="fill: none; stroke: #33638d; stroke-linecap: square"/>
   </g>
   <g id="line2d_17">
    <path d="M 55.976125 108.740078 
L 67.36388 108.538027 
L 73.057758 108.24798 
L 77.802656 107.78328 
L 81.598574 107.169694 
L 84.445513 106.510538 
L 87.292452 105.636482 
L 90.13939 104.512905 
L 92.986329 103.119996 
L 95.833268 101.464262 
L 99.629186 98.93044 
L 106.272043 94.338378 
L 109.118982 92.727199 
L 111.016941 91.901671 
L 112.914901 91.325538 
L 114.81286 91.029425 
L 116.710819 91.029425 
L 118.608778 91.325538 
L 120.506737 91.901671 
L 122.404696 92.727199 
L 124.302656 93.759848 
L 127.149594 95.586494 
L 136.63939 102.043535 
L 139.486329 103.614496 
L 142.333268 104.916804 
L 145.180207 105.954051 
L 148.027145 106.752195 
L 150.874084 107.348553 
L 154.670003 107.898892 
L 159.414901 108.312242 
L 165.108778 108.568649 
L 174.598574 108.73234 
L 195.476125 108.795316 
L 225.843472 108.746921 
L 225.843472 108.746921 
" clip-path="url(#p8a10626f83)" style="fill: none; stroke: #2d718e; stroke-linecap: square"/>
   </g>
   <g id="line2d_18">
    <path d="M 55.976125 108.779928 
L 72.108778 108.640486 
L 79.700615 108.369153 
L 84.445513 108.002022 
L 88.241431 107.509478 
L 91.08837 106.971412 
L 93.935309 106.244963 
L 96.782247 105.291069 
L 99.629186 104.078863 
L 102.476125 102.59598 
L 105.323064 100.860304 
L 109.118982 98.260779 
L 114.81286 94.338378 
L 117.659798 92.727199 
L 119.557758 91.901671 
L 121.455717 91.325538 
L 123.353676 91.029425 
L 125.251635 91.029425 
L 127.149594 91.325538 
L 129.047554 91.901671 
L 130.945513 92.727199 
L 132.843472 93.759848 
L 135.690411 95.586494 
L 145.180207 102.043535 
L 148.027145 103.614496 
L 150.874084 104.916804 
L 153.721023 105.954051 
L 156.567962 106.752195 
L 159.414901 107.348553 
L 163.210819 107.898892 
L 167.955717 108.312242 
L 173.649594 108.568649 
L 183.13939 108.73234 
L 204.016941 108.795316 
L 225.843472 108.782251 
L 225.843472 108.782251 
" clip-path="url(#p8a10626f83)" style="fill: none; stroke: #287d8e; stroke-linecap: square"/>
   </g>
   <g id="line2d_19">
    <path d="M 55.976125 108.793413 
L 78.751635 108.675341 
L 87.292452 108.419503 
L 92.037349 108.093855 
L 95.833268 107.65392 
L 99.629186 106.971412 
L 102.476125 106.244963 
L 105.323064 105.291069 
L 108.170003 104.078863 
L 111.016941 102.59598 
L 113.86388 100.860304 
L 117.659798 98.260779 
L 123.353676 94.338378 
L 126.200615 92.727199 
L 128.098574 91.901671 
L 129.996533 91.325538 
L 131.894492 91.029425 
L 133.792452 91.029425 
L 135.690411 91.325538 
L 137.58837 91.901671 
L 139.486329 92.727199 
L 141.384288 93.759848 
L 144.231227 95.586494 
L 153.721023 102.043535 
L 156.567962 103.614496 
L 159.414901 104.916804 
L 162.261839 105.954051 
L 165.108778 106.752195 
L 167.955717 107.348553 
L 171.751635 107.898892 
L 176.496533 108.312242 
L 182.190411 108.568649 
L 191.680207 108.73234 
L 212.557758 108.795316 
L 225.843472 108.794151 
L 225.843472 108.794151 
" clip-path="url(#p8a10626f83)" style="fill: none; stroke: #238a8d; stroke-linecap: square"/>
   </g>
   <g id="line2d_20">
    <path d="M 55.976125 108.796726 
L 86.343472 108.689748 
L 94.884288 108.46401 
L 100.578166 108.093855 
L 104.374084 107.65392 
L 108.170003 106.971412 
L 111.016941 106.244963 
L 113.86388 105.291069 
L 116.710819 104.078863 
L 119.557758 102.59598 
L 122.404696 100.860304 
L 126.200615 98.260779 
L 131.894492 94.338378 
L 134.741431 92.727199 
L 136.63939 91.901671 
L 138.537349 91.325538 
L 140.435309 91.029425 
L 142.333268 91.029425 
L 144.231227 91.325538 
L 146.129186 91.901671 
L 148.027145 92.727199 
L 149.925105 93.759848 
L 152.772043 95.586494 
L 162.261839 102.043535 
L 165.108778 103.614496 
L 167.955717 104.916804 
L 170.802656 105.954051 
L 173.649594 106.752195 
L 176.496533 107.348553 
L 180.292452 107.898892 
L 185.037349 108.312242 
L 190.731227 108.568649 
L 200.221023 108.73234 
L 221.098574 108.795316 
L 225.843472 108.796689 
L 225.843472 108.796689 
" clip-path="url(#p8a10626f83)" style="fill: none; stroke: #1f968b; stroke-linecap: square"/>
   </g>
   <g id="line2d_21">
    <path d="M 55.976125 108.793413 
L 92.986329 108.71368 
L 102.476125 108.503322 
L 108.170003 108.175499 
L 111.965921 107.78328 
L 115.761839 107.169694 
L 118.608778 106.510538 
L 121.455717 105.636482 
L 124.302656 104.512905 
L 127.149594 103.119996 
L 129.996533 101.464262 
L 133.792452 98.93044 
L 140.435309 94.338378 
L 143.282247 92.727199 
L 145.180207 91.901671 
L 147.078166 91.325538 
L 148.976125 91.029425 
L 150.874084 91.029425 
L 152.772043 91.325538 
L 154.670003 91.901671 
L 156.567962 92.727199 
L 158.465921 93.759848 
L 161.31286 95.586494 
L 170.802656 102.043535 
L 173.649594 103.614496 
L 176.496533 104.916804 
L 179.343472 105.954051 
L 182.190411 106.752195 
L 185.037349 107.348553 
L 188.833268 107.898892 
L 193.578166 108.312242 
L 199.272043 108.568649 
L 208.761839 108.73234 
L 225.843472 108.79256 
L 225.843472 108.79256 
" clip-path="url(#p8a10626f83)" style="fill: none; stroke: #20a386; stroke-linecap: square"/>
   </g>
   <g id="line2d_22">
    <path d="M 55.976125 108.779928 
L 93.935309 108.76731 
L 108.170003 108.595661 
L 114.81286 108.312242 
L 119.557758 107.898892 
L 123.353676 107.348553 
L 126.200615 106.752195 
L 129.047554 105.954051 
L 131.894492 104.916804 
L 134.741431 103.614496 
L 137.58837 102.043535 
L 140.435309 100.234382 
L 146.129186 96.242548 
L 148.976125 94.338378 
L 151.823064 92.727199 
L 153.721023 91.901671 
L 155.618982 91.325538 
L 157.516941 91.029425 
L 159.414901 91.029425 
L 161.31286 91.325538 
L 163.210819 91.901671 
L 165.108778 92.727199 
L 167.006737 93.759848 
L 169.853676 95.586494 
L 179.343472 102.043535 
L 182.190411 103.614496 
L 185.037349 104.916804 
L 187.884288 105.954051 
L 190.731227 106.752195 
L 193.578166 107.348553 
L 197.374084 107.898892 
L 202.118982 108.312242 
L 207.81286 108.568649 
L 217.302656 108.73234 
L 225.843472 108.777312 
L 225.843472 108.777312 
" clip-path="url(#p8a10626f83)" style="fill: none; stroke: #29af7f; stroke-linecap: square"/>
   </g>
   <g id="line2d_23">
    <path d="M 55.976125 108.740078 
L 78.751635 108.796383 
L 111.016941 108.70246 
L 119.557758 108.503322 
L 125.251635 108.175499 
L 129.047554 107.78328 
L 132.843472 107.169694 
L 135.690411 106.510538 
L 138.537349 105.636482 
L 141.384288 104.512905 
L 144.231227 103.119996 
L 147.078166 101.464262 
L 150.874084 98.93044 
L 157.516941 94.338378 
L 160.36388 92.727199 
L 162.261839 91.901671 
L 164.159798 91.325538 
L 166.057758 91.029425 
L 167.955717 91.029425 
L 169.853676 91.325538 
L 171.751635 91.901671 
L 173.649594 92.727199 
L 175.547554 93.759848 
L 178.394492 95.586494 
L 187.884288 102.043535 
L 190.731227 103.614496 
L 193.578166 104.916804 
L 196.425105 105.954051 
L 199.272043 106.752195 
L 202.118982 107.348553 
L 205.914901 107.898892 
L 210.659798 108.312242 
L 216.353676 108.568649 
L 225.843472 108.73234 
L 225.843472 108.73234 
" clip-path="url(#p8a10626f83)" style="fill: none; stroke: #3dbc74; stroke-linecap: square"/>
   </g>
   <g id="line2d_24">
    <path d="M 55.976125 108.619481 
L 66.414901 108.752978 
L 92.986329 108.796383 
L 120.506737 108.689748 
L 129.047554 108.46401 
L 134.741431 108.093855 
L 138.537349 107.65392 
L 142.333268 106.971412 
L 145.180207 106.244963 
L 148.027145 105.291069 
L 150.874084 104.078863 
L 153.721023 102.59598 
L 156.567962 100.860304 
L 160.36388 98.260779 
L 166.057758 94.338378 
L 168.904696 92.727199 
L 170.802656 91.901671 
L 172.700615 91.325538 
L 174.598574 91.029425 
L 176.496533 91.029425 
L 178.394492 91.325538 
L 180.292452 91.901671 
L 182.190411 92.727199 
L 184.08837 93.759848 
L 186.935309 95.586494 
L 196.425105 102.043535 
L 199.272043 103.614496 
L 202.118982 104.916804 
L 204.965921 105.954051 
L 207.81286 106.752195 
L 210.659798 107.348553 
L 214.455717 107.898892 
L 219.200615 108.312242 
L 224.894492 108.568649 
L 225.843472 108.595661 
L 225.843472 108.595661 
" clip-path="url(#p8a10626f83)" style="fill: none; stroke: #56c667; stroke-linecap: square"/>
   </g>
   <g id="line2d_25">
    <path d="M 55.976125 108.24798 
L 61.670003 108.538027 
L 70.210819 108.71368 
L 88.241431 108.791582 
L 126.200615 108.723587 
L 135.690411 108.538027 
L 141.384288 108.24798 
L 146.129186 107.78328 
L 149.925105 107.169694 
L 152.772043 106.510538 
L 155.618982 105.636482 
L 158.465921 104.512905 
L 161.31286 103.119996 
L 164.159798 101.464262 
L 167.955717 98.93044 
L 174.598574 94.338378 
L 177.445513 92.727199 
L 179.343472 91.901671 
L 181.241431 91.325538 
L 183.13939 91.029425 
L 185.037349 91.029425 
L 186.935309 91.325538 
L 188.833268 91.901671 
L 190.731227 92.727199 
L 192.629186 93.759848 
L 195.476125 95.586494 
L 204.965921 102.043535 
L 207.81286 103.614496 
L 210.659798 104.916804 
L 213.506737 105.954051 
L 216.353676 106.752195 
L 219.200615 107.348553 
L 222.996533 107.898892 
L 225.843472 108.175499 
L 225.843472 108.175499 
" clip-path="url(#p8a10626f83)" style="fill: none; stroke: #75d054; stroke-linecap: square"/>
   </g>
   <g id="line2d_26">
    <path d="M 55.976125 107.169694 
L 59.772043 107.78328 
L 63.567962 108.175499 
L 69.261839 108.503322 
L 76.853676 108.689748 
L 92.037349 108.784313 
L 130.945513 108.752978 
L 143.282247 108.568649 
L 149.925105 108.24798 
L 154.670003 107.78328 
L 158.465921 107.169694 
L 161.31286 106.510538 
L 164.159798 105.636482 
L 167.006737 104.512905 
L 169.853676 103.119996 
L 172.700615 101.464262 
L 176.496533 98.93044 
L 183.13939 94.338378 
L 185.986329 92.727199 
L 187.884288 91.901671 
L 189.782247 91.325538 
L 191.680207 91.029425 
L 193.578166 91.029425 
L 195.476125 91.325538 
L 197.374084 91.901671 
L 199.272043 92.727199 
L 201.170003 93.759848 
L 204.016941 95.586494 
L 213.506737 102.043535 
L 216.353676 103.614496 
L 219.200615 104.916804 
L 222.047554 105.954051 
L 224.894492 106.752195 
L 225.843472 106.971412 
L 225.843472 106.971412 
" clip-path="url(#p8a10626f83)" style="fill: none; stroke: #95d840; stroke-linecap: square"/>
   </g>
   <g id="line2d_27">
    <path d="M 55.976125 104.512905 
L 58.823064 105.636482 
L 61.670003 106.510538 
L 64.516941 107.169694 
L 68.31286 107.78328 
L 72.108778 108.175499 
L 77.802656 108.503322 
L 85.394492 108.689748 
L 100.578166 108.784313 
L 139.486329 108.752978 
L 151.823064 108.568649 
L 158.465921 108.24798 
L 163.210819 107.78328 
L 167.006737 107.169694 
L 169.853676 106.510538 
L 172.700615 105.636482 
L 175.547554 104.512905 
L 178.394492 103.119996 
L 181.241431 101.464262 
L 185.037349 98.93044 
L 191.680207 94.338378 
L 194.527145 92.727199 
L 196.425105 91.901671 
L 198.323064 91.325538 
L 200.221023 91.029425 
L 202.118982 91.029425 
L 204.016941 91.325538 
L 205.914901 91.901671 
L 207.81286 92.727199 
L 209.710819 93.759848 
L 212.557758 95.586494 
L 222.047554 102.043535 
L 224.894492 103.614496 
L 225.843472 104.078863 
L 225.843472 104.078863 
" clip-path="url(#p8a10626f83)" style="fill: none; stroke: #bade28; stroke-linecap: square"/>
   </g>
   <g id="line2d_28">
    <path d="M 55.976125 99.589796 
L 59.772043 102.043535 
L 62.618982 103.614496 
L 65.465921 104.916804 
L 68.31286 105.954051 
L 71.159798 106.752195 
L 74.006737 107.348553 
L 77.802656 107.898892 
L 82.547554 108.312242 
L 88.241431 108.568649 
L 97.731227 108.73234 
L 118.608778 108.795316 
L 153.721023 108.70246 
L 162.261839 108.503322 
L 167.955717 108.175499 
L 171.751635 107.78328 
L 175.547554 107.169694 
L 178.394492 106.510538 
L 181.241431 105.636482 
L 184.08837 104.512905 
L 186.935309 103.119996 
L 189.782247 101.464262 
L 193.578166 98.93044 
L 200.221023 94.338378 
L 203.067962 92.727199 
L 204.965921 91.901671 
L 206.86388 91.325538 
L 208.761839 91.029425 
L 210.659798 91.029425 
L 212.557758 91.325538 
L 214.455717 91.901671 
L 216.353676 92.727199 
L 218.251635 93.759848 
L 221.098574 95.586494 
L 225.843472 98.93044 
L 225.843472 98.93044 
" clip-path="url(#p8a10626f83)" style="fill: none; stroke: #dde318; stroke-linecap: square"/>
   </g>
   <g id="line2d_29">
    <path d="M 55.976125 93.759848 
L 58.823064 95.586494 
L 68.31286 102.043535 
L 71.159798 103.614496 
L 74.006737 104.916804 
L 76.853676 105.954051 
L 79.700615 106.752195 
L 82.547554 107.348553 
L 86.343472 107.898892 
L 91.08837 108.312242 
L 96.782247 108.568649 
L 106.272043 108.73234 
L 127.149594 108.795316 
L 162.261839 108.70246 
L 170.802656 108.503322 
L 176.496533 108.175499 
L 180.292452 107.78328 
L 184.08837 107.169694 
L 186.935309 106.510538 
L 189.782247 105.636482 
L 192.629186 104.512905 
L 195.476125 103.119996 
L 198.323064 101.464262 
L 202.118982 98.93044 
L 208.761839 94.338378 
L 211.608778 92.727199 
L 213.506737 91.901671 
L 215.404696 91.325538 
L 217.302656 91.029425 
L 219.200615 91.029425 
L 221.098574 91.325538 
L 222.996533 91.901671 
L 224.894492 92.727199 
L 225.843472 93.22063 
L 225.843472 93.22063 
" clip-path="url(#p8a10626f83)" style="fill: none; stroke: #fde725; stroke-linecap: square"/>
   </g>
   <g id="patch_3">
    <path d="M 55.976125 108.81475 
L 55.976125 39.51475 
" style="fill: none; stroke: #000000; stroke-width: 0.8; stroke-linejoin: miter; stroke-linecap: square"/>
   </g>
   <g id="patch_4">
    <path d="M 55.976125 108.81475 
L 226.792452 108.81475 
" style="fill: none; stroke: #000000; stroke-width: 0.8; stroke-linejoin: miter; stroke-linecap: square"/>
   </g>
   <g id="text_11">
    <!-- MT direction tuning  -->
    <g transform="translate(71.280382 17.837812) scale(0.14 -0.14)">
     <defs>
      <path id="DejaVuSans-4d" d="M 628 4666 
L 1569 4666 
L 2759 1491 
L 3956 4666 
L 4897 4666 
L 4897 0 
L 4281 0 
L 4281 4097 
L 3078 897 
L 2444 897 
L 1241 4097 
L 1241 0 
L 628 0 
L 628 4666 
z
" transform="scale(0.015625)"/>
      <path id="DejaVuSans-64" d="M 2906 2969 
L 2906 4863 
L 3481 4863 
L 3481 0 
L 2906 0 
L 2906 525 
Q 2725 213 2448 61 
Q 2172 -91 1784 -91 
Q 1150 -91 751 415 
Q 353 922 353 1747 
Q 353 2572 751 3078 
Q 1150 3584 1784 3584 
Q 2172 3584 2448 3432 
Q 2725 3281 2906 2969 
z
M 947 1747 
Q 947 1113 1208 752 
Q 1469 391 1925 391 
Q 2381 391 2643 752 
Q 2906 1113 2906 1747 
Q 2906 2381 2643 2742 
Q 2381 3103 1925 3103 
Q 1469 3103 1208 2742 
Q 947 2381 947 1747 
z
" transform="scale(0.015625)"/>
      <path id="DejaVuSans-74" d="M 1172 4494 
L 1172 3500 
L 2356 3500 
L 2356 3053 
L 1172 3053 
L 1172 1153 
Q 1172 725 1289 603 
Q 1406 481 1766 481 
L 2356 481 
L 2356 0 
L 1766 0 
Q 1100 0 847 248 
Q 594 497 594 1153 
L 594 3053 
L 172 3053 
L 172 3500 
L 594 3500 
L 594 4494 
L 1172 4494 
z
" transform="scale(0.015625)"/>
      <path id="DejaVuSans-6f" d="M 1959 3097 
Q 1497 3097 1228 2736 
Q 959 2375 959 1747 
Q 959 1119 1226 758 
Q 1494 397 1959 397 
Q 2419 397 2687 759 
Q 2956 1122 2956 1747 
Q 2956 2369 2687 2733 
Q 2419 3097 1959 3097 
z
M 1959 3584 
Q 2709 3584 3137 3096 
Q 3566 2609 3566 1747 
Q 3566 888 3137 398 
Q 2709 -91 1959 -91 
Q 1206 -91 779 398 
Q 353 888 353 1747 
Q 353 2609 779 3096 
Q 1206 3584 1959 3584 
z
" transform="scale(0.015625)"/>
     </defs>
     <use xlink:href="#DejaVuSans-4d"/>
     <use xlink:href="#DejaVuSans-54" x="86.279297"/>
     <use xlink:href="#DejaVuSans-20" x="147.363281"/>
     <use xlink:href="#DejaVuSans-64" x="179.150391"/>
     <use xlink:href="#DejaVuSans-69" x="242.626953"/>
     <use xlink:href="#DejaVuSans-72" x="270.410156"/>
     <use xlink:href="#DejaVuSans-65" x="309.273438"/>
     <use xlink:href="#DejaVuSans-63" x="370.796875"/>
     <use xlink:href="#DejaVuSans-74" x="425.777344"/>
     <use xlink:href="#DejaVuSans-69" x="464.986328"/>
     <use xlink:href="#DejaVuSans-6f" x="492.769531"/>
     <use xlink:href="#DejaVuSans-6e" x="553.951172"/>
     <use xlink:href="#DejaVuSans-20" x="617.330078"/>
     <use xlink:href="#DejaVuSans-74" x="649.117188"/>
     <use xlink:href="#DejaVuSans-75" x="688.326172"/>
     <use xlink:href="#DejaVuSans-6e" x="751.705078"/>
     <use xlink:href="#DejaVuSans-69" x="815.083984"/>
     <use xlink:href="#DejaVuSans-6e" x="842.867188"/>
     <use xlink:href="#DejaVuSans-67" x="906.246094"/>
     <use xlink:href="#DejaVuSans-20" x="969.722656"/>
    </g>
    <!-- (across-species) -->
    <g transform="translate(84.816632 33.51475) scale(0.14 -0.14)">
     <defs>
      <path id="DejaVuSans-28" d="M 1984 4856 
Q 1566 4138 1362 3434 
Q 1159 2731 1159 2009 
Q 1159 1288 1364 580 
Q 1569 -128 1984 -844 
L 1484 -844 
Q 1016 -109 783 600 
Q 550 1309 550 2009 
Q 550 2706 781 3412 
Q 1013 4119 1484 4856 
L 1984 4856 
z
" transform="scale(0.015625)"/>
      <path id="DejaVuSans-61" d="M 2194 1759 
Q 1497 1759 1228 1600 
Q 959 1441 959 1056 
Q 959 750 1161 570 
Q 1363 391 1709 391 
Q 2188 391 2477 730 
Q 2766 1069 2766 1631 
L 2766 1759 
L 2194 1759 
z
M 3341 1997 
L 3341 0 
L 2766 0 
L 2766 531 
Q 2569 213 2275 61 
Q 1981 -91 1556 -91 
Q 1019 -91 701 211 
Q 384 513 384 1019 
Q 384 1609 779 1909 
Q 1175 2209 1959 2209 
L 2766 2209 
L 2766 2266 
Q 2766 2663 2505 2880 
Q 2244 3097 1772 3097 
Q 1472 3097 1187 3025 
Q 903 2953 641 2809 
L 641 3341 
Q 956 3463 1253 3523 
Q 1550 3584 1831 3584 
Q 2591 3584 2966 3190 
Q 3341 2797 3341 1997 
z
" transform="scale(0.015625)"/>
      <path id="DejaVuSans-73" d="M 2834 3397 
L 2834 2853 
Q 2591 2978 2328 3040 
Q 2066 3103 1784 3103 
Q 1356 3103 1142 2972 
Q 928 2841 928 2578 
Q 928 2378 1081 2264 
Q 1234 2150 1697 2047 
L 1894 2003 
Q 2506 1872 2764 1633 
Q 3022 1394 3022 966 
Q 3022 478 2636 193 
Q 2250 -91 1575 -91 
Q 1294 -91 989 -36 
Q 684 19 347 128 
L 347 722 
Q 666 556 975 473 
Q 1284 391 1588 391 
Q 1994 391 2212 530 
Q 2431 669 2431 922 
Q 2431 1156 2273 1281 
Q 2116 1406 1581 1522 
L 1381 1569 
Q 847 1681 609 1914 
Q 372 2147 372 2553 
Q 372 3047 722 3315 
Q 1072 3584 1716 3584 
Q 2034 3584 2315 3537 
Q 2597 3491 2834 3397 
z
" transform="scale(0.015625)"/>
      <path id="DejaVuSans-2d" d="M 313 2009 
L 1997 2009 
L 1997 1497 
L 313 1497 
L 313 2009 
z
" transform="scale(0.015625)"/>
      <path id="DejaVuSans-70" d="M 1159 525 
L 1159 -1331 
L 581 -1331 
L 581 3500 
L 1159 3500 
L 1159 2969 
Q 1341 3281 1617 3432 
Q 1894 3584 2278 3584 
Q 2916 3584 3314 3078 
Q 3713 2572 3713 1747 
Q 3713 922 3314 415 
Q 2916 -91 2278 -91 
Q 1894 -91 1617 61 
Q 1341 213 1159 525 
z
M 3116 1747 
Q 3116 2381 2855 2742 
Q 2594 3103 2138 3103 
Q 1681 3103 1420 2742 
Q 1159 2381 1159 1747 
Q 1159 1113 1420 752 
Q 1681 391 2138 391 
Q 2594 391 2855 752 
Q 3116 1113 3116 1747 
z
" transform="scale(0.015625)"/>
      <path id="DejaVuSans-29" d="M 513 4856 
L 1013 4856 
Q 1481 4119 1714 3412 
Q 1947 2706 1947 2009 
Q 1947 1309 1714 600 
Q 1481 -109 1013 -844 
L 513 -844 
Q 928 -128 1133 580 
Q 1338 1288 1338 2009 
Q 1338 2731 1133 3434 
Q 928 4138 513 4856 
z
" transform="scale(0.015625)"/>
     </defs>
     <use xlink:href="#DejaVuSans-28"/>
     <use xlink:href="#DejaVuSans-61" x="39.013672"/>
     <use xlink:href="#DejaVuSans-63" x="100.292969"/>
     <use xlink:href="#DejaVuSans-72" x="155.273438"/>
     <use xlink:href="#DejaVuSans-6f" x="194.136719"/>
     <use xlink:href="#DejaVuSans-73" x="255.318359"/>
     <use xlink:href="#DejaVuSans-73" x="307.417969"/>
     <use xlink:href="#DejaVuSans-2d" x="359.517578"/>
     <use xlink:href="#DejaVuSans-73" x="395.601562"/>
     <use xlink:href="#DejaVuSans-70" x="447.701172"/>
     <use xlink:href="#DejaVuSans-65" x="511.177734"/>
     <use xlink:href="#DejaVuSans-63" x="572.701172"/>
     <use xlink:href="#DejaVuSans-69" x="627.681641"/>
     <use xlink:href="#DejaVuSans-65" x="655.464844"/>
     <use xlink:href="#DejaVuSans-73" x="716.988281"/>
     <use xlink:href="#DejaVuSans-29" x="769.087891"/>
    </g>
   </g>
  </g>
  <g id="axes_2">
   <g id="patch_5">
    <path d="M 55.976125 230.08975 
L 226.792452 230.08975 
L 226.792452 160.78975 
L 55.976125 160.78975 
z
" style="fill: #ffffff"/>
   </g>
   <g id="matplotlib.axis_3">
    <g id="xtick_6">
     <g id="line2d_30">
      <g>
       <use xlink:href="#m16a4b1506b" x="55.976125" y="230.08975" style="stroke: #000000; stroke-width: 0.8"/>
      </g>
     </g>
     <g id="text_12">
      <!-- 0 -->
      <g transform="translate(52.794875 244.688187) scale(0.1 -0.1)">
       <use xlink:href="#DejaVuSans-30"/>
      </g>
     </g>
    </g>
    <g id="xtick_7">
     <g id="line2d_31">
      <g>
       <use xlink:href="#m16a4b1506b" x="98.680207" y="230.08975" style="stroke: #000000; stroke-width: 0.8"/>
      </g>
     </g>
     <g id="text_13">
      <!-- 90 -->
      <g transform="translate(92.317707 244.688187) scale(0.1 -0.1)">
       <use xlink:href="#DejaVuSans-39"/>
       <use xlink:href="#DejaVuSans-30" x="63.623047"/>
      </g>
     </g>
    </g>
    <g id="xtick_8">
     <g id="line2d_32">
      <g>
       <use xlink:href="#m16a4b1506b" x="141.384288" y="230.08975" style="stroke: #000000; stroke-width: 0.8"/>
      </g>
     </g>
     <g id="text_14">
      <!-- 180 -->
      <g transform="translate(131.840538 244.688187) scale(0.1 -0.1)">
       <use xlink:href="#DejaVuSans-31"/>
       <use xlink:href="#DejaVuSans-38" x="63.623047"/>
       <use xlink:href="#DejaVuSans-30" x="127.246094"/>
      </g>
     </g>
    </g>
    <g id="xtick_9">
     <g id="line2d_33">
      <g>
       <use xlink:href="#m16a4b1506b" x="184.08837" y="230.08975" style="stroke: #000000; stroke-width: 0.8"/>
      </g>
     </g>
     <g id="text_15">
      <!-- 270 -->
      <g transform="translate(174.54462 244.688187) scale(0.1 -0.1)">
       <use xlink:href="#DejaVuSans-32"/>
       <use xlink:href="#DejaVuSans-37" x="63.623047"/>
       <use xlink:href="#DejaVuSans-30" x="127.246094"/>
      </g>
     </g>
    </g>
    <g id="xtick_10">
     <g id="line2d_34">
      <g>
       <use xlink:href="#m16a4b1506b" x="226.792452" y="230.08975" style="stroke: #000000; stroke-width: 0.8"/>
      </g>
     </g>
     <g id="text_16">
      <!-- 360 -->
      <g transform="translate(217.248702 244.688187) scale(0.1 -0.1)">
       <use xlink:href="#DejaVuSans-33"/>
       <use xlink:href="#DejaVuSans-36" x="63.623047"/>
       <use xlink:href="#DejaVuSans-30" x="127.246094"/>
      </g>
     </g>
    </g>
   </g>
   <g id="matplotlib.axis_4">
    <g id="ytick_5">
     <g id="line2d_35">
      <g>
       <use xlink:href="#m1b9deb3149" x="55.976125" y="230.08975" style="stroke: #000000; stroke-width: 0.8"/>
      </g>
     </g>
     <g id="text_17">
      <!-- 0.0 -->
      <g style="fill: #ff00ff" transform="translate(33.073 233.888969) scale(0.1 -0.1)">
       <defs>
        <path id="DejaVuSans-2e" d="M 684 794 
L 1344 794 
L 1344 0 
L 684 0 
L 684 794 
z
" transform="scale(0.015625)"/>
       </defs>
       <use xlink:href="#DejaVuSans-30"/>
       <use xlink:href="#DejaVuSans-2e" x="63.623047"/>
       <use xlink:href="#DejaVuSans-30" x="95.410156"/>
      </g>
     </g>
    </g>
    <g id="ytick_6">
     <g id="line2d_36">
      <g>
       <use xlink:href="#m1b9deb3149" x="55.976125" y="195.43975" style="stroke: #000000; stroke-width: 0.8"/>
      </g>
     </g>
     <g id="text_18">
      <!-- 0.5 -->
      <g style="fill: #ff00ff" transform="translate(33.073 199.238969) scale(0.1 -0.1)">
       <use xlink:href="#DejaVuSans-30"/>
       <use xlink:href="#DejaVuSans-2e" x="63.623047"/>
       <use xlink:href="#DejaVuSans-35" x="95.410156"/>
      </g>
     </g>
    </g>
    <g id="ytick_7">
     <g id="line2d_37">
      <g>
       <use xlink:href="#m1b9deb3149" x="55.976125" y="160.78975" style="stroke: #000000; stroke-width: 0.8"/>
      </g>
     </g>
     <g id="text_19">
      <!-- 1.0 -->
      <g style="fill: #ff00ff" transform="translate(33.073 164.588969) scale(0.1 -0.1)">
       <use xlink:href="#DejaVuSans-31"/>
       <use xlink:href="#DejaVuSans-2e" x="63.623047"/>
       <use xlink:href="#DejaVuSans-30" x="95.410156"/>
      </g>
     </g>
    </g>
   </g>
   <g id="patch_6">
    <path d="M 55.976125 230.08975 
L 55.976125 160.78975 
" style="fill: none; stroke: #000000; stroke-width: 0.8; stroke-linejoin: miter; stroke-linecap: square"/>
   </g>
   <g id="patch_7">
    <path d="M 55.976125 230.08975 
L 226.792452 230.08975 
" style="fill: none; stroke: #000000; stroke-width: 0.8; stroke-linejoin: miter; stroke-linecap: square"/>
   </g>
  </g>
  <g id="axes_3">
   <g id="matplotlib.axis_5">
    <g id="ytick_8">
     <g id="line2d_38">
      <defs>
       <path id="mc2c400119f" d="M 0 0 
L 3.5 0 
" style="stroke: #000000; stroke-width: 0.8"/>
      </defs>
      <g>
       <use xlink:href="#mc2c400119f" x="226.792452" y="229.295853" style="stroke: #000000; stroke-width: 0.8"/>
      </g>
     </g>
     <g id="text_20">
      <!-- 0.076300 -->
      <g style="fill: #ffa500" transform="translate(233.792452 233.095072) scale(0.1 -0.1)">
       <use xlink:href="#DejaVuSans-30"/>
       <use xlink:href="#DejaVuSans-2e" x="63.623047"/>
       <use xlink:href="#DejaVuSans-30" x="95.410156"/>
       <use xlink:href="#DejaVuSans-37" x="159.033203"/>
       <use xlink:href="#DejaVuSans-36" x="222.65625"/>
       <use xlink:href="#DejaVuSans-33" x="286.279297"/>
       <use xlink:href="#DejaVuSans-30" x="349.902344"/>
       <use xlink:href="#DejaVuSans-30" x="413.525391"/>
      </g>
     </g>
    </g>
    <g id="ytick_9">
     <g id="line2d_39">
      <g>
       <use xlink:href="#mc2c400119f" x="226.792452" y="205.43874" style="stroke: #000000; stroke-width: 0.8"/>
      </g>
     </g>
     <g id="text_21">
      <!-- 0.076325 -->
      <g style="fill: #ffa500" transform="translate(233.792452 209.237959) scale(0.1 -0.1)">
       <use xlink:href="#DejaVuSans-30"/>
       <use xlink:href="#DejaVuSans-2e" x="63.623047"/>
       <use xlink:href="#DejaVuSans-30" x="95.410156"/>
       <use xlink:href="#DejaVuSans-37" x="159.033203"/>
       <use xlink:href="#DejaVuSans-36" x="222.65625"/>
       <use xlink:href="#DejaVuSans-33" x="286.279297"/>
       <use xlink:href="#DejaVuSans-32" x="349.902344"/>
       <use xlink:href="#DejaVuSans-35" x="413.525391"/>
      </g>
     </g>
    </g>
    <g id="ytick_10">
     <g id="line2d_40">
      <g>
       <use xlink:href="#mc2c400119f" x="226.792452" y="181.581626" style="stroke: #000000; stroke-width: 0.8"/>
      </g>
     </g>
     <g id="text_22">
      <!-- 0.076350 -->
      <g style="fill: #ffa500" transform="translate(233.792452 185.380845) scale(0.1 -0.1)">
       <use xlink:href="#DejaVuSans-30"/>
       <use xlink:href="#DejaVuSans-2e" x="63.623047"/>
       <use xlink:href="#DejaVuSans-30" x="95.410156"/>
       <use xlink:href="#DejaVuSans-37" x="159.033203"/>
       <use xlink:href="#DejaVuSans-36" x="222.65625"/>
       <use xlink:href="#DejaVuSans-33" x="286.279297"/>
       <use xlink:href="#DejaVuSans-35" x="349.902344"/>
       <use xlink:href="#DejaVuSans-30" x="413.525391"/>
      </g>
     </g>
    </g>
    <g id="text_23">
     <!-- Fisher -->
     <g style="fill: #ffa500" transform="translate(277.460041 177.670375) rotate(-270) scale(0.12 -0.12)">
      <defs>
       <path id="DejaVuSans-46" d="M 628 4666 
L 3309 4666 
L 3309 4134 
L 1259 4134 
L 1259 2759 
L 3109 2759 
L 3109 2228 
L 1259 2228 
L 1259 0 
L 628 0 
L 628 4666 
z
" transform="scale(0.015625)"/>
       <path id="DejaVuSans-68" d="M 3513 2113 
L 3513 0 
L 2938 0 
L 2938 2094 
Q 2938 2591 2744 2837 
Q 2550 3084 2163 3084 
Q 1697 3084 1428 2787 
Q 1159 2491 1159 1978 
L 1159 0 
L 581 0 
L 581 4863 
L 1159 4863 
L 1159 2956 
Q 1366 3272 1645 3428 
Q 1925 3584 2291 3584 
Q 2894 3584 3203 3211 
Q 3513 2838 3513 2113 
z
" transform="scale(0.015625)"/>
      </defs>
      <use xlink:href="#DejaVuSans-46"/>
      <use xlink:href="#DejaVuSans-69" x="50.269531"/>
      <use xlink:href="#DejaVuSans-73" x="78.052734"/>
      <use xlink:href="#DejaVuSans-68" x="130.152344"/>
      <use xlink:href="#DejaVuSans-65" x="193.53125"/>
      <use xlink:href="#DejaVuSans-72" x="255.054688"/>
     </g>
     <!-- Information -->
     <g style="fill: #ffa500" transform="translate(264.022666 160.708187) rotate(-270) scale(0.12 -0.12)">
      <defs>
       <path id="DejaVuSans-49" d="M 628 4666 
L 1259 4666 
L 1259 0 
L 628 0 
L 628 4666 
z
" transform="scale(0.015625)"/>
       <path id="DejaVuSans-66" d="M 2375 4863 
L 2375 4384 
L 1825 4384 
Q 1516 4384 1395 4259 
Q 1275 4134 1275 3809 
L 1275 3500 
L 2222 3500 
L 2222 3053 
L 1275 3053 
L 1275 0 
L 697 0 
L 697 3053 
L 147 3053 
L 147 3500 
L 697 3500 
L 697 3744 
Q 697 4328 969 4595 
Q 1241 4863 1831 4863 
L 2375 4863 
z
" transform="scale(0.015625)"/>
       <path id="DejaVuSans-6d" d="M 3328 2828 
Q 3544 3216 3844 3400 
Q 4144 3584 4550 3584 
Q 5097 3584 5394 3201 
Q 5691 2819 5691 2113 
L 5691 0 
L 5113 0 
L 5113 2094 
Q 5113 2597 4934 2840 
Q 4756 3084 4391 3084 
Q 3944 3084 3684 2787 
Q 3425 2491 3425 1978 
L 3425 0 
L 2847 0 
L 2847 2094 
Q 2847 2600 2669 2842 
Q 2491 3084 2119 3084 
Q 1678 3084 1418 2786 
Q 1159 2488 1159 1978 
L 1159 0 
L 581 0 
L 581 3500 
L 1159 3500 
L 1159 2956 
Q 1356 3278 1631 3431 
Q 1906 3584 2284 3584 
Q 2666 3584 2933 3390 
Q 3200 3197 3328 2828 
z
" transform="scale(0.015625)"/>
      </defs>
      <use xlink:href="#DejaVuSans-49"/>
      <use xlink:href="#DejaVuSans-6e" x="29.492188"/>
      <use xlink:href="#DejaVuSans-66" x="92.871094"/>
      <use xlink:href="#DejaVuSans-6f" x="128.076172"/>
      <use xlink:href="#DejaVuSans-72" x="189.257812"/>
      <use xlink:href="#DejaVuSans-6d" x="228.621094"/>
      <use xlink:href="#DejaVuSans-61" x="326.033203"/>
      <use xlink:href="#DejaVuSans-74" x="387.3125"/>
      <use xlink:href="#DejaVuSans-69" x="426.521484"/>
      <use xlink:href="#DejaVuSans-6f" x="454.304688"/>
      <use xlink:href="#DejaVuSans-6e" x="515.486328"/>
     </g>
    </g>
   </g>
   <g id="line2d_41">
    <path d="M 55.976125 163.93975 
L 56.925105 226.93975 
L 57.874084 216.210727 
L 58.823064 218.051301 
L 59.772043 217.736392 
L 61.670003 217.78103 
L 129.047554 217.782369 
L 222.047554 217.736392 
L 222.996533 218.051301 
L 223.945513 216.210727 
L 224.894492 226.93975 
L 225.843472 163.93975 
L 225.843472 163.93975 
" clip-path="url(#pc159e21989)" style="fill: none; stroke: #ffa500; stroke-linecap: square"/>
   </g>
   <g id="patch_8">
    <path d="M 55.976125 230.08975 
L 55.976125 160.78975 
" style="fill: none; stroke: #000000; stroke-width: 0.8; stroke-linejoin: miter; stroke-linecap: square"/>
   </g>
   <g id="patch_9">
    <path d="M 226.792452 230.08975 
L 226.792452 160.78975 
" style="fill: none; stroke: #000000; stroke-width: 0.8; stroke-linejoin: miter; stroke-linecap: square"/>
   </g>
   <g id="patch_10">
    <path d="M 55.976125 230.08975 
L 226.792452 230.08975 
" style="fill: none; stroke: #000000; stroke-width: 0.8; stroke-linejoin: miter; stroke-linecap: square"/>
   </g>
  </g>
  <g id="axes_4">
   <g id="patch_11">
    <path d="M 55.976125 351.36475 
L 226.792452 351.36475 
L 226.792452 282.06475 
L 55.976125 282.06475 
z
" style="fill: #ffffff"/>
   </g>
   <g id="matplotlib.axis_6">
    <g id="xtick_11">
     <g id="line2d_42">
      <g>
       <use xlink:href="#m16a4b1506b" x="63.740503" y="351.36475" style="stroke: #000000; stroke-width: 0.8"/>
      </g>
     </g>
     <g id="text_24">
      <!-- 0 -->
      <g transform="translate(60.559253 365.963187) scale(0.1 -0.1)">
       <use xlink:href="#DejaVuSans-30"/>
      </g>
     </g>
    </g>
    <g id="xtick_12">
     <g id="line2d_43">
      <g>
       <use xlink:href="#m16a4b1506b" x="107.11692" y="351.36475" style="stroke: #000000; stroke-width: 0.8"/>
      </g>
     </g>
     <g id="text_25">
      <!-- 100 -->
      <g transform="translate(97.57317 365.963187) scale(0.1 -0.1)">
       <use xlink:href="#DejaVuSans-31"/>
       <use xlink:href="#DejaVuSans-30" x="63.623047"/>
       <use xlink:href="#DejaVuSans-30" x="127.246094"/>
      </g>
     </g>
    </g>
    <g id="xtick_13">
     <g id="line2d_44">
      <g>
       <use xlink:href="#m16a4b1506b" x="150.493336" y="351.36475" style="stroke: #000000; stroke-width: 0.8"/>
      </g>
     </g>
     <g id="text_26">
      <!-- 200 -->
      <g transform="translate(140.949586 365.963187) scale(0.1 -0.1)">
       <use xlink:href="#DejaVuSans-32"/>
       <use xlink:href="#DejaVuSans-30" x="63.623047"/>
       <use xlink:href="#DejaVuSans-30" x="127.246094"/>
      </g>
     </g>
    </g>
    <g id="xtick_14">
     <g id="line2d_45">
      <g>
       <use xlink:href="#m16a4b1506b" x="193.869752" y="351.36475" style="stroke: #000000; stroke-width: 0.8"/>
      </g>
     </g>
     <g id="text_27">
      <!-- 300 -->
      <g transform="translate(184.326002 365.963187) scale(0.1 -0.1)">
       <use xlink:href="#DejaVuSans-33"/>
       <use xlink:href="#DejaVuSans-30" x="63.623047"/>
       <use xlink:href="#DejaVuSans-30" x="127.246094"/>
      </g>
     </g>
    </g>
    <g id="text_28">
     <!-- Direction of motion [$\degree$] -->
     <g transform="translate(73.944288 381.161) scale(0.12 -0.12)">
      <defs>
       <path id="DejaVuSans-44" d="M 1259 4147 
L 1259 519 
L 2022 519 
Q 2988 519 3436 956 
Q 3884 1394 3884 2338 
Q 3884 3275 3436 3711 
Q 2988 4147 2022 4147 
L 1259 4147 
z
M 628 4666 
L 1925 4666 
Q 3281 4666 3915 4102 
Q 4550 3538 4550 2338 
Q 4550 1131 3912 565 
Q 3275 0 1925 0 
L 628 0 
L 628 4666 
z
" transform="scale(0.015625)"/>
       <path id="DejaVuSans-b0" d="M 1600 4347 
Q 1350 4347 1178 4173 
Q 1006 4000 1006 3750 
Q 1006 3503 1178 3333 
Q 1350 3163 1600 3163 
Q 1850 3163 2022 3333 
Q 2194 3503 2194 3750 
Q 2194 3997 2020 4172 
Q 1847 4347 1600 4347 
z
M 1600 4750 
Q 1800 4750 1984 4673 
Q 2169 4597 2303 4453 
Q 2447 4313 2519 4134 
Q 2591 3956 2591 3750 
Q 2591 3338 2302 3052 
Q 2013 2766 1594 2766 
Q 1172 2766 890 3047 
Q 609 3328 609 3750 
Q 609 4169 896 4459 
Q 1184 4750 1600 4750 
z
" transform="scale(0.015625)"/>
      </defs>
      <use xlink:href="#DejaVuSans-44" transform="translate(0 0.015625)"/>
      <use xlink:href="#DejaVuSans-69" transform="translate(77.001953 0.015625)"/>
      <use xlink:href="#DejaVuSans-72" transform="translate(104.785156 0.015625)"/>
      <use xlink:href="#DejaVuSans-65" transform="translate(145.898438 0.015625)"/>
      <use xlink:href="#DejaVuSans-63" transform="translate(207.421875 0.015625)"/>
      <use xlink:href="#DejaVuSans-74" transform="translate(262.402344 0.015625)"/>
      <use xlink:href="#DejaVuSans-69" transform="translate(301.611328 0.015625)"/>
      <use xlink:href="#DejaVuSans-6f" transform="translate(329.394531 0.015625)"/>
      <use xlink:href="#DejaVuSans-6e" transform="translate(390.576172 0.015625)"/>
      <use xlink:href="#DejaVuSans-20" transform="translate(453.955078 0.015625)"/>
      <use xlink:href="#DejaVuSans-6f" transform="translate(485.742188 0.015625)"/>
      <use xlink:href="#DejaVuSans-66" transform="translate(546.923828 0.015625)"/>
      <use xlink:href="#DejaVuSans-20" transform="translate(582.128906 0.015625)"/>
      <use xlink:href="#DejaVuSans-6d" transform="translate(613.916016 0.015625)"/>
      <use xlink:href="#DejaVuSans-6f" transform="translate(711.328125 0.015625)"/>
      <use xlink:href="#DejaVuSans-74" transform="translate(772.509766 0.015625)"/>
      <use xlink:href="#DejaVuSans-69" transform="translate(811.71875 0.015625)"/>
      <use xlink:href="#DejaVuSans-6f" transform="translate(839.501953 0.015625)"/>
      <use xlink:href="#DejaVuSans-6e" transform="translate(900.683594 0.015625)"/>
      <use xlink:href="#DejaVuSans-20" transform="translate(964.0625 0.015625)"/>
      <use xlink:href="#DejaVuSans-5b" transform="translate(995.849609 0.015625)"/>
      <use xlink:href="#DejaVuSans-b0" transform="translate(1034.863281 0.015625)"/>
      <use xlink:href="#DejaVuSans-5d" transform="translate(1084.863281 0.015625)"/>
     </g>
    </g>
   </g>
   <g id="matplotlib.axis_7">
    <g id="ytick_11">
     <g id="line2d_46">
      <g>
       <use xlink:href="#m1b9deb3149" x="55.976125" y="351.36475" style="stroke: #000000; stroke-width: 0.8"/>
      </g>
     </g>
     <g id="text_29">
      <!-- 0 -->
      <g transform="translate(42.613625 355.163969) scale(0.1 -0.1)">
       <use xlink:href="#DejaVuSans-30"/>
      </g>
     </g>
    </g>
    <g id="ytick_12">
     <g id="line2d_47">
      <g>
       <use xlink:href="#m1b9deb3149" x="55.976125" y="323.64475" style="stroke: #000000; stroke-width: 0.8"/>
      </g>
     </g>
     <g id="text_30">
      <!-- 20 -->
      <g transform="translate(36.251125 327.443969) scale(0.1 -0.1)">
       <use xlink:href="#DejaVuSans-32"/>
       <use xlink:href="#DejaVuSans-30" x="63.623047"/>
      </g>
     </g>
    </g>
    <g id="ytick_13">
     <g id="line2d_48">
      <g>
       <use xlink:href="#m1b9deb3149" x="55.976125" y="295.92475" style="stroke: #000000; stroke-width: 0.8"/>
      </g>
     </g>
     <g id="text_31">
      <!-- 40 -->
      <g transform="translate(36.251125 299.723969) scale(0.1 -0.1)">
       <defs>
        <path id="DejaVuSans-34" d="M 2419 4116 
L 825 1625 
L 2419 1625 
L 2419 4116 
z
M 2253 4666 
L 3047 4666 
L 3047 1625 
L 3713 1625 
L 3713 1100 
L 3047 1100 
L 3047 0 
L 2419 0 
L 2419 1100 
L 313 1100 
L 313 1709 
L 2253 4666 
z
" transform="scale(0.015625)"/>
       </defs>
       <use xlink:href="#DejaVuSans-34"/>
       <use xlink:href="#DejaVuSans-30" x="63.623047"/>
      </g>
     </g>
    </g>
    <g id="text_32">
     <!-- Decoding -->
     <g transform="translate(16.318125 345.084437) rotate(-90) scale(0.12 -0.12)">
      <use xlink:href="#DejaVuSans-44"/>
      <use xlink:href="#DejaVuSans-65" x="77.001953"/>
      <use xlink:href="#DejaVuSans-63" x="138.525391"/>
      <use xlink:href="#DejaVuSans-6f" x="193.505859"/>
      <use xlink:href="#DejaVuSans-64" x="254.6875"/>
      <use xlink:href="#DejaVuSans-69" x="318.164062"/>
      <use xlink:href="#DejaVuSans-6e" x="345.947266"/>
      <use xlink:href="#DejaVuSans-67" x="409.326172"/>
     </g>
     <!-- Error [$\degree$] -->
     <g transform="translate(29.7555 341.19475) rotate(-90) scale(0.12 -0.12)">
      <defs>
       <path id="DejaVuSans-45" d="M 628 4666 
L 3578 4666 
L 3578 4134 
L 1259 4134 
L 1259 2753 
L 3481 2753 
L 3481 2222 
L 1259 2222 
L 1259 531 
L 3634 531 
L 3634 0 
L 628 0 
L 628 4666 
z
" transform="scale(0.015625)"/>
      </defs>
      <use xlink:href="#DejaVuSans-45" transform="translate(0 0.015625)"/>
      <use xlink:href="#DejaVuSans-72" transform="translate(63.183594 0.015625)"/>
      <use xlink:href="#DejaVuSans-72" transform="translate(104.296875 0.015625)"/>
      <use xlink:href="#DejaVuSans-6f" transform="translate(145.410156 0.015625)"/>
      <use xlink:href="#DejaVuSans-72" transform="translate(206.591797 0.015625)"/>
      <use xlink:href="#DejaVuSans-20" transform="translate(247.705078 0.015625)"/>
      <use xlink:href="#DejaVuSans-5b" transform="translate(279.492188 0.015625)"/>
      <use xlink:href="#DejaVuSans-b0" transform="translate(318.505859 0.015625)"/>
      <use xlink:href="#DejaVuSans-5d" transform="translate(368.505859 0.015625)"/>
     </g>
    </g>
   </g>
   <g id="line2d_49">
    <path d="M 63.740503 346.349344 
L 108.851976 346.34749 
L 219.028073 346.349344 
L 219.028073 346.349344 
" clip-path="url(#pf99d00585a)" style="fill: none; stroke: #ffa500; stroke-linecap: square"/>
   </g>
   <g id="line2d_50">
    <path d="M 63.740503 346.333011 
L 64.608032 346.5281 
L 65.47556 346.078804 
L 66.343088 346.239642 
L 67.210617 346.597678 
L 68.078145 346.444323 
L 68.945673 346.155903 
L 69.813202 346.458607 
L 70.68073 346.505377 
L 71.548258 346.036957 
L 72.415787 346.02203 
L 73.283315 346.327158 
L 74.150843 346.147682 
L 75.018372 346.415896 
L 75.8859 346.051786 
L 76.753428 345.817924 
L 77.620957 346.098885 
L 79.356013 346.446575 
L 80.223542 346.105054 
L 81.09107 346.050707 
L 81.958598 346.356022 
L 82.826127 346.476078 
L 83.693655 346.256964 
L 84.561183 346.236788 
L 85.428712 346.492273 
L 86.29624 346.365754 
L 88.031296 345.950246 
L 89.766353 346.194624 
L 90.633881 346.569859 
L 91.50141 346.178413 
L 92.368938 346.542761 
L 93.236466 346.091644 
L 94.103995 346.320964 
L 94.971523 346.677434 
L 95.839051 346.246521 
L 97.574108 346.125348 
L 98.441636 346.325614 
L 99.309165 346.409275 
L 100.176693 346.775725 
L 101.044221 346.50564 
L 101.91175 346.667516 
L 102.779278 346.426573 
L 104.514335 346.277987 
L 105.381863 346.406881 
L 106.249391 346.286078 
L 110.587033 346.506805 
L 111.454561 346.336255 
L 114.057146 346.113417 
L 114.924674 346.510763 
L 115.792203 346.334781 
L 116.659731 346.622245 
L 117.527259 346.086198 
L 118.394788 346.485653 
L 119.262316 346.362943 
L 120.129844 346.509595 
L 120.997373 346.525588 
L 121.864901 346.086813 
L 123.599958 346.34964 
L 124.467486 346.293356 
L 126.202543 346.607761 
L 128.805128 346.060025 
L 129.672656 346.471502 
L 130.540184 346.658211 
L 131.407713 346.354966 
L 132.275241 346.595568 
L 133.142769 346.184279 
L 134.010298 346.644204 
L 134.877826 346.220662 
L 136.612882 346.243656 
L 137.480411 346.386248 
L 138.347939 346.299839 
L 140.950524 346.424475 
L 143.553109 346.406666 
L 144.420637 346.054413 
L 145.288166 346.091822 
L 146.155694 346.329635 
L 152.228392 346.211659 
L 153.095921 346.510505 
L 153.963449 346.297777 
L 154.830977 346.486235 
L 155.698506 346.554581 
L 157.433562 346.361785 
L 158.301091 346.320833 
L 159.168619 346.48335 
L 160.036147 345.957057 
L 160.903676 346.539865 
L 161.771204 346.421592 
L 162.638732 346.475689 
L 166.108845 345.980528 
L 166.976374 346.212943 
L 167.843902 346.309929 
L 168.71143 346.251091 
L 169.578959 346.542422 
L 171.314015 346.292333 
L 172.181544 346.339905 
L 173.049072 346.096569 
L 174.784129 346.333158 
L 175.651657 346.281099 
L 176.519185 346.432728 
L 178.254242 346.459443 
L 179.12177 346.182996 
L 179.989299 346.593985 
L 181.724355 346.247015 
L 182.591884 346.363831 
L 187.797053 346.118466 
L 189.53211 346.450905 
L 190.399638 346.40706 
L 191.267167 346.22906 
L 192.134695 346.33282 
L 193.869752 346.02746 
L 194.73728 346.482933 
L 195.604808 346.190904 
L 196.472337 346.467216 
L 198.207393 346.168028 
L 199.94245 346.499708 
L 200.809978 346.592962 
L 202.545035 346.247141 
L 203.412563 346.553429 
L 204.280092 346.319781 
L 205.14762 346.320959 
L 206.015148 346.439402 
L 206.882677 346.261113 
L 207.750205 346.389678 
L 209.485262 346.268755 
L 211.220318 346.325297 
L 212.087846 345.779391 
L 212.955375 346.267935 
L 213.822903 346.212195 
L 214.690431 346.433185 
L 215.55796 346.311028 
L 216.425488 346.016162 
L 217.293016 346.327396 
L 218.160545 346.467951 
L 219.028073 346.12447 
L 219.028073 346.12447 
" clip-path="url(#pf99d00585a)" style="fill: none; stroke-dasharray: 5.55,2.4; stroke-dashoffset: 0; stroke: #0000ff; stroke-width: 1.5"/>
   </g>
   <g id="patch_12">
    <path d="M 55.976125 351.36475 
L 55.976125 282.06475 
" style="fill: none; stroke: #000000; stroke-width: 0.8; stroke-linejoin: miter; stroke-linecap: square"/>
   </g>
   <g id="patch_13">
    <path d="M 55.976125 351.36475 
L 226.792452 351.36475 
" style="fill: none; stroke: #000000; stroke-width: 0.8; stroke-linejoin: miter; stroke-linecap: square"/>
   </g>
   <g id="legend_1">
    <g id="line2d_51">
     <path d="M 63.284288 265.428813 
L 77.284288 265.428813 
L 91.284288 265.428813 
" style="fill: none; stroke: #ffa500; stroke-linecap: square"/>
    </g>
    <g id="text_33">
     <!-- Fisher error -->
     <g transform="translate(102.484288 270.328813) scale(0.14 -0.14)">
      <use xlink:href="#DejaVuSans-46"/>
      <use xlink:href="#DejaVuSans-69" x="50.269531"/>
      <use xlink:href="#DejaVuSans-73" x="78.052734"/>
      <use xlink:href="#DejaVuSans-68" x="130.152344"/>
      <use xlink:href="#DejaVuSans-65" x="193.53125"/>
      <use xlink:href="#DejaVuSans-72" x="255.054688"/>
      <use xlink:href="#DejaVuSans-20" x="296.167969"/>
      <use xlink:href="#DejaVuSans-65" x="327.955078"/>
      <use xlink:href="#DejaVuSans-72" x="389.478516"/>
      <use xlink:href="#DejaVuSans-72" x="428.841797"/>
      <use xlink:href="#DejaVuSans-6f" x="467.705078"/>
      <use xlink:href="#DejaVuSans-72" x="528.886719"/>
     </g>
    </g>
    <g id="line2d_52">
     <path d="M 63.284288 285.978187 
L 77.284288 285.978187 
L 91.284288 285.978187 
" style="fill: none; stroke-dasharray: 5.55,2.4; stroke-dashoffset: 0; stroke: #0000ff; stroke-width: 1.5"/>
    </g>
    <g id="text_34">
     <!-- Bayesian error -->
     <g transform="translate(102.484288 290.878187) scale(0.14 -0.14)">
      <defs>
       <path id="DejaVuSans-42" d="M 1259 2228 
L 1259 519 
L 2272 519 
Q 2781 519 3026 730 
Q 3272 941 3272 1375 
Q 3272 1813 3026 2020 
Q 2781 2228 2272 2228 
L 1259 2228 
z
M 1259 4147 
L 1259 2741 
L 2194 2741 
Q 2656 2741 2882 2914 
Q 3109 3088 3109 3444 
Q 3109 3797 2882 3972 
Q 2656 4147 2194 4147 
L 1259 4147 
z
M 628 4666 
L 2241 4666 
Q 2963 4666 3353 4366 
Q 3744 4066 3744 3513 
Q 3744 3084 3544 2831 
Q 3344 2578 2956 2516 
Q 3422 2416 3680 2098 
Q 3938 1781 3938 1306 
Q 3938 681 3513 340 
Q 3088 0 2303 0 
L 628 0 
L 628 4666 
z
" transform="scale(0.015625)"/>
       <path id="DejaVuSans-79" d="M 2059 -325 
Q 1816 -950 1584 -1140 
Q 1353 -1331 966 -1331 
L 506 -1331 
L 506 -850 
L 844 -850 
Q 1081 -850 1212 -737 
Q 1344 -625 1503 -206 
L 1606 56 
L 191 3500 
L 800 3500 
L 1894 763 
L 2988 3500 
L 3597 3500 
L 2059 -325 
z
" transform="scale(0.015625)"/>
      </defs>
      <use xlink:href="#DejaVuSans-42"/>
      <use xlink:href="#DejaVuSans-61" x="68.603516"/>
      <use xlink:href="#DejaVuSans-79" x="129.882812"/>
      <use xlink:href="#DejaVuSans-65" x="189.0625"/>
      <use xlink:href="#DejaVuSans-73" x="250.585938"/>
      <use xlink:href="#DejaVuSans-69" x="302.685547"/>
      <use xlink:href="#DejaVuSans-61" x="330.46875"/>
      <use xlink:href="#DejaVuSans-6e" x="391.748047"/>
      <use xlink:href="#DejaVuSans-20" x="455.126953"/>
      <use xlink:href="#DejaVuSans-65" x="486.914062"/>
      <use xlink:href="#DejaVuSans-72" x="548.4375"/>
      <use xlink:href="#DejaVuSans-72" x="587.800781"/>
      <use xlink:href="#DejaVuSans-6f" x="626.664062"/>
      <use xlink:href="#DejaVuSans-72" x="687.845703"/>
     </g>
    </g>
   </g>
  </g>
 </g>
 <defs>
  <clipPath id="p8a10626f83">
   <rect x="55.976125" y="39.51475" width="170.816327" height="69.3"/>
  </clipPath>
  <clipPath id="pc159e21989">
   <rect x="55.976125" y="160.78975" width="170.816327" height="69.3"/>
  </clipPath>
  <clipPath id="pf99d00585a">
   <rect x="55.976125" y="282.06475" width="170.816327" height="69.3"/>
  </clipPath>
 </defs>
</svg>
