<?xml version="1.0" encoding="utf-8" standalone="no"?>
<!DOCTYPE svg PUBLIC "-//W3C//DTD SVG 1.1//EN"
  "http://www.w3.org/Graphics/SVG/1.1/DTD/svg11.dtd">
<svg xmlns:xlink="http://www.w3.org/1999/xlink" width="135.554759pt" height="138.763125pt" viewBox="0 0 135.554759 138.763125" xmlns="http://www.w3.org/2000/svg" version="1.1">
 <metadata>
  <rdf:RDF xmlns:dc="http://purl.org/dc/elements/1.1/" xmlns:cc="http://creativecommons.org/ns#" xmlns:rdf="http://www.w3.org/1999/02/22-rdf-syntax-ns#">
   <cc:Work>
    <dc:type rdf:resource="http://purl.org/dc/dcmitype/StillImage"/>
    <dc:date>2025-10-23T11:27:40.748625</dc:date>
    <dc:format>image/svg+xml</dc:format>
    <dc:creator>
     <cc:Agent>
      <dc:title>Matplotlib v3.9.4, https://matplotlib.org/</dc:title>
     </cc:Agent>
    </dc:creator>
   </cc:Work>
  </rdf:RDF>
 </metadata>
 <defs>
  <style type="text/css">*{stroke-linejoin: round; stroke-linecap: butt}</style>
 </defs>
 <g id="figure_1">
  <g id="patch_1">
   <path d="M 0 138.763125 
L 135.554759 138.763125 
L 135.554759 0 
L 0 0 
L 0 138.763125 
z
" style="fill: none"/>
  </g>
  <g id="axes_1">
   <g id="patch_2">
    <path d="M 53.164375 94.47875 
L 120.162363 94.47875 
L 120.162363 7.2 
L 53.164375 7.2 
L 53.164375 94.47875 
z
" style="fill: none"/>
   </g>
   <g id="matplotlib.axis_1">
    <g id="xtick_1">
     <g id="line2d_1">
      <defs>
       <path id="m1804e2b7de" d="M 0 0 
L 0 3.85 
" style="stroke: #000000; stroke-width: 0.5"/>
      </defs>
      <g>
       <use xlink:href="#m1804e2b7de" x="53.164375" y="94.47875" style="stroke: #000000; stroke-width: 0.5"/>
      </g>
     </g>
     <g id="text_1">
      <!-- $\mathdefault{10^{-2}}$ -->
      <g transform="translate(41.284375 114.20375) scale(0.12 -0.12)">
       <defs>
        <path id="ArialMT-31" d="M 2384 0 
L 1822 0 
L 1822 3584 
Q 1619 3391 1289 3197 
Q 959 3003 697 2906 
L 697 3450 
Q 1169 3672 1522 3987 
Q 1875 4303 2022 4600 
L 2384 4600 
L 2384 0 
z
" transform="scale(0.015625)"/>
        <path id="ArialMT-30" d="M 266 2259 
Q 266 3072 433 3567 
Q 600 4063 929 4331 
Q 1259 4600 1759 4600 
Q 2128 4600 2406 4451 
Q 2684 4303 2865 4023 
Q 3047 3744 3150 3342 
Q 3253 2941 3253 2259 
Q 3253 1453 3087 958 
Q 2922 463 2592 192 
Q 2263 -78 1759 -78 
Q 1097 -78 719 397 
Q 266 969 266 2259 
z
M 844 2259 
Q 844 1131 1108 757 
Q 1372 384 1759 384 
Q 2147 384 2411 759 
Q 2675 1134 2675 2259 
Q 2675 3391 2411 3762 
Q 2147 4134 1753 4134 
Q 1366 4134 1134 3806 
Q 844 3388 844 2259 
z
" transform="scale(0.015625)"/>
        <path id="ArialMT-2212" d="M 3381 1997 
L 356 1997 
L 356 2522 
L 3381 2522 
L 3381 1997 
z
" transform="scale(0.015625)"/>
        <path id="ArialMT-32" d="M 3222 541 
L 3222 0 
L 194 0 
Q 188 203 259 391 
Q 375 700 629 1000 
Q 884 1300 1366 1694 
Q 2113 2306 2375 2664 
Q 2638 3022 2638 3341 
Q 2638 3675 2398 3904 
Q 2159 4134 1775 4134 
Q 1369 4134 1125 3890 
Q 881 3647 878 3216 
L 300 3275 
Q 359 3922 746 4261 
Q 1134 4600 1788 4600 
Q 2447 4600 2831 4234 
Q 3216 3869 3216 3328 
Q 3216 3053 3103 2787 
Q 2991 2522 2730 2228 
Q 2469 1934 1863 1422 
Q 1356 997 1212 845 
Q 1069 694 975 541 
L 3222 541 
z
" transform="scale(0.015625)"/>
       </defs>
       <use xlink:href="#ArialMT-31" transform="translate(0 0.99375)"/>
       <use xlink:href="#ArialMT-30" transform="translate(55.615234 0.99375)"/>
       <use xlink:href="#ArialMT-2212" transform="translate(112.972813 70.6875) scale(0.7)"/>
       <use xlink:href="#ArialMT-32" transform="translate(153.851719 70.6875) scale(0.7)"/>
      </g>
     </g>
    </g>
    <g id="xtick_2">
     <g id="line2d_2">
      <g>
       <use xlink:href="#m1804e2b7de" x="86.049567" y="94.47875" style="stroke: #000000; stroke-width: 0.5"/>
      </g>
     </g>
     <g id="text_2">
      <!-- $\mathdefault{10^{0}}$ -->
      <g transform="translate(76.629567 114.20375) scale(0.12 -0.12)">
       <use xlink:href="#ArialMT-31" transform="translate(0 0.99375)"/>
       <use xlink:href="#ArialMT-30" transform="translate(55.615234 0.99375)"/>
       <use xlink:href="#ArialMT-30" transform="translate(112.972813 70.6875) scale(0.7)"/>
      </g>
     </g>
    </g>
    <g id="xtick_3">
     <g id="line2d_3">
      <g>
       <use xlink:href="#m1804e2b7de" x="118.934759" y="94.47875" style="stroke: #000000; stroke-width: 0.5"/>
      </g>
     </g>
     <g id="text_3">
      <!-- $\mathdefault{10^{2}}$ -->
      <g transform="translate(109.514759 114.20375) scale(0.12 -0.12)">
       <use xlink:href="#ArialMT-31" transform="translate(0 0.99375)"/>
       <use xlink:href="#ArialMT-30" transform="translate(55.615234 0.99375)"/>
       <use xlink:href="#ArialMT-32" transform="translate(112.972813 70.6875) scale(0.7)"/>
      </g>
     </g>
    </g>
    <g id="text_4">
     <!-- gamma -->
     <g transform="translate(66.658057 129.0375) scale(0.12 -0.12)">
      <defs>
       <path id="ArialMT-67" d="M 319 -275 
L 866 -356 
Q 900 -609 1056 -725 
Q 1266 -881 1628 -881 
Q 2019 -881 2231 -725 
Q 2444 -569 2519 -288 
Q 2563 -116 2559 434 
Q 2191 0 1641 0 
Q 956 0 581 494 
Q 206 988 206 1678 
Q 206 2153 378 2554 
Q 550 2956 876 3175 
Q 1203 3394 1644 3394 
Q 2231 3394 2613 2919 
L 2613 3319 
L 3131 3319 
L 3131 450 
Q 3131 -325 2973 -648 
Q 2816 -972 2473 -1159 
Q 2131 -1347 1631 -1347 
Q 1038 -1347 672 -1080 
Q 306 -813 319 -275 
z
M 784 1719 
Q 784 1066 1043 766 
Q 1303 466 1694 466 
Q 2081 466 2343 764 
Q 2606 1063 2606 1700 
Q 2606 2309 2336 2618 
Q 2066 2928 1684 2928 
Q 1309 2928 1046 2623 
Q 784 2319 784 1719 
z
" transform="scale(0.015625)"/>
       <path id="ArialMT-61" d="M 2588 409 
Q 2275 144 1986 34 
Q 1697 -75 1366 -75 
Q 819 -75 525 192 
Q 231 459 231 875 
Q 231 1119 342 1320 
Q 453 1522 633 1644 
Q 813 1766 1038 1828 
Q 1203 1872 1538 1913 
Q 2219 1994 2541 2106 
Q 2544 2222 2544 2253 
Q 2544 2597 2384 2738 
Q 2169 2928 1744 2928 
Q 1347 2928 1158 2789 
Q 969 2650 878 2297 
L 328 2372 
Q 403 2725 575 2942 
Q 747 3159 1072 3276 
Q 1397 3394 1825 3394 
Q 2250 3394 2515 3294 
Q 2781 3194 2906 3042 
Q 3031 2891 3081 2659 
Q 3109 2516 3109 2141 
L 3109 1391 
Q 3109 606 3145 398 
Q 3181 191 3288 0 
L 2700 0 
Q 2613 175 2588 409 
z
M 2541 1666 
Q 2234 1541 1622 1453 
Q 1275 1403 1131 1340 
Q 988 1278 909 1158 
Q 831 1038 831 891 
Q 831 666 1001 516 
Q 1172 366 1500 366 
Q 1825 366 2078 508 
Q 2331 650 2450 897 
Q 2541 1088 2541 1459 
L 2541 1666 
z
" transform="scale(0.015625)"/>
       <path id="ArialMT-6d" d="M 422 0 
L 422 3319 
L 925 3319 
L 925 2853 
Q 1081 3097 1340 3245 
Q 1600 3394 1931 3394 
Q 2300 3394 2536 3241 
Q 2772 3088 2869 2813 
Q 3263 3394 3894 3394 
Q 4388 3394 4653 3120 
Q 4919 2847 4919 2278 
L 4919 0 
L 4359 0 
L 4359 2091 
Q 4359 2428 4304 2576 
Q 4250 2725 4106 2815 
Q 3963 2906 3769 2906 
Q 3419 2906 3187 2673 
Q 2956 2441 2956 1928 
L 2956 0 
L 2394 0 
L 2394 2156 
Q 2394 2531 2256 2718 
Q 2119 2906 1806 2906 
Q 1569 2906 1367 2781 
Q 1166 2656 1075 2415 
Q 984 2175 984 1722 
L 984 0 
L 422 0 
z
" transform="scale(0.015625)"/>
      </defs>
      <use xlink:href="#ArialMT-67"/>
      <use xlink:href="#ArialMT-61" x="55.615234"/>
      <use xlink:href="#ArialMT-6d" x="111.230469"/>
      <use xlink:href="#ArialMT-6d" x="194.53125"/>
      <use xlink:href="#ArialMT-61" x="277.832031"/>
     </g>
    </g>
   </g>
   <g id="matplotlib.axis_2">
    <g id="ytick_1">
     <g id="line2d_4">
      <defs>
       <path id="mc16070bd83" d="M 0 0 
L -3.85 0 
" style="stroke: #000000; stroke-width: 0.5"/>
      </defs>
      <g>
       <use xlink:href="#mc16070bd83" x="53.164375" y="94.47875" style="stroke: #000000; stroke-width: 0.5"/>
      </g>
     </g>
     <g id="text_5">
      <!-- 0.00 -->
      <g transform="translate(22.46125 98.773438) scale(0.12 -0.12)">
       <defs>
        <path id="ArialMT-2e" d="M 581 0 
L 581 641 
L 1222 641 
L 1222 0 
L 581 0 
z
" transform="scale(0.015625)"/>
       </defs>
       <use xlink:href="#ArialMT-30"/>
       <use xlink:href="#ArialMT-2e" x="55.615234"/>
       <use xlink:href="#ArialMT-30" x="83.398438"/>
       <use xlink:href="#ArialMT-30" x="139.013672"/>
      </g>
     </g>
    </g>
    <g id="ytick_2">
     <g id="line2d_5">
      <g>
       <use xlink:href="#mc16070bd83" x="53.164375" y="50.731717" style="stroke: #000000; stroke-width: 0.5"/>
      </g>
     </g>
     <g id="text_6">
      <!-- 0.05 -->
      <g transform="translate(22.46125 55.026405) scale(0.12 -0.12)">
       <defs>
        <path id="ArialMT-35" d="M 266 1200 
L 856 1250 
Q 922 819 1161 601 
Q 1400 384 1738 384 
Q 2144 384 2425 690 
Q 2706 997 2706 1503 
Q 2706 1984 2436 2262 
Q 2166 2541 1728 2541 
Q 1456 2541 1237 2417 
Q 1019 2294 894 2097 
L 366 2166 
L 809 4519 
L 3088 4519 
L 3088 3981 
L 1259 3981 
L 1013 2750 
Q 1425 3038 1878 3038 
Q 2478 3038 2890 2622 
Q 3303 2206 3303 1553 
Q 3303 931 2941 478 
Q 2500 -78 1738 -78 
Q 1113 -78 717 272 
Q 322 622 266 1200 
z
" transform="scale(0.015625)"/>
       </defs>
       <use xlink:href="#ArialMT-30"/>
       <use xlink:href="#ArialMT-2e" x="55.615234"/>
       <use xlink:href="#ArialMT-30" x="83.398438"/>
       <use xlink:href="#ArialMT-35" x="139.013672"/>
      </g>
     </g>
    </g>
    <g id="text_7">
     <!-- information (nats) -->
     <g transform="translate(15.935625 97.520313) rotate(-90) scale(0.12 -0.12)">
      <defs>
       <path id="ArialMT-69" d="M 425 3934 
L 425 4581 
L 988 4581 
L 988 3934 
L 425 3934 
z
M 425 0 
L 425 3319 
L 988 3319 
L 988 0 
L 425 0 
z
" transform="scale(0.015625)"/>
       <path id="ArialMT-6e" d="M 422 0 
L 422 3319 
L 928 3319 
L 928 2847 
Q 1294 3394 1984 3394 
Q 2284 3394 2536 3286 
Q 2788 3178 2913 3003 
Q 3038 2828 3088 2588 
Q 3119 2431 3119 2041 
L 3119 0 
L 2556 0 
L 2556 2019 
Q 2556 2363 2490 2533 
Q 2425 2703 2258 2804 
Q 2091 2906 1866 2906 
Q 1506 2906 1245 2678 
Q 984 2450 984 1813 
L 984 0 
L 422 0 
z
" transform="scale(0.015625)"/>
       <path id="ArialMT-66" d="M 556 0 
L 556 2881 
L 59 2881 
L 59 3319 
L 556 3319 
L 556 3672 
Q 556 4006 616 4169 
Q 697 4388 901 4523 
Q 1106 4659 1475 4659 
Q 1713 4659 2000 4603 
L 1916 4113 
Q 1741 4144 1584 4144 
Q 1328 4144 1222 4034 
Q 1116 3925 1116 3625 
L 1116 3319 
L 1763 3319 
L 1763 2881 
L 1116 2881 
L 1116 0 
L 556 0 
z
" transform="scale(0.015625)"/>
       <path id="ArialMT-6f" d="M 213 1659 
Q 213 2581 725 3025 
Q 1153 3394 1769 3394 
Q 2453 3394 2887 2945 
Q 3322 2497 3322 1706 
Q 3322 1066 3130 698 
Q 2938 331 2570 128 
Q 2203 -75 1769 -75 
Q 1072 -75 642 372 
Q 213 819 213 1659 
z
M 791 1659 
Q 791 1022 1069 705 
Q 1347 388 1769 388 
Q 2188 388 2466 706 
Q 2744 1025 2744 1678 
Q 2744 2294 2464 2611 
Q 2184 2928 1769 2928 
Q 1347 2928 1069 2612 
Q 791 2297 791 1659 
z
" transform="scale(0.015625)"/>
       <path id="ArialMT-72" d="M 416 0 
L 416 3319 
L 922 3319 
L 922 2816 
Q 1116 3169 1280 3281 
Q 1444 3394 1641 3394 
Q 1925 3394 2219 3213 
L 2025 2691 
Q 1819 2813 1613 2813 
Q 1428 2813 1281 2702 
Q 1134 2591 1072 2394 
Q 978 2094 978 1738 
L 978 0 
L 416 0 
z
" transform="scale(0.015625)"/>
       <path id="ArialMT-74" d="M 1650 503 
L 1731 6 
Q 1494 -44 1306 -44 
Q 1000 -44 831 53 
Q 663 150 594 308 
Q 525 466 525 972 
L 525 2881 
L 113 2881 
L 113 3319 
L 525 3319 
L 525 4141 
L 1084 4478 
L 1084 3319 
L 1650 3319 
L 1650 2881 
L 1084 2881 
L 1084 941 
Q 1084 700 1114 631 
Q 1144 563 1211 522 
Q 1278 481 1403 481 
Q 1497 481 1650 503 
z
" transform="scale(0.015625)"/>
       <path id="ArialMT-20" transform="scale(0.015625)"/>
       <path id="ArialMT-28" d="M 1497 -1347 
Q 1031 -759 709 28 
Q 388 816 388 1659 
Q 388 2403 628 3084 
Q 909 3875 1497 4659 
L 1900 4659 
Q 1522 4009 1400 3731 
Q 1209 3300 1100 2831 
Q 966 2247 966 1656 
Q 966 153 1900 -1347 
L 1497 -1347 
z
" transform="scale(0.015625)"/>
       <path id="ArialMT-73" d="M 197 991 
L 753 1078 
Q 800 744 1014 566 
Q 1228 388 1613 388 
Q 2000 388 2187 545 
Q 2375 703 2375 916 
Q 2375 1106 2209 1216 
Q 2094 1291 1634 1406 
Q 1016 1563 777 1677 
Q 538 1791 414 1992 
Q 291 2194 291 2438 
Q 291 2659 392 2848 
Q 494 3038 669 3163 
Q 800 3259 1026 3326 
Q 1253 3394 1513 3394 
Q 1903 3394 2198 3281 
Q 2494 3169 2634 2976 
Q 2775 2784 2828 2463 
L 2278 2388 
Q 2241 2644 2061 2787 
Q 1881 2931 1553 2931 
Q 1166 2931 1000 2803 
Q 834 2675 834 2503 
Q 834 2394 903 2306 
Q 972 2216 1119 2156 
Q 1203 2125 1616 2013 
Q 2213 1853 2448 1751 
Q 2684 1650 2818 1456 
Q 2953 1263 2953 975 
Q 2953 694 2789 445 
Q 2625 197 2315 61 
Q 2006 -75 1616 -75 
Q 969 -75 630 194 
Q 291 463 197 991 
z
" transform="scale(0.015625)"/>
       <path id="ArialMT-29" d="M 791 -1347 
L 388 -1347 
Q 1322 153 1322 1656 
Q 1322 2244 1188 2822 
Q 1081 3291 891 3722 
Q 769 4003 388 4659 
L 791 4659 
Q 1378 3875 1659 3084 
Q 1900 2403 1900 1659 
Q 1900 816 1576 28 
Q 1253 -759 791 -1347 
z
" transform="scale(0.015625)"/>
      </defs>
      <use xlink:href="#ArialMT-69"/>
      <use xlink:href="#ArialMT-6e" x="22.216797"/>
      <use xlink:href="#ArialMT-66" x="77.832031"/>
      <use xlink:href="#ArialMT-6f" x="105.615234"/>
      <use xlink:href="#ArialMT-72" x="161.230469"/>
      <use xlink:href="#ArialMT-6d" x="194.53125"/>
      <use xlink:href="#ArialMT-61" x="277.832031"/>
      <use xlink:href="#ArialMT-74" x="333.447266"/>
      <use xlink:href="#ArialMT-69" x="361.230469"/>
      <use xlink:href="#ArialMT-6f" x="383.447266"/>
      <use xlink:href="#ArialMT-6e" x="439.0625"/>
      <use xlink:href="#ArialMT-20" x="494.677734"/>
      <use xlink:href="#ArialMT-28" x="522.460938"/>
      <use xlink:href="#ArialMT-6e" x="555.761719"/>
      <use xlink:href="#ArialMT-61" x="611.376953"/>
      <use xlink:href="#ArialMT-74" x="666.992188"/>
      <use xlink:href="#ArialMT-73" x="694.775391"/>
      <use xlink:href="#ArialMT-29" x="744.775391"/>
     </g>
    </g>
   </g>
   <g id="line2d_6">
    <path d="M 53.164375 93.164041 
L 56.886485 92.490683 
L 60.608596 91.149908 
L 64.330706 88.985708 
L 68.052817 85.664521 
L 71.774927 80.799266 
L 75.497038 74.120625 
L 79.219148 65.706518 
L 82.941259 56.181448 
L 86.663369 46.649522 
L 90.385479 38.243754 
L 94.10759 31.646655 
L 97.8297 26.932872 
L 101.551811 23.7731 
L 105.273921 21.756702 
L 108.996032 20.49415 
L 112.718142 19.72368 
L 116.440253 19.256435 
L 120.162363 18.983455 
" clip-path="url(#pfeafc06119)" style="fill: none; stroke: #0000ff; stroke-width: 2; stroke-linecap: square"/>
   </g>
   <g id="line2d_7">
    <path d="M 53.164375 93.164041 
L 56.886485 92.490683 
L 60.608596 91.149908 
L 64.330706 88.985708 
L 68.052817 85.664521 
L 71.774927 80.799266 
L 75.497038 74.120625 
L 79.219148 65.706518 
L 82.941259 56.181448 
L 86.663369 46.649522 
L 90.385479 38.243754 
L 94.10759 31.646655 
L 97.8297 26.932872 
L 101.551811 23.7731 
L 105.273921 21.756702 
L 108.996032 20.49415 
L 112.718142 19.72368 
L 116.440253 19.256435 
L 120.162363 18.983455 
" clip-path="url(#pfeafc06119)" style="fill: none; stroke: #0000ff; stroke-width: 2; stroke-linecap: square"/>
   </g>
   <g id="line2d_8">
    <path d="M 53.164375 93.164041 
L 56.886485 92.490683 
L 60.608596 91.149908 
L 64.330706 88.985708 
L 68.052817 85.664521 
L 71.774927 80.799266 
L 75.497038 74.120625 
L 79.219148 65.706518 
L 82.941259 56.181448 
L 86.663369 46.649522 
L 90.385479 38.243754 
L 94.10759 31.646655 
L 97.8297 26.932872 
L 101.551811 23.7731 
L 105.273921 21.756702 
L 108.996032 20.49415 
L 112.718142 19.72368 
L 116.440253 19.256435 
L 120.162363 18.983455 
" clip-path="url(#pfeafc06119)" style="fill: none; stroke: #0000ff; stroke-width: 2; stroke-linecap: square"/>
   </g>
   <g id="line2d_9">
    <path d="M 53.164375 93.164041 
L 56.886485 92.490683 
L 60.608596 91.149908 
L 64.330706 88.985708 
L 68.052817 85.664521 
L 71.774927 80.799266 
L 75.497038 74.120625 
L 79.219148 65.706518 
L 82.941259 56.181448 
L 86.663369 46.649522 
L 90.385479 38.243754 
L 94.10759 31.646655 
L 97.8297 26.932872 
L 101.551811 23.7731 
L 105.273921 21.756702 
L 108.996032 20.49415 
L 112.718142 19.72368 
L 116.440253 19.256435 
L 120.162363 18.983455 
" clip-path="url(#pfeafc06119)" style="fill: none; stroke: #0000ff; stroke-width: 2; stroke-linecap: square"/>
   </g>
   <g id="line2d_10">
    <path d="M 53.164375 93.164041 
L 56.886485 92.490683 
L 60.608596 91.149908 
L 64.330706 88.985708 
L 68.052817 85.664521 
L 71.774927 80.799266 
L 75.497038 74.120625 
L 79.219148 65.706518 
L 82.941259 56.181448 
L 86.663369 46.649522 
L 90.385479 38.243754 
L 94.10759 31.646655 
L 97.8297 26.932872 
L 101.551811 23.7731 
L 105.273921 21.756702 
L 108.996032 20.49415 
L 112.718142 19.72368 
L 116.440253 19.256435 
L 120.162363 18.983455 
" clip-path="url(#pfeafc06119)" style="fill: none; stroke: #0000ff; stroke-width: 2; stroke-linecap: square"/>
   </g>
   <g id="line2d_11">
    <path d="M 53.164375 93.164041 
L 56.886485 92.490683 
L 60.608596 91.149908 
L 64.330706 88.985708 
L 68.052817 85.664521 
L 71.774927 80.799266 
L 75.497038 74.120625 
L 79.219148 65.706518 
L 82.941259 56.181448 
L 86.663369 46.649522 
L 90.385479 38.243754 
L 94.10759 31.646655 
L 97.8297 26.932872 
L 101.551811 23.7731 
L 105.273921 21.756702 
L 108.996032 20.49415 
L 112.718142 19.72368 
L 116.440253 19.256435 
L 120.162363 18.983455 
" clip-path="url(#pfeafc06119)" style="fill: none; stroke: #0000ff; stroke-width: 2; stroke-linecap: square"/>
   </g>
   <g id="line2d_12">
    <path d="M 53.164375 93.164041 
L 56.886485 92.490683 
L 60.608596 91.149908 
L 64.330706 88.985708 
L 68.052817 85.664521 
L 71.774927 80.799266 
L 75.497038 74.120625 
L 79.219148 65.706518 
L 82.941259 56.181448 
L 86.663369 46.649522 
L 90.385479 38.243754 
L 94.10759 31.646655 
L 97.8297 26.932872 
L 101.551811 23.7731 
L 105.273921 21.756702 
L 108.996032 20.49415 
L 112.718142 19.72368 
L 116.440253 19.256435 
L 120.162363 18.983455 
" clip-path="url(#pfeafc06119)" style="fill: none; stroke: #0000ff; stroke-width: 2; stroke-linecap: square"/>
   </g>
   <g id="line2d_13">
    <path d="M 53.164375 93.164041 
L 56.886485 92.490683 
L 60.608596 91.149908 
L 64.330706 88.985708 
L 68.052817 85.664521 
L 71.774927 80.799266 
L 75.497038 74.120625 
L 79.219148 65.706518 
L 82.941259 56.181448 
L 86.663369 46.649522 
L 90.385479 38.243754 
L 94.10759 31.646655 
L 97.8297 26.932872 
L 101.551811 23.7731 
L 105.273921 21.756702 
L 108.996032 20.49415 
L 112.718142 19.72368 
L 116.440253 19.256435 
L 120.162363 18.983455 
" clip-path="url(#pfeafc06119)" style="fill: none; stroke: #0000ff; stroke-width: 2; stroke-linecap: square"/>
   </g>
   <g id="line2d_14">
    <path d="M 53.164375 93.164041 
L 56.886485 92.490683 
L 60.608596 91.149908 
L 64.330706 88.985708 
L 68.052817 85.664521 
L 71.774927 80.799266 
L 75.497038 74.120625 
L 79.219148 65.706518 
L 82.941259 56.181448 
L 86.663369 46.649522 
L 90.385479 38.243754 
L 94.10759 31.646655 
L 97.8297 26.932872 
L 101.551811 23.7731 
L 105.273921 21.756702 
L 108.996032 20.49415 
L 112.718142 19.72368 
L 116.440253 19.256435 
L 120.162363 18.983455 
" clip-path="url(#pfeafc06119)" style="fill: none; stroke: #0000ff; stroke-width: 2; stroke-linecap: square"/>
   </g>
   <g id="line2d_15">
    <path d="M 53.164375 93.164041 
L 56.886485 92.490683 
L 60.608596 91.149908 
L 64.330706 88.985708 
L 68.052817 85.664521 
L 71.774927 80.799266 
L 75.497038 74.120625 
L 79.219148 65.706518 
L 82.941259 56.181448 
L 86.663369 46.649522 
L 90.385479 38.243754 
L 94.10759 31.646655 
L 97.8297 26.932872 
L 101.551811 23.7731 
L 105.273921 21.756702 
L 108.996032 20.49415 
L 112.718142 19.72368 
L 116.440253 19.256435 
L 120.162363 18.983455 
" clip-path="url(#pfeafc06119)" style="fill: none; stroke: #0000ff; stroke-width: 2; stroke-linecap: square"/>
   </g>
   <g id="line2d_16">
    <path d="M 53.164375 93.164041 
L 56.886485 92.490683 
L 60.608596 91.149908 
L 64.330706 88.985708 
L 68.052817 85.664521 
L 71.774927 80.799266 
L 75.497038 74.120625 
L 79.219148 65.706518 
L 82.941259 56.181448 
L 86.663369 46.649522 
L 90.385479 38.243754 
L 94.10759 31.646655 
L 97.8297 26.932872 
L 101.551811 23.7731 
L 105.273921 21.756702 
L 108.996032 20.49415 
L 112.718142 19.72368 
L 116.440253 19.256435 
L 120.162363 18.983455 
" clip-path="url(#pfeafc06119)" style="fill: none; stroke: #0000ff; stroke-width: 2; stroke-linecap: square"/>
   </g>
   <g id="line2d_17">
    <path d="M 53.164375 93.164041 
L 56.886485 92.490683 
L 60.608596 91.149908 
L 64.330706 88.985708 
L 68.052817 85.664521 
L 71.774927 80.799266 
L 75.497038 74.120625 
L 79.219148 65.706518 
L 82.941259 56.181448 
L 86.663369 46.649522 
L 90.385479 38.243754 
L 94.10759 31.646655 
L 97.8297 26.932872 
L 101.551811 23.7731 
L 105.273921 21.756702 
L 108.996032 20.49415 
L 112.718142 19.72368 
L 116.440253 19.256435 
L 120.162363 18.983455 
" clip-path="url(#pfeafc06119)" style="fill: none; stroke: #0000ff; stroke-width: 2; stroke-linecap: square"/>
   </g>
   <g id="line2d_18">
    <path d="M 53.164375 93.164041 
L 56.886485 92.490683 
L 60.608596 91.149908 
L 64.330706 88.985708 
L 68.052817 85.664521 
L 71.774927 80.799266 
L 75.497038 74.120625 
L 79.219148 65.706518 
L 82.941259 56.181448 
L 86.663369 46.649522 
L 90.385479 38.243754 
L 94.10759 31.646655 
L 97.8297 26.932872 
L 101.551811 23.7731 
L 105.273921 21.756702 
L 108.996032 20.49415 
L 112.718142 19.72368 
L 116.440253 19.256435 
L 120.162363 18.983455 
" clip-path="url(#pfeafc06119)" style="fill: none; stroke: #0000ff; stroke-width: 2; stroke-linecap: square"/>
   </g>
   <g id="line2d_19">
    <path d="M 53.164375 93.164041 
L 56.886485 92.490683 
L 60.608596 91.149908 
L 64.330706 88.985708 
L 68.052817 85.664521 
L 71.774927 80.799266 
L 75.497038 74.120625 
L 79.219148 65.706518 
L 82.941259 56.181448 
L 86.663369 46.649522 
L 90.385479 38.243754 
L 94.10759 31.646655 
L 97.8297 26.932872 
L 101.551811 23.7731 
L 105.273921 21.756702 
L 108.996032 20.49415 
L 112.718142 19.72368 
L 116.440253 19.256435 
L 120.162363 18.983455 
" clip-path="url(#pfeafc06119)" style="fill: none; stroke: #0000ff; stroke-width: 2; stroke-linecap: square"/>
   </g>
   <g id="line2d_20">
    <path d="M 53.164375 93.164041 
L 56.886485 92.490683 
L 60.608596 91.149908 
L 64.330706 88.985708 
L 68.052817 85.664521 
L 71.774927 80.799266 
L 75.497038 74.120625 
L 79.219148 65.706518 
L 82.941259 56.181448 
L 86.663369 46.649522 
L 90.385479 38.243754 
L 94.10759 31.646655 
L 97.8297 26.932872 
L 101.551811 23.7731 
L 105.273921 21.756702 
L 108.996032 20.49415 
L 112.718142 19.72368 
L 116.440253 19.256435 
L 120.162363 18.983455 
" clip-path="url(#pfeafc06119)" style="fill: none; stroke: #0000ff; stroke-width: 2; stroke-linecap: square"/>
   </g>
   <g id="line2d_21">
    <path d="M 53.164375 93.164041 
L 56.886485 92.490683 
L 60.608596 91.149908 
L 64.330706 88.985708 
L 68.052817 85.664521 
L 71.774927 80.799266 
L 75.497038 74.120625 
L 79.219148 65.706518 
L 82.941259 56.181448 
L 86.663369 46.649522 
L 90.385479 38.243754 
L 94.10759 31.646655 
L 97.8297 26.932872 
L 101.551811 23.7731 
L 105.273921 21.756702 
L 108.996032 20.49415 
L 112.718142 19.72368 
L 116.440253 19.256435 
L 120.162363 18.983455 
" clip-path="url(#pfeafc06119)" style="fill: none; stroke: #0000ff; stroke-width: 2; stroke-linecap: square"/>
   </g>
   <g id="line2d_22">
    <path d="M 53.164375 93.164041 
L 56.886485 92.490683 
L 60.608596 91.149908 
L 64.330706 88.985708 
L 68.052817 85.664521 
L 71.774927 80.799266 
L 75.497038 74.120625 
L 79.219148 65.706518 
L 82.941259 56.181448 
L 86.663369 46.649522 
L 90.385479 38.243754 
L 94.10759 31.646655 
L 97.8297 26.932872 
L 101.551811 23.7731 
L 105.273921 21.756702 
L 108.996032 20.49415 
L 112.718142 19.72368 
L 116.440253 19.256435 
L 120.162363 18.983455 
" clip-path="url(#pfeafc06119)" style="fill: none; stroke: #0000ff; stroke-width: 2; stroke-linecap: square"/>
   </g>
   <g id="line2d_23">
    <path d="M 53.164375 93.164041 
L 56.886485 92.490683 
L 60.608596 91.149908 
L 64.330706 88.985708 
L 68.052817 85.664521 
L 71.774927 80.799266 
L 75.497038 74.120625 
L 79.219148 65.706518 
L 82.941259 56.181448 
L 86.663369 46.649522 
L 90.385479 38.243754 
L 94.10759 31.646655 
L 97.8297 26.932872 
L 101.551811 23.7731 
L 105.273921 21.756702 
L 108.996032 20.49415 
L 112.718142 19.72368 
L 116.440253 19.256435 
L 120.162363 18.983455 
" clip-path="url(#pfeafc06119)" style="fill: none; stroke: #0000ff; stroke-width: 2; stroke-linecap: square"/>
   </g>
   <g id="line2d_24">
    <path d="M 53.164375 93.164041 
L 56.886485 92.490683 
L 60.608596 91.149908 
L 64.330706 88.985708 
L 68.052817 85.664521 
L 71.774927 80.799266 
L 75.497038 74.120625 
L 79.219148 65.706518 
L 82.941259 56.181448 
L 86.663369 46.649522 
L 90.385479 38.243754 
L 94.10759 31.646655 
L 97.8297 26.932872 
L 101.551811 23.7731 
L 105.273921 21.756702 
L 108.996032 20.49415 
L 112.718142 19.72368 
L 116.440253 19.256435 
L 120.162363 18.983455 
" clip-path="url(#pfeafc06119)" style="fill: none; stroke: #0000ff; stroke-width: 2; stroke-linecap: square"/>
   </g>
   <g id="line2d_25">
    <path d="M 53.164375 93.164041 
L 56.886485 92.490683 
L 60.608596 91.149908 
L 64.330706 88.985708 
L 68.052817 85.664521 
L 71.774927 80.799266 
L 75.497038 74.120625 
L 79.219148 65.706518 
L 82.941259 56.181448 
L 86.663369 46.649522 
L 90.385479 38.243754 
L 94.10759 31.646655 
L 97.8297 26.932872 
L 101.551811 23.7731 
L 105.273921 21.756702 
L 108.996032 20.49415 
L 112.718142 19.72368 
L 116.440253 19.256435 
L 120.162363 18.983455 
" clip-path="url(#pfeafc06119)" style="fill: none; stroke: #0000ff; stroke-width: 2; stroke-linecap: square"/>
   </g>
   <g id="line2d_26">
    <path d="M 53.164375 21.746458 
L 120.162363 21.746458 
" clip-path="url(#pfeafc06119)" style="fill: none; stroke-dasharray: 7.4,3.2; stroke-dashoffset: 0; stroke: #ffa500; stroke-width: 2"/>
   </g>
   <g id="patch_3">
    <path d="M 53.164375 94.47875 
L 53.164375 7.2 
" style="fill: none; stroke: #000000; stroke-width: 0.5; stroke-linejoin: miter; stroke-linecap: square"/>
   </g>
   <g id="patch_4">
    <path d="M 53.164375 94.47875 
L 120.162363 94.47875 
" style="fill: none; stroke: #000000; stroke-width: 0.5; stroke-linejoin: miter; stroke-linecap: square"/>
   </g>
  </g>
 </g>
 <defs>
  <clipPath id="pfeafc06119">
   <rect x="53.164375" y="7.2" width="66.997988" height="87.27875"/>
  </clipPath>
 </defs>
</svg>
